<svg xmlns="http://www.w3.org/2000/svg" width="73" height="73" viewBox="0 0 73 73" fill="none"><g clip-path="url(#clip0_2467_2908)"><path d="M36.4191 21.6912H28.8623V24.5712H36.4191V21.6912Z" fill="#D7F4FC"></path><path d="M44.5521 31.5659H36.4189V34.4459H44.5521V31.5659Z" fill="#4B7AA8"></path><path d="M44.5521 36.5015H36.4189V39.3815H44.5521V36.5015Z" fill="#4B7AA8"></path><path d="M44.5521 51.3157H36.4189V54.1957H44.5521V51.3157Z" fill="#4B7AA8"></path><path d="M44.5521 56.251H36.4189V59.131H44.5521V56.251Z" fill="#4B7AA8"></path><path d="M44.5521 26.627H28.8623V29.507H44.5521V26.627Z" fill="#4B84BC"></path><path d="M36.4191 41.4409H28.8623V44.3209H36.4191V41.4409Z" fill="#D7F4FC"></path><path d="M44.5521 46.3765H28.8623V49.2565H44.5521V46.3765Z" fill="#4B84BC"></path><path d="M55.8669 31.5659H47.7334V34.4459H55.8669V31.5659Z" fill="#D7F4FC"></path><path d="M63.4232 36.5017H47.7334V39.3817H63.4232V36.5017Z" fill="#4B7AA8"></path><path d="M55.8669 51.3157H47.7334V54.1957H55.8669V51.3157Z" fill="#D7F4FC"></path><path d="M63.4232 56.2512H47.7334V59.1312H63.4232V56.2512Z" fill="#4B7AA8"></path><path d="M55.8669 26.627H47.7334V29.507H55.8669V26.627Z" fill="#4B7AA8"></path><path d="M55.8669 46.3767H47.7334V49.2567H55.8669V46.3767Z" fill="#4B7AA8"></path><path d="M72.0625 66.2347H0.0625V14.5874H72.0625V66.2347ZM2.9425 63.3547H69.1825V17.4674H2.9425V63.3547Z" fill="#4B7AA8"></path><path d="M72.0625 17.4675H0.0625V5.94751H72.0625V17.4675ZM2.9425 14.5875H69.1825V8.82751H2.9425V14.5875Z" fill="#4B7AA8"></path><path d="M7.26281 10.2686H4.38281V13.1486H7.26281V10.2686Z" fill="#4B7AA8"></path><path d="M13.0226 10.2686H10.1426V13.1486H13.0226V10.2686Z" fill="#4B7AA8"></path><path d="M18.7823 10.2686H15.9023V13.1486H18.7823V10.2686Z" fill="#4B7AA8"></path><path d="M23.1027 16.0286H20.2227V64.7977H23.1027V16.0286Z" fill="#4B7AA8"></path><path d="M17.3423 21.6912H5.82227V34.446H17.3423V21.6912Z" fill="#4B84BC"></path><path d="M17.3423 36.5017H5.82227V39.3817H17.3423V36.5017Z" fill="#4B7AA8"></path><path d="M17.3423 41.4373H5.82227V44.3173H17.3423V41.4373Z" fill="#4B7AA8"></path><path d="M17.3423 46.3728H5.82227V49.2528H17.3423V46.3728Z" fill="#4B7AA8"></path><path d="M17.3423 51.3083H5.82227V54.1883H17.3423V51.3083Z" fill="#4B7AA8"></path></g><defs><clipPath id="clip0_2467_2908"><rect width="72" height="72" fill="white" transform="translate(0.0625 0.0910645)"></rect></clipPath></defs></svg>