<svg width="60" height="60" viewBox="0 0 60 60" fill="none" xmlns="http://www.w3.org/2000/svg">
<path d="M57.1428 29.0475H50.3694V21.3134H42.6353V19.3758H32.9637V29.0475H27.1509V25.9213C27.1435 24.9382 26.8396 23.9802 26.2789 23.1727C25.7183 22.3651 24.9269 21.7455 24.0085 21.3948L19.4006 19.6689V18.8223C20.145 18.1688 20.7062 17.3326 21.0288 16.3962C21.9349 16.2496 22.7596 15.7863 23.356 15.0885C23.9523 14.3908 24.2816 13.504 24.2853 12.5862V8.71098C24.2853 6.40068 23.3675 4.18501 21.7339 2.55138C20.1003 0.91775 17.8846 0 15.5743 0C13.264 0 11.0483 0.91775 9.41469 2.55138C7.78106 4.18501 6.86329 6.40068 6.86329 8.71098V12.5862C6.86694 13.504 7.19628 14.3908 7.79263 15.0885C8.38899 15.7863 9.21364 16.2496 10.1197 16.3962C10.449 17.3293 11.0091 18.164 11.748 18.8223V19.6689L7.14006 21.3948C6.22158 21.7455 5.43031 22.3651 4.86965 23.1727C4.30899 23.9802 4.00505 24.9382 3.9976 25.9213V29.0475H2.89042C2.12176 29.0475 1.38461 29.3528 0.841082 29.8964C0.297557 30.4399 -0.0078125 31.1771 -0.0078125 31.9457V33.8833C-0.0078125 34.652 0.297557 35.3892 0.841082 35.9327C1.38461 36.4762 2.12176 36.7816 2.89042 36.7816V60H57.094V36.7816C57.8626 36.7816 58.5998 36.4762 59.1433 35.9327C59.6868 35.3892 59.9922 34.652 59.9922 33.8833V31.9457C59.9923 31.1855 59.6937 30.4556 59.1607 29.9135C58.6277 29.3713 57.903 29.0603 57.1428 29.0475ZM48.4807 23.2347V29.0475H42.619V23.2347H48.4807ZM34.9338 21.2972H40.7466V29.0312H34.9338V21.2972ZM15.5743 18.3989C14.5479 18.3946 13.5646 17.985 12.8388 17.2592C12.113 16.5334 11.7034 15.5502 11.6991 14.5237V10.5509C13.3815 10.3977 15.0017 9.83897 16.4209 8.92266C17.2318 9.76478 18.2845 10.3338 19.4332 10.5509V14.5237C19.4354 15.036 19.3356 15.5436 19.1396 16.0169C18.9435 16.4901 18.6552 16.9197 18.2915 17.2804C17.9278 17.6411 17.4959 17.9258 17.021 18.1178C16.546 18.3098 16.0377 18.4054 15.5254 18.3989H15.5743ZM21.387 14.2307V10.9742C21.6748 11.1376 21.9141 11.3744 22.0806 11.6604C22.2471 11.9465 22.3348 12.2715 22.3348 12.6024C22.3348 12.9334 22.2471 13.2584 22.0806 13.5444C21.9141 13.8305 21.6748 14.0672 21.387 14.2307ZM15.5743 1.95386C17.3694 1.95816 19.0897 2.67315 20.359 3.94248C21.6284 5.21181 22.3434 6.93218 22.3477 8.72728V9.26459C21.7604 8.91813 21.092 8.73278 20.4101 8.72728C19.9227 8.72812 19.44 8.63211 18.9899 8.44484C18.5399 8.25757 18.1316 7.98276 17.7887 7.63637L16.6652 6.51289L15.5091 7.27816C14.0919 8.22404 12.426 8.72834 10.7222 8.72728C10.0406 8.73506 9.37282 8.92025 8.78458 9.26459V8.72728C8.79306 6.93909 9.50494 5.22608 10.7663 3.95858C12.0277 2.69109 13.7373 1.97095 15.5254 1.95386H15.5743ZM8.80088 12.5862C8.81016 12.2556 8.90312 11.9329 9.07114 11.6481C9.23915 11.3633 9.47671 11.1259 9.76152 10.9579V14.2144C9.46335 14.0577 9.21252 13.824 9.03502 13.5378C8.85752 13.2515 8.75982 12.9229 8.75203 12.5862H8.80088ZM15.5743 20.3365C16.2356 20.326 16.8905 20.205 17.5119 19.9783V20.3202C17.5119 20.8341 17.3077 21.3269 16.9444 21.6903C16.581 22.0537 16.0882 22.2578 15.5743 22.2578C15.0604 22.2578 14.5676 22.0537 14.2042 21.6903C13.8408 21.3269 13.6367 20.8341 13.6367 20.3202V19.962C14.243 20.182 14.8807 20.303 15.5254 20.3202L15.5743 20.3365ZM5.90264 25.9213C5.90216 25.3294 6.08285 24.7516 6.42051 24.2655C6.75816 23.7794 7.23659 23.4083 7.79139 23.2022L11.9596 21.574C12.2211 22.3288 12.7113 22.9833 13.362 23.4466C14.0128 23.9099 14.7917 24.1588 15.5905 24.1588C16.3894 24.1588 17.1683 23.9099 17.8191 23.4466C18.4698 22.9833 18.96 22.3288 19.2215 21.574L23.3897 23.2022C23.9419 23.4122 24.4178 23.7843 24.7549 24.2695C25.0919 24.7547 25.2744 25.3305 25.2785 25.9213V29.0475H23.3409V25.2049H21.4033V29.0801H9.79407V25.2049H7.77509V29.0801H5.8375V25.9539L5.90264 25.9213ZM55.2541 58.0787H4.87686V36.7816H55.2052L55.2541 58.0787ZM58.1686 33.8833C58.1686 34.1381 58.0674 34.3824 57.8872 34.5626C57.7071 34.7428 57.4627 34.844 57.2079 34.844H2.89042C2.63564 34.844 2.39128 34.7428 2.21112 34.5626C2.03096 34.3824 1.92978 34.1381 1.92978 33.8833V31.9457C1.92978 31.6909 2.03096 31.4466 2.21112 31.2664C2.39128 31.0863 2.63564 30.9851 2.89042 30.9851H57.094C57.3488 30.9851 57.5931 31.0863 57.7732 31.2664C57.9534 31.4466 58.0546 31.6909 58.0546 31.9457L58.1686 33.8833Z" fill="#4D84BD"/>
<path d="M41.6552 56.1412H47.4679V50.3284H53.3621V44.5156H47.5493V38.7029H41.7365V44.5156H35.9238V50.3284H41.7365L41.6552 56.1412ZM37.78 48.4071V46.4695H43.5927V40.6568H45.5303V46.4695H51.3431V48.4071H45.5303V54.2199H43.5927V48.4071H37.78Z" fill="#4D84BD"/>
<path d="M30.0329 38.7192H6.81445V40.6568H30.0329V38.7192Z" fill="#4D84BD"/>
<path d="M30.0489 42.5942H28.1113V44.5318H30.0489V42.5942Z" fill="#4D84BD"/>
<path d="M26.1719 42.5942H10.6875V44.5318H26.1719V42.5942Z" fill="#4D84BD"/>
<path d="M8.75204 42.5942H6.81445V44.5318H8.75204V42.5942Z" fill="#4D84BD"/>
<path d="M30.0329 46.4695H6.81445V48.4071H30.0329V46.4695Z" fill="#4D84BD"/>
<path d="M29.0703 0.0162964V17.4383H60.0065V0.0162964H29.0703ZM42.6334 7.75036H48.4788V15.4356H42.666L42.6334 7.75036ZM50.3675 9.68794H54.2427V15.4356H50.3675V9.68794ZM40.6958 15.4356H34.8831V5.82906H40.6958V15.4356ZM58.1179 15.4356H56.1803V7.70151H50.3675V5.82906H42.6334V3.89147H32.9618V15.4356H31.0242V1.88874H58.1179V15.4356Z" fill="#4D84BD"/>
</svg>
