<svg width="55" height="60" viewBox="0 0 55 60" fill="none" xmlns="http://www.w3.org/2000/svg">
<path d="M54.0274 56.9252L51.3755 41.4046C51.2375 40.5914 50.8749 39.8329 50.3287 39.2149C49.7825 38.5968 49.0745 38.1438 48.2844 37.9067L41.1261 35.7429C40.9834 33.9885 40.2558 32.3328 39.0599 31.0412C38.1141 30.0068 36.9137 29.2384 35.5784 28.8124C35.8061 28.5684 36.0176 28.308 36.2128 28.064C37.6626 26.2791 38.6415 24.1592 39.0599 21.8981H39.5805C40.2709 21.8981 40.933 21.6238 41.4212 21.1357C41.9093 20.6475 42.1836 19.9854 42.1836 19.295V17.961C42.1811 17.4956 42.0547 17.0393 41.8174 16.639C41.5801 16.2386 41.2404 15.9088 40.8333 15.6833V12.4295C40.8333 12.1965 40.7407 11.9731 40.5759 11.8083C40.4112 11.6436 40.1877 11.551 39.9547 11.551C39.7217 11.551 39.4983 11.6436 39.3335 11.8083C39.1688 11.9731 39.0762 12.1965 39.0762 12.4295V16.0249C38.6747 16.0968 38.282 16.2113 37.9048 16.3666H37.7747C37.6776 16.4055 37.5849 16.4546 37.4981 16.513V9.43603C37.4938 8.49673 37.1188 7.59708 36.4546 6.93288C35.7904 6.26868 34.8908 5.89364 33.9515 5.88936H31.5274C30.6924 5.89093 29.8829 6.17795 29.2335 6.70281L28.9894 6.89808C28.5529 7.25423 28.0072 7.44951 27.4439 7.45122C26.8796 7.45496 26.3321 7.25903 25.8983 6.89808L25.6543 6.70281C25.0035 6.18024 24.195 5.89352 23.3604 5.88936H20.9363C19.997 5.89364 19.0974 6.26868 18.4332 6.93288C17.769 7.59708 17.3939 8.49673 17.3897 9.43603V16.513L17.1131 16.3666H16.9829C16.6058 16.2113 16.2131 16.0968 15.8116 16.0249V6.91431C15.8116 5.54652 16.3549 4.23477 17.3221 3.2676C18.2893 2.30042 19.601 1.75708 20.9688 1.75708H33.984C35.3518 1.75708 36.6636 2.30042 37.6307 3.2676C38.5979 4.23477 39.1413 5.54652 39.1413 6.91431V8.29719C39.1413 8.53019 39.2338 8.75364 39.3986 8.91839C39.5634 9.08315 39.7868 9.17572 40.0198 9.17572C40.2528 9.17572 40.4763 9.08315 40.641 8.91839C40.8058 8.75364 40.8983 8.53019 40.8983 8.29719V6.91431C40.894 5.08184 40.1642 3.32565 38.8684 2.0299C37.5727 0.734143 35.8165 0.00429655 33.984 0H20.9688C19.1364 0.00429655 17.3802 0.734143 16.0844 2.0299C14.7887 3.32565 14.0588 5.08184 14.0545 6.91431V15.6345C13.6474 15.86 13.3077 16.1898 13.0703 16.5902C12.833 16.9905 12.7066 17.4468 12.7042 17.9122V19.2462C12.7042 19.9366 12.9784 20.5987 13.4666 21.0869C13.9548 21.575 14.6169 21.8493 15.3072 21.8493H15.8604C16.2788 24.1103 17.2577 26.2303 18.7074 28.0152L19.3419 28.7636C17.8384 29.2432 16.5107 30.1574 15.5262 31.3909C14.5418 32.6243 13.9448 34.1217 13.8105 35.6941L6.65212 37.8579C5.86023 38.0915 5.15023 38.5436 4.60351 39.1623C4.05678 39.7809 3.69547 40.5411 3.56103 41.3558L2.48727 47.6681C2.45548 47.7863 2.44874 47.9098 2.46746 48.0307C2.48618 48.1516 2.52995 48.2673 2.59597 48.3703C2.662 48.4733 2.7488 48.5615 2.85085 48.629C2.95289 48.6965 3.06792 48.7419 3.18856 48.7624C3.3092 48.7829 3.43278 48.778 3.55139 48.7479C3.67001 48.7179 3.78106 48.6634 3.87739 48.5879C3.97372 48.5125 4.0532 48.4177 4.11079 48.3097C4.16838 48.2018 4.20277 48.083 4.21178 47.961L5.28553 41.6486C5.37012 41.157 5.58998 40.6988 5.92044 40.3252C6.25091 39.9517 6.67893 39.6776 7.15648 39.5336L13.7779 37.5325V39.2733C13.0439 39.4166 12.3591 39.7462 11.7893 40.2306C11.2194 40.7149 10.7838 41.3377 10.5241 42.039C10.3817 42.4206 10.2941 42.8205 10.2638 43.2267L9.62935 51.4425C9.60458 51.7499 9.64389 52.0591 9.74476 52.3505C9.84562 52.6419 10.0059 52.9093 10.2154 53.1356C10.4248 53.3619 10.679 53.5422 10.9618 53.6653C11.2446 53.7883 11.5498 53.8513 11.8582 53.8503H12.9482C13.1812 53.8503 13.4047 53.7577 13.5694 53.593C13.7342 53.4282 13.8267 53.2048 13.8267 52.9718C13.8267 52.7388 13.7342 52.5153 13.5694 52.3506C13.4047 52.1858 13.1812 52.0933 12.9482 52.0933H11.8582C11.794 52.0953 11.7302 52.0833 11.6711 52.058C11.6121 52.0327 11.5593 51.9948 11.5166 51.9469C11.472 51.899 11.4375 51.8426 11.4151 51.7811C11.3928 51.7196 11.383 51.6543 11.3864 51.589L12.0209 43.3731C12.0343 43.127 12.0893 42.8849 12.1836 42.6572C12.3865 42.167 12.7327 41.7495 13.1768 41.4592C13.6209 41.169 14.1423 41.0195 14.6727 41.0304H14.8354C15.3604 41.026 15.8746 41.1786 16.3123 41.4685C16.75 41.7583 17.0912 42.1723 17.292 42.6572C17.4024 42.9278 17.4736 43.2127 17.5035 43.5033L18.138 51.7191C18.1446 51.7847 18.1363 51.8509 18.1138 51.9129C18.0912 51.9748 18.055 52.0309 18.0079 52.077C17.9638 52.1233 17.9108 52.1601 17.8521 52.1853C17.7934 52.2105 17.7301 52.2234 17.6662 52.2234H16.5762C16.3432 52.2234 16.1198 52.316 15.955 52.4807C15.7902 52.6455 15.6977 52.869 15.6977 53.102C15.6977 53.335 15.7902 53.5584 15.955 53.7232C16.1198 53.8879 16.3432 53.9805 16.5762 53.9805H17.6662C17.9746 53.9815 18.2799 53.9184 18.5626 53.7954C18.8454 53.6724 19.0996 53.492 19.3091 53.2657C19.5185 53.0394 19.6788 52.7721 19.7797 52.4806C19.8805 52.1892 19.9198 51.8801 19.8951 51.5727L19.2606 43.4382C19.2282 42.9556 19.1126 42.4822 18.9189 42.039C18.6314 41.3749 18.1836 40.7926 17.6158 40.344C17.048 39.8954 16.3777 39.5946 15.6651 39.4685V37.2071L18.6912 36.2961C18.9677 36.8818 19.5046 38.1182 20.5946 40.8188C21.6847 43.5195 23.035 47.0173 24.3202 50.4013V50.4826C25.1825 52.744 26.0285 54.9566 26.7443 56.8764C26.8102 57.038 26.9228 57.1763 27.0677 57.2737C27.2126 57.371 27.3832 57.423 27.5578 57.423C27.7323 57.423 27.9029 57.371 28.0478 57.2737C28.1927 57.1763 28.3053 57.038 28.3712 56.8764L30.7953 50.4826V50.4013C32.0968 47.0173 33.4309 43.5358 34.5209 40.8188C35.6109 38.1019 36.1478 36.8655 36.4244 36.2961L39.4341 37.2071V42.3969C38.3269 42.6133 37.34 43.2342 36.6656 44.1386C35.9913 45.043 35.6779 46.1661 35.7866 47.289C35.8952 48.4119 36.4182 49.4541 37.2534 50.2124C38.0887 50.9707 39.1764 51.3908 40.3045 51.3908C41.4327 51.3908 42.5203 50.9707 43.3556 50.2124C44.1908 49.4541 44.7138 48.4119 44.8224 47.289C44.9311 46.1661 44.6177 45.043 43.9434 44.1386C43.2691 43.2342 42.2821 42.6133 41.1749 42.3969V37.5976L47.7964 39.5987C48.2758 39.7392 48.7057 40.0123 49.0368 40.3865C49.3678 40.7606 49.5863 41.2207 49.6673 41.7137L52.3191 57.2343C52.3397 57.3606 52.3329 57.4899 52.2992 57.6134C52.2655 57.7368 52.2058 57.8517 52.1239 57.9501C52.0424 58.0476 51.9403 58.1259 51.825 58.1793C51.7097 58.2327 51.584 58.26 51.4569 58.2592H3.56103C3.4336 58.2586 3.30783 58.2304 3.19243 58.1763C3.07703 58.1223 2.97476 58.0438 2.89273 57.9463C2.81069 57.8487 2.75086 57.7346 2.71737 57.6116C2.68387 57.4887 2.67753 57.3599 2.69877 57.2343L3.57729 52.1095C3.59337 51.8915 3.52759 51.6753 3.39277 51.5032C3.25794 51.331 3.06379 51.2154 2.84824 51.1788C2.63269 51.1422 2.41121 51.1872 2.22713 51.3052C2.04305 51.4232 1.90957 51.6056 1.85278 51.8167L0.974266 56.9414C0.908394 57.3179 0.926742 57.7043 1.02801 58.0728C1.12928 58.4413 1.31095 58.7827 1.55995 59.0726C1.80743 59.3617 2.11423 59.5942 2.45951 59.7542C2.8048 59.9142 3.18047 59.998 3.56103 60H51.4731C51.8542 60.0013 52.231 59.919 52.5768 59.7587C52.9225 59.5985 53.2289 59.3643 53.4742 59.0726C53.7105 58.7727 53.8817 58.4269 53.9769 58.0572C54.0722 57.6874 54.0893 57.3019 54.0274 56.9252ZM39.125 17.8796C39.4021 17.8116 39.6857 17.7734 39.971 17.7657C40.1177 17.7665 40.2625 17.7331 40.394 17.6681C40.411 17.7705 40.411 17.8749 40.394 17.9772V19.3113C40.394 19.5356 40.3049 19.7508 40.1462 19.9095C39.9876 20.0681 39.7724 20.1573 39.548 20.1573H39.0599L39.125 17.8796ZM15.8441 20.1573H15.356C15.2449 20.1573 15.1349 20.1354 15.0323 20.0929C14.9297 20.0504 14.8364 19.988 14.7578 19.9095C14.6793 19.8309 14.6169 19.7377 14.5744 19.635C14.5319 19.5324 14.51 19.4224 14.51 19.3113V17.9772C14.4858 17.8756 14.4858 17.7697 14.51 17.6681C14.6415 17.7331 14.7864 17.7665 14.933 17.7657C15.2183 17.7734 15.5019 17.8116 15.779 17.8796L15.8441 20.1573ZM17.6012 21.1334V18.8232C17.8692 18.9201 18.1628 18.9201 18.4309 18.8232C18.6565 18.7301 18.8495 18.5722 18.9856 18.3696C19.1217 18.1669 19.1947 17.9285 19.1955 17.6844V9.54988C19.1955 9.07525 19.384 8.62009 19.7197 8.28448C20.0553 7.94886 20.5105 7.76033 20.9851 7.76033H23.4092C23.8428 7.75552 24.2639 7.90547 24.5968 8.18329L24.8408 8.37856C25.5935 8.99367 26.5369 9.32731 27.509 9.32214C28.4798 9.32065 29.4211 8.98778 30.1771 8.37856L30.4211 8.18329C30.7554 7.90794 31.1756 7.75833 31.6087 7.76033H34.0328C34.5074 7.76033 34.9626 7.94886 35.2982 8.28448C35.6339 8.62009 35.8224 9.07525 35.8224 9.54988V17.6844C35.821 17.929 35.8932 18.1683 36.0295 18.3714C36.1659 18.5745 36.3601 18.7319 36.587 18.8232C36.85 18.9176 37.1376 18.9176 37.4005 18.8232V21.1334C37.1401 23.2874 36.2646 25.3208 34.8788 26.9902C34.2712 27.7713 33.5659 28.4711 32.7801 29.0726C31.2919 30.2022 29.4749 30.8136 27.6066 30.8136C25.7382 30.8136 23.9213 30.2022 22.433 29.0726C21.6473 28.4711 20.9419 27.7713 20.3343 26.9902C18.856 25.3502 17.9039 23.3043 17.6012 21.1171V21.1334ZM33.2356 35.32L27.4764 39.615L21.6847 35.3037C22.2434 34.5921 22.5573 33.719 22.5795 32.8145V31.3991C24.08 32.2051 25.7568 32.627 27.4602 32.627C29.1635 32.627 30.8403 32.2051 32.3408 31.3991V32.8145C32.363 33.719 32.6769 34.5921 33.2356 35.3037V35.32ZM20.2205 34.3438C19.739 34.1894 19.2214 34.1894 18.74 34.3438L15.714 35.2549C15.9754 34.0107 16.6112 32.8763 17.5359 32.0039C18.4607 31.1315 19.6302 30.5628 20.8875 30.3742V32.9284C20.8323 33.4479 20.6162 33.937 20.2693 34.3275L20.2205 34.3438ZM34.0491 36.9794C34.0491 37.077 34.0491 37.1909 33.9189 37.3048L33.7725 37.6464C33.7725 37.744 33.6912 37.8417 33.6424 37.9555C33.6485 38.0042 33.6485 38.0533 33.6424 38.102C33.6424 38.102 33.6424 38.2158 33.6424 38.2809L33.4471 38.7364V38.8178L33.3495 39.0618C33.3425 39.094 33.3425 39.1273 33.3495 39.1594L33.2519 39.4197L32.8777 40.3471L29.1521 49.9458C28.6152 51.3286 28.1435 52.5976 27.7693 53.5738C27.7425 53.5214 27.7097 53.4722 27.6716 53.4273C27.3137 52.5 26.8745 51.3449 26.4027 50.0597L22.8723 40.9165C22.8381 40.8489 22.8109 40.7781 22.7909 40.705L22.6608 40.3796C22.5307 40.0542 22.4005 39.7451 22.2866 39.436L22.189 39.1757C22.1819 39.1436 22.1819 39.1103 22.189 39.0781L22.0914 38.834C22.0301 38.6959 21.9758 38.5547 21.9287 38.4111V38.2972C21.926 38.243 21.926 38.1887 21.9287 38.1345C21.9314 38.0803 21.9314 38.026 21.9287 37.9718L21.6359 37.2722L21.4894 36.9306V36.7679L25.0198 39.4035L28.176 41.6161L30.6489 39.9078L34.8788 36.7516C34.7881 36.8654 34.6635 36.9473 34.523 36.9854C34.3826 37.0234 34.2336 37.0156 34.0979 36.9631L34.0491 36.9794ZM36.1966 34.2787C35.6956 34.1077 35.152 34.1077 34.651 34.2787C34.2747 33.8634 34.0609 33.3261 34.0491 32.7657V30.2115C35.309 30.3934 36.482 30.9598 37.408 31.8334C38.334 32.7069 38.9677 33.845 39.2226 35.0922L36.1966 34.2787ZM42.997 46.7083C42.997 47.2585 42.8339 47.7963 42.5282 48.2538C42.2225 48.7113 41.788 49.0679 41.2796 49.2785C40.7713 49.489 40.2119 49.5441 39.6723 49.4368C39.1326 49.3294 38.6369 49.0645 38.2479 48.6754C37.8588 48.2863 37.5938 47.7906 37.4865 47.251C37.3791 46.7113 37.4342 46.152 37.6448 45.6436C37.8554 45.1353 38.2119 44.7008 38.6694 44.3951C39.1269 44.0894 39.6648 43.9262 40.215 43.9262C40.5825 43.9219 40.9472 43.9901 41.2884 44.1268C41.6295 44.2634 41.9404 44.466 42.2033 44.7228C42.4662 44.9796 42.6759 45.2857 42.8204 45.6236C42.965 45.9615 43.0416 46.3245 43.0458 46.692L42.997 46.7083Z" fill="#4D84BD"/>
</svg>
