<svg width="44" height="60" viewBox="0 0 44 60" fill="none" xmlns="http://www.w3.org/2000/svg">
<path d="M2.51702 46.9416H14.517V50.947H5.51294C2.85894 50.947 1.50754 51.9565 1.50754 53.9429V59.0067C1.50754 59.1371 1.53325 59.2662 1.58316 59.3867C1.63308 59.5072 1.70624 59.6168 1.79847 59.709C1.89069 59.8012 2.00015 59.8744 2.12065 59.9243C2.24115 59.9742 2.37034 59.9999 2.50078 59.9999H40.5034C40.6352 60.002 40.7661 59.978 40.8885 59.929C41.0109 59.8801 41.1223 59.8072 41.2163 59.7148C41.3102 59.6223 41.3849 59.5121 41.4358 59.3906C41.4867 59.269 41.5129 59.1385 41.5129 59.0067V54.008C41.5129 52.0216 40.1615 51.0121 37.5075 51.0121H34.0394C37.2698 49.0104 39.8628 46.1296 41.5147 42.707C43.1666 39.2845 43.8089 35.4621 43.3663 31.6876C42.9238 27.9132 41.4147 24.343 39.016 21.3954C36.6172 18.4478 33.4281 16.2449 29.8223 15.0447C29.2557 13.8456 28.3623 12.8306 27.2448 12.1163C26.1273 11.402 24.831 11.0174 23.5048 11.0067C22.5721 11.0053 21.6487 11.1921 20.7898 11.5558C19.931 11.9195 19.1542 12.4527 18.5062 13.1234V11.0067C18.5065 10.3873 18.3139 9.78314 17.955 9.27829C17.596 8.77344 17.0886 8.39304 16.5034 8.18994V5.81271C17.0873 5.60754 17.5933 5.22661 17.9519 4.72223C18.3105 4.21784 18.5042 3.61479 18.5062 2.99592V0.99319C18.5062 0.86276 18.4805 0.733619 18.4306 0.613117C18.3807 0.492614 18.3075 0.38311 18.2153 0.290881C18.123 0.198653 18.0135 0.125491 17.893 0.0755775C17.7725 0.0256638 17.6434 0 17.513 0H5.51294C5.24953 0 4.9969 0.104618 4.81063 0.290881C4.62437 0.477145 4.51975 0.729774 4.51975 0.99319V2.99592C4.52175 3.61479 4.71538 4.21784 5.07399 4.72223C5.4326 5.22661 5.9386 5.60754 6.52248 5.81271V8.18994C5.94121 8.39915 5.43782 8.78111 5.07985 9.2846C4.72188 9.78809 4.52643 10.389 4.51975 11.0067V27.0447C4.50275 27.1471 4.50275 27.2517 4.51975 27.3541L6.40849 31.1479V31.9131C6.40849 33.2388 6.93511 34.5102 7.87254 35.4477C8.80997 36.3851 10.0814 36.9117 11.4071 36.9117C12.7329 36.9117 14.0043 36.3851 14.9417 35.4477C15.8791 34.5102 16.4057 33.2388 16.4057 31.9131V31.1479L18.3108 27.3541V27.2564C18.3278 27.154 18.3278 27.0494 18.3108 26.947V22.8113C19.4574 23.996 20.9884 24.7335 22.6295 24.8916C24.2705 25.0498 25.9143 24.6182 27.266 23.6743C29.6556 24.6039 31.6456 26.3387 32.8926 28.579C34.1396 30.8194 34.5654 33.4248 34.0963 35.9456C33.6273 38.4663 32.2929 40.7442 30.3236 42.3861C28.3542 44.028 25.8734 44.9309 23.3094 44.9388H22.3162V42.9361C22.3162 42.405 22.1052 41.8956 21.7296 41.52C21.354 41.1444 20.8447 40.9334 20.3135 40.9334H2.50078C1.96962 40.9334 1.46021 41.1444 1.08463 41.52C0.709048 41.8956 0.498047 42.405 0.498047 42.9361V44.9388C0.506533 45.4701 0.72247 45.9771 1.09973 46.3513C1.477 46.7256 1.98565 46.9374 2.51702 46.9416ZM39.5265 53.9429V57.9483H3.52651V53.9429C3.52651 53.4707 3.52653 52.9497 5.52924 52.9497H37.54C39.5265 52.9497 39.5265 53.4707 39.5265 53.9429ZM8.5903 5.94299H14.5821V7.94572H8.5903V5.94299ZM6.60387 2.01898H16.6012V3.01217C16.6012 3.1426 16.5755 3.27179 16.5255 3.39229C16.4756 3.51279 16.4025 3.62225 16.3102 3.71448C16.218 3.8067 16.1085 3.87987 15.988 3.92978C15.8675 3.97969 15.7384 4.00541 15.6079 4.00541H7.61336C7.48293 4.00541 7.35379 3.97969 7.23329 3.92978C7.11278 3.87987 7.00328 3.8067 6.91105 3.71448C6.81882 3.62225 6.74566 3.51279 6.69575 3.39229C6.64583 3.27179 6.62017 3.1426 6.62017 3.01217V2.01898H6.60387ZM14.9892 30.0244H8.23209L7.2389 28.0217H15.9987L14.9892 30.0244ZM11.4885 34.9416C10.694 34.9416 9.93192 34.626 9.37008 34.0641C8.80823 33.5023 8.49261 32.7402 8.49261 31.9457H14.4844C14.4844 32.3391 14.407 32.7287 14.2564 33.0921C14.1059 33.4556 13.8852 33.7859 13.607 34.0641C13.3288 34.3423 12.9985 34.563 12.635 34.7135C12.2715 34.8641 11.882 34.9416 11.4885 34.9416ZM16.4872 25.9375H6.60387V10.9416C6.60387 10.6782 6.70849 10.4256 6.89475 10.2393C7.08102 10.0531 7.33364 9.9484 7.59706 9.9484H15.5916C15.855 9.9484 16.1077 10.0531 16.2939 10.2393C16.4802 10.4256 16.5849 10.6782 16.5849 10.9416V25.9375H16.4872ZM18.4899 17.943C18.486 16.7723 18.8932 15.6375 19.6403 14.7363C20.3875 13.835 21.4272 13.2246 22.5783 13.0114C23.7294 12.7983 24.9188 12.9959 25.9391 13.5698C26.9594 14.1437 27.7459 15.0575 28.1615 16.1519C28.3833 16.7283 28.4938 17.3417 28.4872 17.9593C28.488 18.6974 28.3249 19.4265 28.0095 20.0939C27.6941 20.7612 27.2344 21.3502 26.6636 21.8181C25.7528 22.5815 24.5951 22.9867 23.4071 22.9579C22.1011 22.9198 20.8612 22.3752 19.9495 21.4393C19.0379 20.5034 18.5261 19.2495 18.5225 17.943H18.4899ZM36.498 33.9483C36.4926 31.4886 35.7909 29.0807 34.4741 27.0032C33.1573 24.9257 31.2792 23.2635 29.057 22.2089C29.2461 21.9567 29.4149 21.69 29.5618 21.4111C29.6094 21.3403 29.6477 21.2637 29.6758 21.1831C29.8377 20.8859 29.9739 20.5755 30.0828 20.2551C30.1836 19.9468 30.2598 19.631 30.3107 19.3107V19.0501C30.3621 18.7106 30.3893 18.3678 30.3921 18.0244C30.3921 17.829 30.3921 17.6173 30.3921 17.4219C33.6984 18.8544 36.499 21.2457 38.4317 24.2868C40.3644 27.3279 41.3403 30.8788 41.2334 34.4805C41.1264 38.0821 39.9414 41.5689 37.8317 44.4899C35.7219 47.4109 32.7844 49.6319 29.3989 50.8656H16.5034V46.8602H23.5048C26.9398 46.8603 30.2358 45.5036 32.6753 43.0854C35.1149 40.6672 36.5005 37.3832 36.5306 33.9483H36.498ZM2.48448 42.9361H20.4926V44.9388H2.51702L2.48448 42.9361Z" fill="#4D84BD"/>
</svg>
