<svg width="47" height="60" viewBox="0 0 47 60" fill="none" xmlns="http://www.w3.org/2000/svg">
<path d="M5.92199 21.7803C5.6902 21.7803 5.46363 21.849 5.2709 21.9778C5.07817 22.1066 4.92793 22.2896 4.83923 22.5037C4.75052 22.7179 4.72729 22.9535 4.77251 23.1808C4.81774 23.4081 4.92936 23.617 5.09326 23.7809C5.25717 23.9448 5.466 24.0565 5.69334 24.1017C5.92068 24.1469 6.15635 24.1237 6.37051 24.035C6.58466 23.9463 6.76768 23.7961 6.89646 23.6033C7.02524 23.4106 7.09397 23.184 7.09397 22.9522C7.09397 22.6414 6.9705 22.3433 6.75072 22.1235C6.53093 21.9037 6.23282 21.7803 5.92199 21.7803Z" fill="#4D84BD"/>
<path d="M34.0527 24.1244H28.1928V18.2645C28.1928 17.9536 28.0694 17.6556 27.8496 17.4358C27.6298 17.216 27.3317 17.0925 27.0208 17.0925H19.989C19.6782 17.0925 19.3801 17.216 19.1603 17.4358C18.9405 17.6556 18.817 17.9536 18.817 18.2645V24.1244H12.9571C12.8032 24.1244 12.6508 24.1547 12.5086 24.2136C12.3664 24.2725 12.2372 24.3588 12.1284 24.4677C12.0196 24.5765 11.9333 24.7057 11.8744 24.8479C11.8155 24.9901 11.7852 25.1424 11.7852 25.2963V32.3282C11.7852 32.4821 11.8155 32.6345 11.8744 32.7767C11.9333 32.9189 12.0196 33.0481 12.1284 33.1569C12.2372 33.2657 12.3664 33.352 12.5086 33.4109C12.6508 33.4698 12.8032 33.5001 12.9571 33.5001H18.817V39.3601C18.817 39.6709 18.9405 39.969 19.1603 40.1888C19.3801 40.4085 19.6782 40.532 19.989 40.532H27.0208C27.3317 40.532 27.6298 40.4085 27.8496 40.1888C28.0694 39.969 28.1928 39.6709 28.1928 39.3601V33.5001H34.0527C34.2066 33.5001 34.359 33.4698 34.5012 33.4109C34.6434 33.352 34.7726 33.2657 34.8814 33.1569C34.9903 33.0481 35.0766 32.9189 35.1355 32.7767C35.1944 32.6345 35.2247 32.4821 35.2247 32.3282V25.2963C35.2247 25.1424 35.1944 24.9901 35.1355 24.8479C35.0766 24.7057 34.9903 24.5765 34.8814 24.4677C34.7726 24.3588 34.6434 24.2725 34.5012 24.2136C34.359 24.1547 34.2066 24.1244 34.0527 24.1244ZM32.8807 31.1562H27.0208C26.71 31.1562 26.4119 31.2797 26.1922 31.4995C25.9724 31.7193 25.8489 32.0174 25.8489 32.3282V38.2206H21.161V32.3608C21.161 32.05 21.0375 31.7518 20.8177 31.532C20.5979 31.3122 20.2998 31.1888 19.989 31.1888H14.1291V26.5008H19.989C20.2998 26.5008 20.5979 26.3774 20.8177 26.1576C21.0375 25.9378 21.161 25.6397 21.161 25.3289V19.469H25.8489V25.3289C25.8489 25.4828 25.8792 25.6352 25.9381 25.7774C25.997 25.9196 26.0833 26.0488 26.1922 26.1576C26.301 26.2664 26.4302 26.3527 26.5724 26.4116C26.7146 26.4705 26.8669 26.5008 27.0208 26.5008H32.8807V31.1562Z" fill="#4D84BD"/>
<path d="M41.5859 3.59855C39.1868 5.15524 36.3008 5.77961 33.4727 5.35376C30.6447 4.92791 28.0705 3.48135 26.2363 1.28718C25.9033 0.884543 25.4855 0.56039 25.0128 0.337888C24.5401 0.115387 24.0241 0 23.5017 0C22.9792 0 22.4632 0.115387 21.9904 0.337888C21.5177 0.56039 21.1 0.884543 20.767 1.28718C18.9327 3.48135 16.3585 4.92791 13.5305 5.35376C10.7025 5.77961 7.81647 5.15524 5.41737 3.59855C4.88594 3.27022 4.27631 3.09014 3.65178 3.07696C3.02724 3.06379 2.41057 3.21802 1.86577 3.52364C1.32096 3.82926 0.867913 4.27514 0.553607 4.81499C0.239301 5.35483 0.0751952 5.96898 0.0783677 6.59364V30.4889C0.0548629 35.7626 1.73951 40.9022 4.88024 45.1387C9.66892 51.4406 15.898 56.5032 23.0458 59.9023C23.1896 59.9655 23.3447 59.9987 23.5017 60C23.6588 60.0007 23.8143 59.9673 23.9574 59.9023C31.1039 56.501 37.3325 51.4388 42.123 45.1387C45.2638 40.9022 46.9484 35.7626 46.9249 30.4889V6.59364C46.9334 5.96691 46.7727 5.34944 46.4596 4.80644C46.1465 4.26344 45.6927 3.81499 45.1461 3.50834C44.5994 3.20168 43.9802 3.04816 43.3536 3.06405C42.727 3.07993 42.1163 3.26459 41.5859 3.59855ZM40.2511 43.6899C35.7759 49.4952 30.0513 54.2184 23.5017 57.5095C16.9431 54.2322 11.2155 49.5066 6.75214 43.6899C3.91905 39.8675 2.4 35.2304 2.42233 30.4727V6.57735C2.41879 6.37359 2.46918 6.17256 2.56842 5.99456C2.66766 5.81657 2.81219 5.6679 2.98738 5.56378C3.16256 5.45966 3.36216 5.40374 3.56594 5.40165C3.76972 5.39955 3.97044 5.45137 4.14773 5.55186C7.02778 7.41829 10.4909 8.16716 13.8848 7.65748C17.2787 7.1478 20.3691 5.41472 22.5738 2.78467C22.6866 2.64234 22.8301 2.52742 22.9936 2.44837C23.1571 2.36933 23.3363 2.32826 23.5179 2.32826C23.6995 2.32826 23.8787 2.36933 24.0422 2.44837C24.2057 2.52742 24.3492 2.64234 24.462 2.78467C26.6668 5.41472 29.7572 7.1478 33.1511 7.65748C36.5449 8.16716 40.008 7.41829 42.8881 5.55186C43.0654 5.45137 43.2661 5.39955 43.4699 5.40165C43.6736 5.40374 43.8732 5.45966 44.0484 5.56378C44.2236 5.6679 44.3681 5.81657 44.4674 5.99456C44.5666 6.17256 44.617 6.37359 44.6135 6.57735V30.4727C44.609 35.2314 43.0802 39.8635 40.2511 43.6899Z" fill="#4D84BD"/>
<path d="M41.7483 9.36081C41.5931 9.25412 41.4151 9.18527 41.2285 9.15983C41.042 9.13439 40.852 9.15302 40.674 9.21427C37.899 10.1965 34.9105 10.4126 32.0231 9.83968C29.1357 9.26678 26.456 7.9261 24.2663 5.95878C24.0459 5.75163 23.7548 5.63629 23.4524 5.63629C23.1499 5.63629 22.8589 5.75163 22.6385 5.95878C19.6319 8.65261 15.737 10.1422 11.7001 10.1421C9.83602 10.1477 7.98519 9.82822 6.23086 9.19798C6.0528 9.13673 5.86287 9.11809 5.67629 9.14354C5.48972 9.16898 5.3117 9.23783 5.15654 9.34452C5.00327 9.4529 4.8787 9.59694 4.79362 9.76427C4.70854 9.9316 4.66552 10.1171 4.66824 10.3048V18.2482C4.66824 18.5591 4.79171 18.8572 5.01149 19.077C5.23128 19.2968 5.52939 19.4203 5.84022 19.4203C6.15105 19.4203 6.44911 19.2968 6.6689 19.077C6.88868 18.8572 7.0122 18.5591 7.0122 18.2482V11.8838C9.83186 12.6174 12.784 12.6815 15.6329 12.0711C18.4817 11.4606 21.1484 10.1924 23.4199 8.36781C26.7444 11.0334 30.8784 12.4861 35.1396 12.4861C36.7218 12.4894 38.2976 12.2869 39.8276 11.8838V30.4563C39.8464 34.1972 38.6591 37.8446 36.4418 40.8577C32.9065 45.488 28.4785 49.3625 23.4199 52.2519C18.367 49.3543 13.9406 45.4811 10.3979 40.8577C8.17848 37.8457 6.99102 34.1976 7.0122 30.4563V27.6404C7.0122 27.3295 6.88868 27.0315 6.6689 26.8117C6.44911 26.5919 6.15105 26.4684 5.84022 26.4684C5.52939 26.4684 5.23128 26.5919 5.01149 26.8117C4.79171 27.0315 4.66824 27.3295 4.66824 27.6404V30.4889C4.64591 34.736 5.99931 38.8762 8.52599 42.2901C12.4048 47.3281 17.2811 51.5117 22.8501 54.5795C23.0248 54.6754 23.2207 54.7258 23.4199 54.7261C23.6141 54.7274 23.8051 54.6768 23.9733 54.5795C29.547 51.518 34.4202 47.3267 38.2812 42.2738C40.8058 38.8588 42.1589 34.7194 42.1389 30.4726V10.3048C42.1531 10.1278 42.1251 9.94995 42.0572 9.78583C41.9893 9.62172 41.8834 9.47608 41.7483 9.36081Z" fill="#4D84BD"/>
</svg>
