<svg width="51" height="60" viewBox="0 0 51 60" fill="none" xmlns="http://www.w3.org/2000/svg">
<path d="M2.68672 19.8828C2.46387 19.6697 2.16738 19.5507 1.85901 19.5507C1.55064 19.5507 1.25416 19.6697 1.0313 19.8828C0.818164 20.1057 0.699219 20.4021 0.699219 20.7105C0.699219 21.0189 0.818164 21.3154 1.0313 21.5382C1.25416 21.7514 1.55064 21.8703 1.85901 21.8703C2.16738 21.8703 2.46387 21.7514 2.68672 21.5382C2.7986 21.4313 2.88764 21.3029 2.94848 21.1606C3.00932 21.0184 3.0407 20.8652 3.0407 20.7105C3.0407 20.5558 3.00932 20.4027 2.94848 20.2604C2.88764 20.1181 2.7986 19.9897 2.68672 19.8828Z" fill="#4D84BD"/>
<path d="M46.7827 5.54862e-05H23.1138C22.828 0.0351767 22.5648 0.173657 22.374 0.389376C22.1832 0.605095 22.0778 0.88317 22.0778 1.17119C22.0778 1.4592 22.1832 1.73728 22.374 1.953C22.5648 2.16872 22.828 2.30717 23.1138 2.34229H46.7827C47.091 2.34229 47.3866 2.46476 47.6046 2.68273C47.8226 2.90071 47.945 3.19635 47.945 3.50461V56.337C47.945 56.6452 47.8226 56.9409 47.6046 57.1588C47.3866 57.3768 47.091 57.4993 46.7827 57.4993H4.19987C3.8916 57.4993 3.59597 57.3768 3.37799 57.1588C3.16001 56.9409 3.03755 56.6452 3.03755 56.337V25.0778C3.00243 24.792 2.86398 24.5288 2.64826 24.338C2.43254 24.1471 2.15446 24.0418 1.86644 24.0418C1.57843 24.0418 1.30035 24.1471 1.08463 24.338C0.868914 24.5288 0.730434 24.792 0.695312 25.0778V56.4778C0.695312 57.412 1.06639 58.3079 1.72693 58.9684C2.38746 59.6289 3.28333 60 4.21747 60H46.8004C47.7345 60 48.6304 59.6289 49.2909 58.9684C49.9514 58.3079 50.3225 57.412 50.3225 56.4778V3.6455C50.3391 3.17121 50.2597 2.69844 50.089 2.2556C49.9184 1.81277 49.66 1.40899 49.3294 1.06851C48.9988 0.728032 48.6028 0.457889 48.1651 0.274283C47.7275 0.0906775 47.2573 -0.00260846 46.7827 5.54862e-05Z" fill="#4D84BD"/>
<path d="M25.4921 4.68467C24.6962 4.68132 23.9013 4.74021 23.1146 4.86078C22.8274 4.92992 22.5766 5.10429 22.4117 5.34942C22.2468 5.59456 22.1799 5.8926 22.2242 6.18468C22.2684 6.47677 22.4206 6.74165 22.6507 6.92694C22.8808 7.11223 23.1721 7.20444 23.4669 7.18539C24.1367 7.07944 24.8139 7.02645 25.4921 7.0269C28.0056 7.03718 30.4641 7.76348 32.5797 9.12074C34.6952 10.478 36.3803 12.41 37.4373 14.6904C38.4944 16.9709 38.8797 19.5053 38.5482 21.9968C38.2167 24.4884 37.182 26.8339 35.5655 28.7586C34.6833 27.2679 33.4801 25.9925 32.0433 25.0251C31.2222 24.4505 30.3279 23.9885 29.3841 23.6515C29.9392 23.1217 30.3814 22.485 30.6841 21.7799C30.9867 21.0747 31.1436 20.3155 31.1452 19.5482V18.4035C31.1884 17.624 31.0722 16.8438 30.8036 16.1108C30.5351 15.3777 30.1198 14.7071 29.5833 14.14C29.0467 13.5729 28.4002 13.1212 27.6831 12.8125C26.9661 12.5037 26.1936 12.3445 25.4128 12.3445C24.6321 12.3445 23.8596 12.5037 23.1426 12.8125C22.4255 13.1212 21.7789 13.5729 21.2424 14.14C20.7059 14.7071 20.2906 15.3777 20.0221 16.1108C19.7535 16.8438 19.6373 17.624 19.6805 18.4035V19.4953C19.6861 20.2621 19.8448 21.02 20.1472 21.7246C20.4496 22.4293 20.8897 23.0664 21.4416 23.5987C20.5009 23.9428 19.6075 24.4044 18.7824 24.9723C17.3459 25.9474 16.1431 27.2284 15.2602 28.7234C13.7369 26.916 12.7272 24.7324 12.3368 22.4011C12.2855 22.0952 12.1147 21.8222 11.862 21.6422C11.6094 21.4622 11.2955 21.3899 10.9896 21.4413C10.6837 21.4927 10.4107 21.6635 10.2307 21.9162C10.0507 22.1688 9.97845 22.4826 10.0298 22.7885C10.5234 25.7154 11.8434 28.4401 13.8342 30.6416C15.825 32.8431 18.4037 34.4296 21.2663 35.2141C24.1289 35.9986 27.1561 35.9484 29.9911 35.0695C32.8261 34.1905 35.3508 32.5194 37.2675 30.2532C39.1843 27.9869 40.4132 25.2199 40.8095 22.2784C41.2058 19.3368 40.753 16.3432 39.5043 13.6505C38.2557 10.9578 36.2632 8.67815 33.7619 7.08027C31.2606 5.48239 28.3546 4.63287 25.3864 4.63184L25.4921 4.68467ZM22.0932 18.3859C22.0932 17.4844 22.4513 16.6199 23.0887 15.9825C23.7261 15.3451 24.5907 14.987 25.4921 14.987C26.3935 14.987 27.2581 15.3451 27.8955 15.9825C28.5329 16.6199 28.891 17.4844 28.891 18.3859V19.4953C28.891 20.3968 28.5329 21.2613 27.8955 21.8987C27.2581 22.5361 26.3935 22.8942 25.4921 22.8942C24.5907 22.8942 23.7261 22.5361 23.0887 21.8987C22.4513 21.2613 22.0932 20.3968 22.0932 19.4953V18.3859ZM25.4921 33.4607C22.438 33.4662 19.4762 32.4147 17.1094 30.4845C17.8822 28.9213 19.0767 27.6054 20.558 26.6853C22.0393 25.7652 23.7483 25.2777 25.4921 25.2777C27.2359 25.2777 28.9449 25.7652 30.4262 26.6853C31.9075 27.6054 33.102 28.9213 33.8748 30.4845C31.5073 32.4134 28.5459 33.4648 25.4921 33.4607Z" fill="#4D84BD"/>
<path d="M36.3038 46.563H19.7144C19.5486 46.5426 19.3803 46.5577 19.2207 46.6073C19.0611 46.6568 18.9139 46.7397 18.7887 46.8504C18.6636 46.9611 18.5634 47.0971 18.4947 47.2495C18.4261 47.4018 18.3906 47.567 18.3906 47.7341C18.3906 47.9012 18.4261 48.0664 18.4947 48.2188C18.5634 48.3711 18.6636 48.5072 18.7887 48.6179C18.9139 48.7286 19.0611 48.8115 19.2207 48.861C19.3803 48.9106 19.5486 48.9256 19.7144 48.9052H36.3214C36.6072 48.8701 36.8704 48.7317 37.0612 48.5159C37.2521 48.3002 37.3574 48.0222 37.3574 47.7341C37.3574 47.4461 37.2521 47.168 37.0612 46.9523C36.8704 46.7366 36.6072 46.5981 36.3214 46.563H36.3038Z" fill="#4D84BD"/>
<path d="M15.5076 40.3467C15.289 40.1246 14.9915 39.998 14.6799 39.9944C14.5253 39.9942 14.3723 40.0253 14.23 40.0858C14.0878 40.1464 13.9592 40.2351 13.8522 40.3467C13.6366 40.5681 13.5164 40.8653 13.5176 41.1744C13.5183 41.4831 13.6381 41.7796 13.8522 42.0021C14.0729 42.221 14.3691 42.3471 14.6799 42.3543C14.8345 42.3545 14.9875 42.3234 15.1298 42.2629C15.2721 42.2024 15.4006 42.1136 15.5076 42.0021C15.6195 41.8952 15.7085 41.7667 15.7694 41.6245C15.8302 41.4822 15.8616 41.3291 15.8616 41.1744C15.8616 41.0196 15.8302 40.8665 15.7694 40.7243C15.7085 40.582 15.6195 40.4535 15.5076 40.3467Z" fill="#4D84BD"/>
<path d="M15.5077 46.8976C15.2863 46.6819 14.9891 46.5618 14.68 46.5629C14.5267 46.5606 14.3745 46.589 14.2324 46.6466C14.0903 46.7042 13.9613 46.7897 13.8529 46.8981C13.7445 47.0065 13.6589 47.1356 13.6014 47.2777C13.5438 47.4197 13.5153 47.572 13.5177 47.7253C13.5165 48.0343 13.6367 48.3315 13.8523 48.553C14.073 48.7719 14.3692 48.898 14.68 48.9052C14.8346 48.9054 14.9877 48.8743 15.1299 48.8138C15.2722 48.7533 15.4007 48.6645 15.5077 48.553C15.6196 48.4461 15.7087 48.3176 15.7695 48.1754C15.8303 48.0331 15.8617 47.88 15.8617 47.7253C15.8617 47.5705 15.8303 47.4174 15.7695 47.2752C15.7087 47.1329 15.6196 47.0044 15.5077 46.8976Z" fill="#4D84BD"/>
<path d="M36.3064 40.0117H19.717C19.4041 40.0117 19.104 40.136 18.8827 40.3573C18.6614 40.5785 18.5371 40.8787 18.5371 41.1916C18.5371 41.3457 18.5677 41.4983 18.6272 41.6405C18.6867 41.7827 18.7739 41.9116 18.8837 42.0198C18.9935 42.1279 19.1238 42.2132 19.2668 42.2705C19.4099 42.3279 19.5629 42.3562 19.717 42.3539H36.324C36.6322 42.3539 36.9279 42.2315 37.1459 42.0135C37.3639 41.7955 37.4863 41.4999 37.4863 41.1916C37.4863 40.8787 37.362 40.5785 37.1407 40.3573C36.9195 40.136 36.6193 40.0117 36.3064 40.0117Z" fill="#4D84BD"/>
<path d="M14.4327 6.74522C14.3245 6.63554 14.1957 6.54845 14.0536 6.489C13.9115 6.42955 13.759 6.39893 13.605 6.39893C13.4509 6.39893 13.2984 6.42955 13.1563 6.489C13.0143 6.54845 12.8854 6.63554 12.7773 6.74522L8.97333 10.5492L7.67015 9.24595C7.45063 9.02643 7.15289 8.90312 6.84244 8.90312C6.53199 8.90312 6.23426 9.02643 6.01473 9.24595C5.79521 9.46547 5.67188 9.76321 5.67188 10.0737C5.67188 10.3841 5.79521 10.6818 6.01473 10.9014L8.14562 13.0323C8.36848 13.2454 8.66496 13.3644 8.97333 13.3644C9.2817 13.3644 9.57819 13.2454 9.80104 13.0323L14.4327 8.40064C14.5424 8.2925 14.6295 8.16365 14.6889 8.02156C14.7484 7.87947 14.779 7.72696 14.779 7.57293C14.779 7.4189 14.7484 7.26643 14.6889 7.12433C14.6295 6.98224 14.5424 6.85336 14.4327 6.74522Z" fill="#4D84BD"/>
<path d="M10.2756 0C8.37733 0 6.52167 0.562927 4.94331 1.61756C3.36494 2.67218 2.13477 4.17115 1.40833 5.92494C0.681891 7.67872 0.491824 9.60853 0.86216 11.4703C1.2325 13.3321 2.1466 15.0423 3.48889 16.3846C4.83118 17.7269 6.54134 18.641 8.40315 19.0113C10.265 19.3817 12.1948 19.1916 13.9486 18.4652C15.7024 17.7387 17.2013 16.5085 18.256 14.9302C19.3106 13.3518 19.8735 11.4962 19.8735 9.5979C19.8688 7.05381 18.8561 4.61525 17.0572 2.81631C15.2583 1.01737 12.8197 0.00465525 10.2756 0ZM10.2756 16.8359C8.84058 16.8359 7.43776 16.4104 6.24458 15.6131C5.05139 14.8159 4.12144 13.6827 3.57227 12.3569C3.02311 11.0311 2.87943 9.57222 3.15939 8.16476C3.43935 6.75731 4.13037 5.4645 5.14509 4.44978C6.15981 3.43506 7.45265 2.74401 8.8601 2.46405C10.2676 2.18409 11.7264 2.32777 13.0522 2.87693C14.378 3.4261 15.5112 4.35608 16.3085 5.54927C17.1057 6.74245 17.5312 8.14524 17.5312 9.58027C17.5266 11.5032 16.7607 13.346 15.401 14.7057C14.0413 16.0653 12.1985 16.8313 10.2756 16.8359Z" fill="#4D84BD"/>
</svg>
