<svg width="61" height="60" viewBox="0 0 61 60" fill="none" xmlns="http://www.w3.org/2000/svg">
<path d="M43.625 51.9206L18.7318 39.474C18.5889 39.4025 18.43 39.3688 18.2704 39.376C18.1108 39.3832 17.9556 39.431 17.8197 39.515C17.6837 39.599 17.5715 39.7164 17.4937 39.856C17.4159 39.9955 17.375 40.1527 17.375 40.3125V44.0625C17.375 44.8084 17.0787 45.5238 16.5512 46.0512C16.0238 46.5787 15.3084 46.875 14.5625 46.875C13.8166 46.875 13.1012 46.5787 12.5738 46.0512C12.0463 45.5238 11.75 44.8084 11.75 44.0625V27.1875H9.875V44.0625C9.87645 45.2893 10.3583 46.4669 11.2172 47.3428C12.0762 48.2188 13.244 48.7236 14.4706 48.7491L43.625 54.2155V56.25H8V24.375H6.125V57.1875C6.125 57.4361 6.22377 57.6746 6.39959 57.8504C6.5754 58.0262 6.81386 58.125 7.0625 58.125H44.5625C44.8111 58.125 45.0496 58.0262 45.2254 57.8504C45.4012 57.6746 45.5 57.4361 45.5 57.1875V4.6875C45.5 4.43886 45.4012 4.2004 45.2254 4.02459C45.0496 3.84877 44.8111 3.75 44.5625 3.75H23V5.625H43.625V51.9206ZM17.7857 47.463C18.2485 47.0258 18.617 46.4986 18.8688 45.9139C19.1206 45.3291 19.2503 44.6991 19.25 44.0625V41.8294L38.1561 51.2824L17.7857 47.463Z" fill="#4D84BD"/>
<path d="M11.2301 25.155C11.3841 25.2577 11.565 25.3124 11.7501 25.3124C11.9352 25.3124 12.1161 25.2577 12.2701 25.155C14.9965 23.3417 17.2318 20.8819 18.7768 17.995C20.3218 15.1081 21.1285 11.8838 21.125 8.60942V5.625C21.125 5.42825 21.0631 5.23649 20.948 5.07687C20.833 4.91726 20.6707 4.79789 20.484 4.73567L12.0465 1.92317C11.8541 1.85894 11.646 1.85894 11.4535 1.92317L3.01603 4.73567C2.82937 4.79789 2.66702 4.91726 2.55198 5.07687C2.43693 5.23649 2.37502 5.42825 2.37501 5.625V8.60942C2.3715 11.8838 3.17823 15.1081 4.72327 17.995C6.26831 20.8819 8.50367 23.3417 11.2301 25.155ZM4.25001 6.30071L11.75 3.80075L19.25 6.30071V8.6093C19.2532 11.4679 18.5744 14.2861 17.27 16.8298C15.9656 19.3735 14.0732 21.5693 11.75 23.235C9.42691 21.5694 7.53462 19.3736 6.23023 16.8301C4.92584 14.2865 4.24698 11.4685 4.25001 8.61V6.30071Z" fill="#4D84BD"/>
<path d="M23.9375 15.9375H25.8125V17.8125C25.8125 18.0611 25.9113 18.2996 26.0871 18.4754C26.2629 18.6512 26.5014 18.75 26.75 18.75H30.5C30.7486 18.75 30.9871 18.6512 31.1629 18.4754C31.3387 18.2996 31.4375 18.0611 31.4375 17.8125V15.9375H33.3125C33.5611 15.9375 33.7996 15.8387 33.9754 15.6629C34.1512 15.4871 34.25 15.2486 34.25 15V11.25C34.25 11.0014 34.1512 10.7629 33.9754 10.5871C33.7996 10.4113 33.5611 10.3125 33.3125 10.3125H31.4375V8.4375C31.4375 8.18886 31.3387 7.9504 31.1629 7.77459C30.9871 7.59877 30.7486 7.5 30.5 7.5H26.75C26.5014 7.5 26.2629 7.59877 26.0871 7.77459C25.9113 7.9504 25.8125 8.18886 25.8125 8.4375V10.3125H23.9375C23.6889 10.3125 23.4504 10.4113 23.2746 10.5871C23.0988 10.7629 23 11.0014 23 11.25V15C23 15.2486 23.0988 15.4871 23.2746 15.6629C23.4504 15.8387 23.6889 15.9375 23.9375 15.9375ZM24.875 12.1875H26.75C26.9986 12.1875 27.2371 12.0887 27.4129 11.9129C27.5887 11.7371 27.6875 11.4986 27.6875 11.25V9.375H29.5625V11.25C29.5625 11.4986 29.6613 11.7371 29.8371 11.9129C30.0129 12.0887 30.2514 12.1875 30.5 12.1875H32.375V14.0625H30.5C30.2514 14.0625 30.0129 14.1613 29.8371 14.3371C29.6613 14.5129 29.5625 14.7514 29.5625 15V16.875H27.6875V15C27.6875 14.7514 27.5887 14.5129 27.4129 14.3371C27.2371 14.1613 26.9986 14.0625 26.75 14.0625H24.875V12.1875Z" fill="#4D84BD"/>
<path d="M17.375 24.375H20.1875V26.25H17.375V24.375Z" fill="#4D84BD"/>
<path d="M22.0625 24.375H37.0625V26.25H22.0625V24.375Z" fill="#4D84BD"/>
<path d="M17.375 29.0625H32.375V30.9375H17.375V29.0625Z" fill="#4D84BD"/>
<path d="M34.25 29.0625H37.0625V30.9375H34.25V29.0625Z" fill="#4D84BD"/>
<path d="M17.375 33.75H29.5625V35.625H17.375V33.75Z" fill="#4D84BD"/>
<path d="M31.4375 33.75H34.25V35.625H31.4375V33.75Z" fill="#4D84BD"/>
<path d="M57.6875 11.25H54.875V10.2007C54.8742 9.48468 54.5894 8.79821 54.0831 8.29191C53.5768 7.7856 52.8903 7.50081 52.1743 7.5H50.0757C49.3597 7.50081 48.6732 7.7856 48.1669 8.29191C47.6606 8.79821 47.3758 9.48468 47.375 10.2007V38.4375C47.375 38.6861 47.4738 38.9246 47.6496 39.1004C47.8254 39.2762 48.0639 39.375 48.3125 39.375V46.875C48.3125 47.0604 48.3675 47.2417 48.4705 47.3959C48.5735 47.55 48.7199 47.6702 48.8912 47.7412C49.0625 47.8121 49.251 47.8307 49.4329 47.7945C49.6148 47.7583 49.7818 47.669 49.9129 47.5379L53.6629 43.7879C53.75 43.7009 53.819 43.5975 53.8661 43.4838C53.9133 43.37 53.9375 43.2481 53.9375 43.125V39.375C54.1861 39.375 54.4246 39.2762 54.6004 39.1004C54.7762 38.9246 54.875 38.6861 54.875 38.4375V13.125H56.75V24.375H58.625V12.1875C58.625 11.9389 58.5262 11.7004 58.3504 11.5246C58.1746 11.3488 57.9361 11.25 57.6875 11.25ZM50.0757 9.375H52.1743C52.3932 9.37525 52.6031 9.46232 52.7579 9.61712C52.9127 9.77191 52.9998 9.98179 53 10.2007V11.25H49.25V10.2007C49.2502 9.98179 49.3373 9.77191 49.4921 9.61712C49.6469 9.46232 49.8568 9.37525 50.0757 9.375ZM49.25 37.5V31.875H53V37.5H49.25ZM52.0625 42.7368L50.1875 44.6118V39.375H52.0625V42.7368ZM53 30H49.25V13.125H53V30Z" fill="#4D84BD"/>
<path d="M17.375 11.25C17.375 10.1375 17.0451 9.04995 16.427 8.12492C15.8089 7.19989 14.9304 6.47892 13.9026 6.05318C12.8748 5.62744 11.7438 5.51604 10.6526 5.73309C9.56148 5.95013 8.5592 6.48586 7.77253 7.27253C6.98586 8.0592 6.45013 9.06148 6.23309 10.1526C6.01604 11.2438 6.12744 12.3748 6.55318 13.4026C6.97892 14.4304 7.69989 15.3089 8.62492 15.927C9.54995 16.5451 10.6375 16.875 11.75 16.875C13.2413 16.8733 14.6711 16.2801 15.7256 15.2256C16.7801 14.1711 17.3733 12.7413 17.375 11.25ZM8 11.25C8 10.5083 8.21994 9.7833 8.63199 9.16661C9.04405 8.54993 9.62972 8.06928 10.3149 7.78545C11.0002 7.50163 11.7542 7.42736 12.4816 7.57206C13.209 7.71675 13.8772 8.07391 14.4017 8.59835C14.9261 9.1228 15.2833 9.79099 15.4279 10.5184C15.5726 11.2458 15.4984 11.9998 15.2146 12.6851C14.9307 13.3703 14.4501 13.956 13.8334 14.368C13.2167 14.7801 12.4917 15 11.75 15C10.7558 14.9989 9.80261 14.6034 9.09959 13.9004C8.39657 13.1974 8.00112 12.2442 8 11.25Z" fill="#4D84BD"/>
</svg>
