<svg width="207" height="80" viewBox="0 0 207 80" fill="none" xmlns="http://www.w3.org/2000/svg">
<path fill-rule="evenodd" clip-rule="evenodd" d="M74.2136 10.1689C74.9103 10.2955 75.607 10.4011 76.3248 10.57C78.4461 11.1564 80.2718 12.5144 81.4436 14.3775C82.6153 16.2406 83.0486 18.4743 82.6584 20.6404C82.0023 23.7523 80.3761 26.5759 78.0137 28.7051C75.2815 31.2165 72.1764 33.289 68.8089 34.8487C63.596 37.3366 58.1872 39.3914 52.6372 40.9923C51.3916 41.3723 50.146 41.7312 48.8793 42.069C48.7078 42.0963 48.5489 42.1758 48.4242 42.2967C48.2995 42.4176 48.2151 42.5739 48.1826 42.7445C47.7392 44.6868 47.127 46.5869 46.8525 48.5503C46.5969 50.6525 46.4489 52.7665 46.4092 54.8839C46.3448 56.4097 46.6873 57.9253 47.4014 59.2752C47.9646 60.4783 48.8851 61.4786 50.0373 62.1397C51.1896 62.8009 52.5176 63.0907 53.8405 62.9698C55.5495 62.8717 57.2219 62.4338 58.7597 61.6819C58.9114 61.626 59.0397 61.5206 59.124 61.3826C59.2083 61.2447 59.2436 61.0824 59.2241 60.9219C59.2241 54.5602 59.2241 48.2266 59.2241 41.9212V41.2667H64.5654V51.0204H76.367V41.1401H81.5816V66.0521H76.2614V55.6439H69.6745V55.9817C69.7803 56.2547 69.8027 56.5528 69.7388 56.8385C69.6749 57.1241 69.5276 57.3844 69.3156 57.5862C67.7533 59.2118 66.1911 60.8374 64.6499 62.4842C64.4778 62.6675 64.3799 62.9083 64.3754 63.1598C64.3754 64.1309 64.3754 65.0809 64.3754 66.0943H60.4697C60.1963 66.102 59.9286 66.1743 59.6886 66.3054C56.5643 68.2463 53.0429 69.4586 49.386 69.8522L47.697 70H46.8525L46.1136 69.8945C43.8019 69.7592 41.6149 68.8006 39.9489 67.1921C37.9186 65.1016 36.5904 62.4302 36.1488 59.5496C35.9588 58.6207 35.8532 57.6918 35.7266 56.7417V53.3849C35.7716 53.254 35.8068 53.1199 35.8321 52.9838C36.0643 51.4426 36.2122 49.8592 36.55 48.3392C38.178 41.1363 41.2836 34.35 45.6703 28.4096C49.8944 22.4331 55.3153 17.4004 61.5886 13.6313C64.1854 12.0446 67.0455 10.9362 70.0334 10.3589C71.0257 10.19 72.018 10.1056 73.0313 10L74.2136 10.1689ZM49.7238 37.8677H49.8926L52.1516 37.1499C57.7338 35.4575 62.8835 32.5766 67.2466 28.7051C69.3949 26.9221 71.2166 24.779 72.6302 22.3715C73.4307 21.036 73.9414 19.5471 74.1291 18.0014C74.1965 17.5576 74.1634 17.1043 74.0322 16.675C73.901 16.2458 73.6751 15.8514 73.3712 15.5211C73.0672 15.1908 72.693 14.933 72.276 14.7667C71.8591 14.6003 71.4102 14.5297 70.9623 14.5601C69.8321 14.5803 68.721 14.8545 67.7111 15.3624C65.5132 16.4206 63.5137 17.8489 61.7998 19.5848C57.1716 24.1838 53.4162 29.5845 50.716 35.5243C50.3571 36.4954 50.0404 37.1288 49.7238 37.8677ZM64.5021 55.6228V57.6073L66.8455 55.6228H64.5021Z" fill="#4D84BD"/>
<path fill-rule="evenodd" clip-rule="evenodd" d="M171.233 66.0522H166.483V55.2851C166.505 54.9547 166.505 54.6232 166.483 54.2928C166.456 53.6189 166.167 52.9821 165.679 52.5172C165.19 52.0522 164.54 51.7956 163.865 51.8016C163.031 51.6923 162.182 51.7934 161.397 52.0957C160.611 52.3981 159.914 52.8921 159.368 53.5328C159.168 53.7852 159.056 54.097 159.052 54.4195C159.052 58.0718 159.052 61.7242 159.052 65.3766V66.0522H154.344V41.1401H159.031V50.2816C159.474 49.8804 159.833 49.5427 160.213 49.2471C161.284 48.4306 162.534 47.8819 163.86 47.6469C165.185 47.4119 166.548 47.4972 167.834 47.8959C168.727 48.1405 169.525 48.6513 170.121 49.3603C170.717 50.0693 171.083 50.9429 171.17 51.865C171.195 52.0219 171.23 52.177 171.275 52.3294L171.233 66.0522Z" fill="#4D84BD"/>
<path fill-rule="evenodd" clip-rule="evenodd" d="M124.541 66.0524H119.875V64.2579L119.453 64.6168C118.286 65.6238 116.848 66.2632 115.319 66.4548C113.79 66.6464 112.239 66.3815 110.86 65.6935C109.746 65.1041 108.855 64.1655 108.325 63.0215C107.795 61.8775 107.655 60.5913 107.926 59.3599C108.124 58.2209 108.679 57.1741 109.509 56.3699C110.34 55.5657 111.404 55.0456 112.549 54.8842C113.664 54.6492 114.815 54.6421 115.932 54.8635C117.05 55.0848 118.111 55.5299 119.052 56.1721L119.411 56.4676C119.546 56.6105 119.724 56.7066 119.917 56.7421C119.903 55.7038 119.826 54.6673 119.685 53.6386C119.577 53.1876 119.346 52.7754 119.018 52.4474C118.69 52.1195 118.278 51.8888 117.827 51.7807C116.759 51.4482 115.626 51.3762 114.524 51.5709C113.423 51.7656 112.383 52.2212 111.494 52.8997C111.219 53.0897 110.966 53.3219 110.649 53.5541L108.833 50.3663C109.277 50.0496 109.678 49.6907 110.142 49.3951C111.638 48.4324 113.328 47.8138 115.091 47.5838C116.855 47.3538 118.647 47.5182 120.339 48.0651C121.552 48.3905 122.623 49.107 123.386 50.1033C124.15 51.0996 124.563 52.3201 124.562 53.5753C124.667 57.671 124.562 61.7667 124.562 65.8624L124.541 66.0524ZM119.748 60.6266C119.829 60.4261 119.869 60.2112 119.864 59.995C119.86 59.7789 119.812 59.5658 119.723 59.3686C119.635 59.1714 119.507 58.9942 119.348 58.8476C119.189 58.701 119.002 58.588 118.798 58.5154C117.507 57.811 115.993 57.6369 114.576 58.0299C113.985 58.1424 113.452 58.4564 113.067 58.9184C112.682 59.3805 112.469 59.9619 112.465 60.5633C112.485 61.1487 112.706 61.7094 113.09 62.1514C113.474 62.5934 113.999 62.8899 114.576 62.9912C115.81 63.3382 117.128 63.2335 118.292 62.6956C119.305 62.4212 120.086 61.83 119.748 60.6478V60.6266Z" fill="#4D84BD"/>
<path fill-rule="evenodd" clip-rule="evenodd" d="M104.637 58.5788H91.1038C91.1038 58.9166 91.2304 59.2122 91.3149 59.4655C91.7102 60.581 92.485 61.5219 93.5038 62.1239C94.5226 62.726 95.7207 62.9508 96.8884 62.759C98.4404 62.6142 99.9123 62.0033 101.111 61.0067L103.222 64.0679C102.057 65.0948 100.658 65.8197 99.1474 66.1791C96.6565 66.9016 93.9952 66.7679 91.5893 65.7991C90.0496 65.1762 88.7205 64.1255 87.759 62.7712C86.7976 61.4169 86.2439 59.8156 86.1636 58.1566C85.9629 56.7058 86.1089 55.2281 86.5896 53.8446C87.0703 52.4611 87.8722 51.2112 88.9293 50.1974C90.1402 48.9938 91.6666 48.1569 93.3326 47.7834C94.9986 47.4098 96.7363 47.5148 98.3452 48.0862C99.893 48.5517 101.275 49.4516 102.326 50.6791C103.378 51.9065 104.055 53.41 104.278 55.0109C104.51 56.1087 104.51 57.3332 104.637 58.5788ZM99.9285 55.3065C99.8513 54.1917 99.354 53.1478 98.537 52.3854C97.72 51.6231 96.6442 51.1991 95.5267 51.1991C94.4093 51.1991 93.3334 51.6231 92.5164 52.3854C91.6994 53.1478 91.2021 54.1917 91.1249 55.3065H99.9285Z" fill="#4D84BD"/>
<path fill-rule="evenodd" clip-rule="evenodd" d="M141.574 48.0229V43.0828H146.345V48.0019H150.04V50.7042C150.04 51.1898 150.145 51.8231 149.892 52.1187C149.639 52.4142 149.005 52.1187 148.52 52.1187H146.409C146.399 52.2874 146.399 52.4566 146.409 52.6254V60.2468C146.365 60.5676 146.41 60.8943 146.537 61.192C146.664 61.4897 146.87 61.7474 147.132 61.9379C147.393 62.1283 147.702 62.2444 148.024 62.2737C148.347 62.3031 148.671 62.2447 148.963 62.1046C149.217 62.1046 149.449 61.9357 149.765 61.8301C150.082 62.9491 150.42 64.068 150.716 65.2081C150.71 65.2879 150.683 65.3648 150.639 65.4314C150.594 65.498 150.534 65.5519 150.462 65.5881C149.831 65.9303 149.156 66.1859 148.457 66.3481C147.427 66.4959 146.382 66.4959 145.353 66.3481C144.29 66.216 143.316 65.6843 142.63 64.8611C141.944 64.0378 141.597 62.9845 141.658 61.9146C141.658 58.8745 141.658 55.8555 141.658 52.8154V52.0976H138.576V47.8752L141.574 48.0229Z" fill="#4D84BD"/>
<path fill-rule="evenodd" clip-rule="evenodd" d="M134.945 66.0522H130.279V41.1401H134.945V66.0522Z" fill="#4D84BD"/>
</svg>
