<svg width="60" height="60" viewBox="0 0 60 60" fill="none" xmlns="http://www.w3.org/2000/svg">
<path d="M19.9627 57.9724H3.054C2.78746 57.9724 2.53184 57.8666 2.34337 57.6781C2.1549 57.4896 2.04899 57.2339 2.04899 56.9674V8.99191C2.04899 8.72537 2.1549 8.46975 2.34337 8.28128C2.53184 8.09281 2.78746 7.9869 3.054 7.9869H11.0587C11.3253 7.9869 11.5809 7.88105 11.7694 7.69257C11.9579 7.5041 12.0637 7.24848 12.0637 6.98194C12.0637 6.7154 11.9579 6.45973 11.7694 6.27125C11.5809 6.08278 11.3253 5.97693 11.0587 5.97693H3.054C2.25905 5.97693 1.49665 6.29273 0.934533 6.85485C0.372418 7.41696 0.0566406 8.17931 0.0566406 8.97426V56.9498C0.0566406 57.7448 0.372418 58.5072 0.934533 59.0693C1.49665 59.6314 2.25905 59.9471 3.054 59.9471H20.0508C20.3127 59.9471 20.5638 59.8431 20.749 59.658C20.9342 59.4728 21.0382 59.2216 21.0382 58.9598C21.0382 58.6979 20.9342 58.4468 20.749 58.2616C20.5638 58.0765 20.3127 57.9724 20.0508 57.9724H19.9627Z" fill="#4D84BD"/>
<path d="M46.9569 42.9855C46.6904 42.9855 46.4347 43.0914 46.2463 43.2799C46.0578 43.4684 45.9519 43.724 45.9519 43.9905V56.985C45.9519 57.2515 45.846 57.5072 45.6576 57.6956C45.4691 57.8841 45.2134 57.99 44.9469 57.99H29.9601C29.6935 57.99 29.4379 58.0959 29.2494 58.2843C29.061 58.4728 28.9551 58.7285 28.9551 58.995C28.9551 59.2616 29.061 59.5172 29.2494 59.7057C29.4379 59.8941 29.6935 60 29.9601 60H44.9469C45.7418 60 46.5043 59.6842 47.0664 59.1221C47.6285 58.56 47.9443 57.7976 47.9443 57.0027V44.0082C47.949 43.8756 47.927 43.7434 47.8795 43.6195C47.832 43.4956 47.76 43.3825 47.6679 43.2871C47.5757 43.1916 47.4652 43.1157 47.3431 43.0639C47.2209 43.0121 47.0896 42.9855 46.9569 42.9855Z" fill="#4D84BD"/>
<path d="M44.9472 5.99457H36.9601C36.6935 5.99457 36.4379 6.10042 36.2494 6.28889C36.061 6.47737 35.9551 6.73298 35.9551 6.99953C35.9551 7.26607 36.061 7.52169 36.2494 7.71016C36.4379 7.89863 36.6935 8.00454 36.9601 8.00454H44.9648C45.2314 8.00454 45.487 8.11044 45.6754 8.29892C45.8639 8.48739 45.9698 8.74301 45.9698 9.00955V27.9987C45.9698 28.2653 46.0757 28.5209 46.2641 28.7094C46.4526 28.8978 46.7083 29.0037 46.9748 29.0037C47.2414 29.0037 47.497 28.8978 47.6854 28.7094C47.8739 28.5209 47.9798 28.2653 47.9798 27.9987V9.00955C47.9661 8.21116 47.6416 7.44956 47.0753 6.88658C46.5091 6.32361 45.7456 6.00363 44.9472 5.99457Z" fill="#4D84BD"/>
<path d="M21.9569 53.9877H5.96508V12.0069H10.9548C11.2214 12.0069 11.477 11.9011 11.6655 11.7126C11.8539 11.5241 11.9598 11.2685 11.9598 11.002C11.9598 10.7354 11.8539 10.4798 11.6655 10.2913C11.477 10.1029 11.2214 9.99695 10.9548 9.99695H4.96009C4.69355 9.99695 4.43793 10.1029 4.24946 10.2913C4.06098 10.4798 3.95508 10.7354 3.95508 11.002V54.9751C3.95508 55.2416 4.06098 55.4973 4.24946 55.6857C4.43793 55.8742 4.69355 55.9801 4.96009 55.9801H21.9569C22.2235 55.9801 22.4791 55.8742 22.6676 55.6857C22.856 55.4973 22.9619 55.2416 22.9619 54.9751C22.9619 54.8439 22.9358 54.7141 22.8851 54.5931C22.8344 54.4722 22.7601 54.3625 22.6665 54.2706C22.573 54.1787 22.462 54.1063 22.3402 54.0577C22.2184 54.0092 22.0881 53.9854 21.9569 53.9877Z" fill="#4D84BD"/>
<path d="M42.952 46.9881C42.6855 46.9881 42.4298 47.0939 42.2414 47.2824C42.0529 47.4709 41.947 47.7265 41.947 47.9931V53.9878H35.9523C35.6857 53.9878 35.4301 54.0937 35.2416 54.2822C35.0531 54.4706 34.9473 54.7262 34.9473 54.9928C34.9473 55.2593 35.0531 55.5149 35.2416 55.7034C35.4301 55.8919 35.6857 55.9978 35.9523 55.9978H43.0049C43.2714 55.9978 43.5271 55.8919 43.7155 55.7034C43.904 55.5149 44.0099 55.2593 44.0099 54.9928V47.9402C44.0031 47.8081 43.9704 47.6787 43.9135 47.5594C43.8567 47.44 43.7768 47.333 43.6785 47.2446C43.5802 47.1562 43.4655 47.088 43.3408 47.0439C43.2162 46.9999 43.084 46.981 42.952 46.9881Z" fill="#4D84BD"/>
<path d="M42.9548 9.99695H36.9601C36.6935 9.99695 36.4379 10.1029 36.2494 10.2913C36.061 10.4798 35.9551 10.7354 35.9551 11.002C35.9551 11.2685 36.061 11.5241 36.2494 11.7126C36.4379 11.9011 36.6935 12.0069 36.9601 12.0069H41.9498V32.0012C41.9498 32.2677 42.0557 32.5233 42.2442 32.7118C42.4326 32.9003 42.6883 33.0061 42.9548 33.0061C43.2214 33.0061 43.477 32.9003 43.6654 32.7118C43.8539 32.5233 43.9598 32.2677 43.9598 32.0012V11.002C43.9553 10.7368 43.8479 10.4838 43.6604 10.2963C43.4729 10.1088 43.2199 10.0015 42.9548 9.99695Z" fill="#4D84BD"/>
<path d="M33.0263 3.54396H31.0339V1.00501C31.0339 0.73847 30.9281 0.482854 30.7396 0.29438C30.5511 0.105906 30.2955 0 30.029 0H18.0395C17.7729 0 17.5173 0.105906 17.3289 0.29438C17.1404 0.482854 17.0345 0.73847 17.0345 1.00501V3.54396H15.0421C14.7756 3.54396 14.5199 3.64987 14.3315 3.83834C14.143 4.02682 14.0371 4.28243 14.0371 4.54897V13.0121C14.0371 13.2786 14.143 13.5343 14.3315 13.7227C14.5199 13.9112 14.7756 14.0171 15.0421 14.0171H33.0263C33.2929 14.0171 33.5485 13.9112 33.737 13.7227C33.9254 13.5343 34.0313 13.2786 34.0313 13.0121V4.54897C34.0313 4.28243 33.9254 4.02682 33.737 3.83834C33.5485 3.64987 33.2929 3.54396 33.0263 3.54396ZM32.0213 12.0071H16.0295V5.55399H18.0219C18.2884 5.55399 18.544 5.44808 18.7325 5.25961C18.921 5.07113 19.0268 4.81552 19.0268 4.54897V2.01002H29.0239V4.54897C29.0239 4.81552 29.1298 5.07113 29.3183 5.25961C29.5068 5.44808 29.7624 5.55399 30.029 5.55399H32.0213V12.0071Z" fill="#4D84BD"/>
<path d="M26.9626 15.9919H20.9679C20.7014 15.9919 20.4457 16.0978 20.2572 16.2863C20.0688 16.4748 19.9629 16.7304 19.9629 16.997V20.9993C19.9629 21.2658 20.0688 21.5215 20.2572 21.7099C20.4457 21.8984 20.7014 22.0043 20.9679 22.0043H26.9626C27.2292 22.0043 27.4848 21.8984 27.6733 21.7099C27.8618 21.5215 27.9676 21.2658 27.9676 20.9993V16.997C27.9631 16.7318 27.8558 16.4788 27.6683 16.2913C27.4808 16.1038 27.2278 15.9965 26.9626 15.9919ZM25.9576 19.9943H21.9553V18.002H25.9753L25.9576 19.9943Z" fill="#4D84BD"/>
<path d="M21.9548 44.9252H15.9601C15.6935 44.9252 15.4379 45.0311 15.2494 45.2196C15.061 45.408 14.9551 45.6636 14.9551 45.9302V49.9325C14.9551 50.1991 15.061 50.4547 15.2494 50.6432C15.4379 50.8316 15.6935 50.9375 15.9601 50.9375H21.9548C22.2214 50.9375 22.477 50.8316 22.6654 50.6432C22.8539 50.4547 22.9598 50.1991 22.9598 49.9325V45.9831C22.967 45.8467 22.9463 45.7103 22.8991 45.5822C22.8518 45.4541 22.7789 45.337 22.6848 45.238C22.5908 45.139 22.4775 45.0602 22.352 45.0064C22.2265 44.9526 22.0914 44.925 21.9548 44.9252ZM20.9675 48.9275H16.9651V46.9352H20.9675V48.9275Z" fill="#4D84BD"/>
<path d="M26.9626 30.9964H20.9679C20.7014 30.9964 20.4457 31.1023 20.2572 31.2907C20.0688 31.4792 19.9629 31.7349 19.9629 32.0014V36.0038C19.9629 36.2703 20.0688 36.5259 20.2572 36.7144C20.4457 36.9029 20.7014 37.0088 20.9679 37.0088H26.9626C27.2292 37.0088 27.4848 36.9029 27.6733 36.7144C27.8618 36.5259 27.9676 36.2703 27.9676 36.0038V32.0014C27.9676 31.7349 27.8618 31.4792 27.6733 31.2907C27.4848 31.1023 27.2292 30.9964 26.9626 30.9964ZM25.9576 34.9987H21.9553V33.0064H25.9753L25.9576 34.9987Z" fill="#4D84BD"/>
<path d="M36.9626 30.9964H30.9679C30.7014 30.9964 30.4457 31.1023 30.2573 31.2907C30.0688 31.4792 29.9629 31.7349 29.9629 32.0014V36.0038C29.9629 36.2703 30.0688 36.5259 30.2573 36.7144C30.4457 36.9029 30.7014 37.0088 30.9679 37.0088H36.9626C37.2292 37.0088 37.4848 36.9029 37.6733 36.7144C37.8618 36.5259 37.9676 36.2703 37.9676 36.0038V32.0014C37.9631 31.7363 37.8558 31.4833 37.6683 31.2958C37.4808 31.1083 37.2278 31.0009 36.9626 30.9964ZM35.9576 34.9987H31.9553V33.0064H35.9576V34.9987Z" fill="#4D84BD"/>
<path d="M16.9587 30.9964H10.964C10.6975 30.9964 10.4418 31.1023 10.2533 31.2907C10.0649 31.4792 9.95898 31.7349 9.95898 32.0014V36.0038C9.95898 36.2703 10.0649 36.5259 10.2533 36.7144C10.4418 36.9029 10.6975 37.0088 10.964 37.0088H16.9587C17.2253 37.0088 17.4809 36.9029 17.6694 36.7144C17.8578 36.5259 17.9637 36.2703 17.9637 36.0038V32.0014C17.9637 31.7349 17.8578 31.4792 17.6694 31.2907C17.4809 31.1023 17.2253 30.9964 16.9587 30.9964ZM15.9537 34.9987H11.9514V33.0064H15.9537V34.9987Z" fill="#4D84BD"/>
<path d="M33.9621 25.9892H24.97V24.9841C24.97 24.7176 24.8641 24.462 24.6756 24.2735C24.4872 24.085 24.2315 23.9791 23.965 23.9791C23.6985 23.9791 23.4428 24.085 23.2544 24.2735C23.0659 24.462 22.96 24.7176 22.96 24.9841V25.9892H13.9679C13.7014 25.9892 13.4457 26.095 13.2572 26.2835C13.0688 26.472 12.9629 26.7276 12.9629 26.9941V27.9991C12.9629 28.1311 12.9889 28.2618 13.0394 28.3837C13.0899 28.5057 13.1639 28.6164 13.2572 28.7098C13.3506 28.8031 13.4614 28.8771 13.5833 28.9276C13.7052 28.9781 13.8359 29.0041 13.9679 29.0041C14.0999 29.0041 14.2306 28.9781 14.3525 28.9276C14.4744 28.8771 14.5852 28.8031 14.6785 28.7098C14.7719 28.6164 14.8459 28.5057 14.8964 28.3837C14.9469 28.2618 14.9729 28.1311 14.9729 27.9991H22.9776C22.9776 28.2657 23.0835 28.5213 23.272 28.7098C23.4605 28.8982 23.7161 29.0041 23.9826 29.0041C24.2492 29.0041 24.5048 28.8982 24.6933 28.7098C24.8818 28.5213 24.9876 28.2657 24.9876 27.9991H33.0276C33.0276 28.2657 33.1335 28.5213 33.322 28.7098C33.5105 28.8982 33.7661 29.0041 34.0326 29.0041C34.1653 29.0065 34.297 28.9822 34.42 28.9325C34.543 28.8829 34.6548 28.8089 34.7486 28.7151C34.8424 28.6213 34.9163 28.5095 34.966 28.3865C35.0157 28.2635 35.04 28.1318 35.0376 27.9991V26.9941C35.0157 26.7227 34.8933 26.4694 34.6944 26.2835C34.4954 26.0976 34.2343 25.9927 33.9621 25.9892Z" fill="#4D84BD"/>
<path d="M33.9608 38.9832C33.6942 38.9832 33.4386 39.089 33.2501 39.2775C33.0616 39.466 32.9558 39.7216 32.9558 39.9882H18.921C18.6545 39.9882 18.3989 40.094 18.2104 40.2825C18.0219 40.471 17.916 40.7266 17.916 40.9931V41.9981C17.916 42.2647 18.0219 42.5203 18.2104 42.7088C18.3989 42.8972 18.6545 43.0031 18.921 43.0031C19.1876 43.0031 19.4432 42.8972 19.6317 42.7088C19.8201 42.5203 19.926 42.2647 19.926 41.9981H33.9255C34.192 41.9981 34.4477 41.8923 34.6361 41.7038C34.8246 41.5153 34.9305 41.2597 34.9305 40.9931V39.9882C34.9264 39.7289 34.8239 39.4809 34.6439 39.2943C34.4639 39.1077 34.2197 38.9965 33.9608 38.9832Z" fill="#4D84BD"/>
<path d="M52.6562 33.2885L49.6588 30.2911C49.4707 30.1059 49.2174 30.0021 48.9535 30.0021C48.6896 30.0021 48.4363 30.1059 48.2483 30.2911L29.2591 49.2803L23.2643 58.2724C23.1216 58.4959 23.0712 58.766 23.1239 59.0259C23.1765 59.2857 23.328 59.515 23.5464 59.6653C23.7102 59.7767 23.9037 59.8363 24.1018 59.8363C24.2999 59.8363 24.4934 59.7767 24.6572 59.6653L33.6493 53.6706H33.7375L52.7267 34.6814C52.8895 34.4817 52.9724 34.2287 52.9594 33.9713C52.9464 33.714 52.8383 33.4707 52.6562 33.2885ZM27.5664 55.3808L30.123 51.5548L31.3925 52.8243L27.5664 55.3808ZM32.9617 51.5724L31.3748 49.9856L49.0064 32.354L50.5933 33.9408L32.9617 51.5724Z" fill="#4D84BD"/>
<path d="M54.6629 31.2782L51.6656 28.2808C51.4776 28.0956 51.2242 27.9918 50.9603 27.9918C50.6964 27.9918 50.4431 28.0956 50.2551 28.2808C50.0751 28.468 49.9746 28.7176 49.9746 28.9772C49.9746 29.2369 50.0751 29.4865 50.2551 29.6737L53.2524 32.6711C53.3441 32.7655 53.4537 32.8407 53.5748 32.8922C53.6959 32.9436 53.8261 32.9704 53.9577 32.9708C54.2242 32.9708 54.4799 32.8649 54.6683 32.6764C54.8568 32.488 54.9627 32.2324 54.9627 31.9658C54.9414 31.7098 54.836 31.4681 54.6629 31.2782Z" fill="#4D84BD"/>
<path d="M59.6533 26.2888L56.6559 23.2914C56.4679 23.1062 56.2145 23.0024 55.9506 23.0024C55.6867 23.0024 55.4334 23.1062 55.2454 23.2914L52.248 26.2888C52.0628 26.4768 51.959 26.7301 51.959 26.994C51.959 27.2579 52.0628 27.5113 52.248 27.6993L55.2454 30.6967C55.4334 30.8819 55.6867 30.9857 55.9506 30.9857C56.2145 30.9857 56.4679 30.8819 56.6559 30.6967L59.6533 27.6993C59.8385 27.5113 59.9423 27.2579 59.9423 26.994C59.9423 26.7301 59.8385 26.4768 59.6533 26.2888ZM55.9506 28.5809L54.3638 26.994L55.9506 25.4072L57.5375 26.994L55.9506 28.5809Z" fill="#4D84BD"/>
</svg>
