<svg width="48" height="60" viewBox="0 0 48 60" fill="none" xmlns="http://www.w3.org/2000/svg">
<path d="M24.0297 7.00796H16.0134C15.7633 7.00796 15.5234 7.10734 15.3466 7.2842C15.1697 7.46107 15.0703 7.70095 15.0703 7.95107C15.0703 8.2012 15.1697 8.44108 15.3466 8.61795C15.5234 8.79481 15.7633 8.89414 16.0134 8.89414H24.0297C24.2798 8.89414 24.5197 8.79481 24.6965 8.61795C24.8734 8.44108 24.9727 8.2012 24.9727 7.95107C24.9749 7.82662 24.9521 7.70301 24.9055 7.58759C24.8588 7.47218 24.7895 7.36731 24.7015 7.27929C24.6134 7.19127 24.5086 7.12191 24.3932 7.07529C24.2777 7.02868 24.1541 7.00575 24.0297 7.00796Z" fill="#4D84BD"/>
<path d="M17.0059 15.0081H15.9978C15.8739 15.0081 15.7513 15.0325 15.6369 15.0799C15.5224 15.1273 15.4185 15.1967 15.3309 15.2843C15.2433 15.3719 15.1738 15.4759 15.1264 15.5903C15.079 15.7047 15.0547 15.8274 15.0547 15.9512C15.0547 16.0751 15.079 16.1977 15.1264 16.3121C15.1738 16.4265 15.2433 16.5305 15.3309 16.6181C15.4185 16.7056 15.5224 16.7751 15.6369 16.8225C15.7513 16.8699 15.8739 16.8943 15.9978 16.8943H17.0059C17.1297 16.8943 17.2524 16.8699 17.3668 16.8225C17.4812 16.7751 17.5852 16.7056 17.6727 16.6181C17.7603 16.5305 17.8298 16.4265 17.8772 16.3121C17.9246 16.1977 17.949 16.0751 17.949 15.9512C17.949 15.8274 17.9246 15.7047 17.8772 15.5903C17.8298 15.4759 17.7603 15.3719 17.6727 15.2843C17.5852 15.1967 17.4812 15.1273 17.3668 15.0799C17.2524 15.0325 17.1297 15.0081 17.0059 15.0081Z" fill="#4D84BD"/>
<path d="M34.0102 22.0163H5.9939C5.74378 22.0163 5.50389 22.1156 5.32703 22.2925C5.15016 22.4694 5.05078 22.7093 5.05078 22.9594C5.05078 23.2095 5.15016 23.4494 5.32703 23.6262C5.50389 23.8031 5.74378 23.9024 5.9939 23.9024H34.0102C34.2603 23.9024 34.5001 23.8031 34.677 23.6262C34.8539 23.4494 34.9532 23.2095 34.9532 22.9594C34.9532 22.7093 34.8539 22.4694 34.677 22.2925C34.5001 22.1156 34.2603 22.0163 34.0102 22.0163Z" fill="#4D84BD"/>
<path d="M15.0059 28.0162H11.9978C11.874 28.0162 11.7513 28.0406 11.6369 28.088C11.5225 28.1354 11.4185 28.2049 11.3309 28.2924C11.2434 28.38 11.1739 28.484 11.1265 28.5984C11.0791 28.7128 11.0547 28.8355 11.0547 28.9594C11.0547 29.0832 11.0791 29.2058 11.1265 29.3202C11.1739 29.4346 11.2434 29.5386 11.3309 29.6262C11.4185 29.7137 11.5225 29.7832 11.6369 29.8306C11.7513 29.878 11.874 29.9024 11.9978 29.9024H15.0059C15.1298 29.9024 15.2524 29.878 15.3668 29.8306C15.4813 29.7832 15.5852 29.7137 15.6728 29.6262C15.7603 29.5386 15.8298 29.4346 15.8772 29.3202C15.9246 29.2058 15.949 29.0832 15.949 28.9594C15.949 28.8355 15.9246 28.7128 15.8772 28.5984C15.8298 28.484 15.7603 28.38 15.6728 28.2924C15.5852 28.2049 15.4813 28.1354 15.3668 28.088C15.2524 28.0406 15.1298 28.0162 15.0059 28.0162Z" fill="#4D84BD"/>
<path d="M7.99392 28.0162H5.9939C5.87005 28.0162 5.74742 28.0406 5.633 28.088C5.51858 28.1354 5.4146 28.2049 5.32703 28.2924C5.23945 28.38 5.16998 28.484 5.12258 28.5984C5.07519 28.7128 5.05078 28.8355 5.05078 28.9594C5.05078 29.0832 5.07519 29.2058 5.12258 29.3202C5.16998 29.4346 5.23945 29.5386 5.32703 29.6262C5.4146 29.7137 5.51858 29.7832 5.633 29.8306C5.74742 29.878 5.87005 29.9024 5.9939 29.9024H7.99392C8.24404 29.9024 8.48387 29.803 8.66074 29.6262C8.8376 29.4493 8.93698 29.2095 8.93698 28.9594C8.93698 28.7092 8.8376 28.4693 8.66074 28.2924C8.48387 28.1156 8.24404 28.0162 7.99392 28.0162Z" fill="#4D84BD"/>
<path d="M15.0059 32.0162H11.9978C11.7477 32.0162 11.5078 32.1155 11.3309 32.2924C11.1541 32.4692 11.0547 32.7091 11.0547 32.9592C11.0547 33.2093 11.1541 33.4492 11.3309 33.6261C11.5078 33.803 11.7477 33.9023 11.9978 33.9023H15.0059C15.2561 33.9023 15.4959 33.803 15.6728 33.6261C15.8496 33.4492 15.949 33.2093 15.949 32.9592C15.949 32.7091 15.8496 32.4692 15.6728 32.2924C15.4959 32.1155 15.2561 32.0162 15.0059 32.0162Z" fill="#4D84BD"/>
<path d="M7.99392 32.0162H5.9939C5.74378 32.0162 5.50389 32.1155 5.32703 32.2924C5.15016 32.4692 5.05078 32.7091 5.05078 32.9592C5.05078 33.2093 5.15016 33.4492 5.32703 33.6261C5.50389 33.803 5.74378 33.9023 5.9939 33.9023H7.99392C8.24404 33.9023 8.48387 33.803 8.66074 33.6261C8.8376 33.4492 8.93698 33.2093 8.93698 32.9592C8.93698 32.7091 8.8376 32.4692 8.66074 32.2924C8.48387 32.1155 8.24404 32.0162 7.99392 32.0162Z" fill="#4D84BD"/>
<path d="M15.0059 36.0161H11.9978C11.7477 36.0161 11.5078 36.1155 11.3309 36.2924C11.1541 36.4693 11.0547 36.7091 11.0547 36.9592C11.0547 37.2094 11.1541 37.4492 11.3309 37.6261C11.5078 37.8029 11.7477 37.9023 11.9978 37.9023H15.0059C15.2561 37.9023 15.4959 37.8029 15.6728 37.6261C15.8496 37.4492 15.949 37.2094 15.949 36.9592C15.949 36.7091 15.8496 36.4693 15.6728 36.2924C15.4959 36.1155 15.2561 36.0161 15.0059 36.0161Z" fill="#4D84BD"/>
<path d="M7.99392 36.0161H5.9939C5.74378 36.0161 5.50389 36.1155 5.32703 36.2924C5.15016 36.4693 5.05078 36.7091 5.05078 36.9592C5.05078 37.2094 5.15016 37.4492 5.32703 37.6261C5.50389 37.8029 5.74378 37.9023 5.9939 37.9023H7.99392C8.24404 37.9023 8.48387 37.8029 8.66074 37.6261C8.8376 37.4492 8.93698 37.2094 8.93698 36.9592C8.93698 36.7091 8.8376 36.4693 8.66074 36.2924C8.48387 36.1155 8.24404 36.0161 7.99392 36.0161Z" fill="#4D84BD"/>
<path d="M15.0059 40.0324H11.9978C11.7477 40.0324 11.5078 40.1318 11.3309 40.3086C11.1541 40.4855 11.0547 40.7253 11.0547 40.9755C11.0547 41.2256 11.1541 41.4655 11.3309 41.6424C11.5078 41.8192 11.7477 41.9186 11.9978 41.9186H15.0059C15.1298 41.9186 15.2524 41.8942 15.3668 41.8468C15.4813 41.7994 15.5852 41.7299 15.6728 41.6424C15.7603 41.5548 15.8298 41.4508 15.8772 41.3364C15.9246 41.222 15.949 41.0993 15.949 40.9755C15.9512 40.851 15.9283 40.7274 15.8817 40.612C15.8351 40.4966 15.7657 40.3918 15.6777 40.3038C15.5897 40.2157 15.4848 40.1463 15.3694 40.0997C15.254 40.0531 15.1304 40.0302 15.0059 40.0324Z" fill="#4D84BD"/>
<path d="M7.99392 40.0324H5.9939C5.74378 40.0324 5.50389 40.1318 5.32703 40.3086C5.15016 40.4855 5.05078 40.7253 5.05078 40.9755C5.05078 41.2256 5.15016 41.4655 5.32703 41.6424C5.50389 41.8192 5.74378 41.9186 5.9939 41.9186H7.99392C8.11776 41.9186 8.2404 41.8942 8.35482 41.8468C8.46924 41.7994 8.57316 41.7299 8.66074 41.6424C8.74831 41.5548 8.81779 41.4508 8.86518 41.3364C8.91257 41.222 8.93698 41.0993 8.93698 40.9755C8.93919 40.851 8.91631 40.7274 8.8697 40.612C8.82308 40.4966 8.75367 40.3918 8.66565 40.3038C8.57763 40.2157 8.47281 40.1463 8.3574 40.0997C8.24198 40.0531 8.11837 40.0302 7.99392 40.0324Z" fill="#4D84BD"/>
<path d="M15.0059 44.0327H11.9978C11.7477 44.0327 11.5078 44.1321 11.3309 44.3089C11.1541 44.4858 11.0547 44.7256 11.0547 44.9758C11.0547 45.2259 11.1541 45.4658 11.3309 45.6427C11.5078 45.8196 11.7477 45.9189 11.9978 45.9189H15.0059C15.2561 45.9189 15.4959 45.8196 15.6728 45.6427C15.8496 45.4658 15.949 45.2259 15.949 44.9758C15.949 44.7256 15.8496 44.4858 15.6728 44.3089C15.4959 44.1321 15.2561 44.0327 15.0059 44.0327Z" fill="#4D84BD"/>
<path d="M7.99392 44.0327H5.9939C5.74378 44.0327 5.50389 44.1321 5.32703 44.3089C5.15016 44.4858 5.05078 44.7256 5.05078 44.9758C5.05078 45.2259 5.15016 45.4658 5.32703 45.6427C5.50389 45.8196 5.74378 45.9189 5.9939 45.9189H7.99392C8.24404 45.9189 8.48387 45.8196 8.66074 45.6427C8.8376 45.4658 8.93698 45.2259 8.93698 44.9758C8.93698 44.7256 8.8376 44.4858 8.66074 44.3089C8.48387 44.1321 8.24404 44.0327 7.99392 44.0327Z" fill="#4D84BD"/>
<path d="M27.0059 15.0081H25.9978C25.8739 15.0081 25.7513 15.0325 25.6369 15.0799C25.5224 15.1273 25.4185 15.1967 25.3309 15.2843C25.2433 15.3719 25.1739 15.4759 25.1265 15.5903C25.0791 15.7047 25.0547 15.8274 25.0547 15.9512C25.0547 16.0751 25.0791 16.1977 25.1265 16.3121C25.1739 16.4265 25.2433 16.5305 25.3309 16.6181C25.4185 16.7056 25.5224 16.7751 25.6369 16.8225C25.7513 16.8699 25.8739 16.8943 25.9978 16.8943H27.0059C27.1297 16.8943 27.2524 16.8699 27.3668 16.8225C27.4812 16.7751 27.5852 16.7056 27.6727 16.6181C27.7603 16.5305 27.8298 16.4265 27.8772 16.3121C27.9246 16.1977 27.949 16.0751 27.949 15.9512C27.949 15.8274 27.9246 15.7047 27.8772 15.5903C27.8298 15.4759 27.7603 15.3719 27.6727 15.2843C27.5852 15.1967 27.4812 15.1273 27.3668 15.0799C27.2524 15.0325 27.1297 15.0081 27.0059 15.0081Z" fill="#4D84BD"/>
<path d="M32.0176 15.0081H31.0095C30.8857 15.0081 30.763 15.0325 30.6486 15.0799C30.5342 15.1273 30.4302 15.1967 30.3427 15.2843C30.2551 15.3719 30.1856 15.4759 30.1382 15.5903C30.0908 15.7047 30.0664 15.8274 30.0664 15.9512C30.0664 16.0751 30.0908 16.1977 30.1382 16.3121C30.1856 16.4265 30.2551 16.5305 30.3427 16.6181C30.4302 16.7056 30.5342 16.7751 30.6486 16.8225C30.763 16.8699 30.8857 16.8943 31.0095 16.8943H32.0176C32.1415 16.8943 32.2641 16.8699 32.3785 16.8225C32.493 16.7751 32.5969 16.7056 32.6845 16.6181C32.7721 16.5305 32.8416 16.4265 32.889 16.3121C32.9364 16.1977 32.9607 16.0751 32.9607 15.9512C32.9607 15.8274 32.9364 15.7047 32.889 15.5903C32.8416 15.4759 32.7721 15.3719 32.6845 15.2843C32.5969 15.1967 32.493 15.1273 32.3785 15.0799C32.2641 15.0325 32.1415 15.0081 32.0176 15.0081Z" fill="#4D84BD"/>
<path d="M22.0137 15.0081H21.0056C20.8818 15.0081 20.7591 15.0325 20.6447 15.0799C20.5302 15.1273 20.4263 15.1967 20.3387 15.2843C20.2512 15.3719 20.1817 15.4759 20.1343 15.5903C20.0869 15.7047 20.0625 15.8274 20.0625 15.9512C20.0625 16.0751 20.0869 16.1977 20.1343 16.3121C20.1817 16.4265 20.2512 16.5305 20.3387 16.6181C20.4263 16.7056 20.5302 16.7751 20.6447 16.8225C20.7591 16.8699 20.8818 16.8943 21.0056 16.8943H22.0137C22.1376 16.8943 22.2602 16.8699 22.3746 16.8225C22.4891 16.7751 22.593 16.7056 22.6806 16.6181C22.7682 16.5305 22.8376 16.4265 22.885 16.3121C22.9324 16.1977 22.9568 16.0751 22.9568 15.9512C22.9526 15.7024 22.8519 15.4649 22.6759 15.289C22.5 15.113 22.2626 15.0123 22.0137 15.0081Z" fill="#4D84BD"/>
<path d="M26.014 11.0082H15.9978C15.7476 11.0082 15.5077 11.1076 15.3309 11.2845C15.154 11.4613 15.0547 11.7012 15.0547 11.9513C15.0547 12.2014 15.154 12.4414 15.3309 12.6182C15.5077 12.7951 15.7476 12.8944 15.9978 12.8944H25.9977C26.1216 12.8944 26.2442 12.87 26.3586 12.8226C26.4731 12.7752 26.577 12.7058 26.6646 12.6182C26.7522 12.5306 26.8217 12.4267 26.8691 12.3122C26.9165 12.1978 26.9409 12.0751 26.9409 11.9513C26.943 11.8282 26.9206 11.706 26.875 11.5916C26.8294 11.4773 26.7615 11.3732 26.6752 11.2854C26.5889 11.1976 26.486 11.1279 26.3725 11.0803C26.259 11.0327 26.1371 11.0082 26.014 11.0082Z" fill="#4D84BD"/>
<path d="M44.0306 26.0163H39.9655V10.9431C39.9654 10.693 39.866 10.4532 39.6891 10.2765L29.6729 0.276466C29.5859 0.188149 29.4821 0.118164 29.3676 0.0706836C29.253 0.0232035 29.1302 -0.000828132 29.0062 2.17809e-05H2.98996C2.2094 2.17809e-05 1.46085 0.31012 0.908909 0.862056C0.356973 1.41399 0.046875 2.16255 0.046875 2.94311V50.9756C0.046875 51.7562 0.356973 52.5047 0.908909 53.0567C1.46085 53.6086 2.2094 53.9187 2.98996 53.9187H18.0631V56.0651C18.0631 57.1087 18.4777 58.1095 19.2156 58.8475C19.9536 59.5854 20.9545 60 21.9981 60H44.0144C45.058 60 46.0588 59.5854 46.7968 58.8475C47.5347 58.1095 47.9493 57.1087 47.9493 56.0651V30.0488C47.9623 29.5253 47.8706 29.0044 47.6797 28.5168C47.4888 28.0291 47.2025 27.5845 46.8376 27.2089C46.4726 26.8334 46.0363 26.5344 45.5543 26.3296C45.0723 26.1249 44.5543 26.0183 44.0306 26.0163ZM29.9493 3.25205L36.7461 10.0488H31.9981C31.4504 10.0488 30.9252 9.83126 30.5379 9.44399C30.1506 9.05672 29.9331 8.53145 29.9331 7.98377V3.25205H29.9493ZM18.0631 30V52.0813H2.98996C2.70965 52.0813 2.44081 51.97 2.2426 51.7718C2.04439 51.5736 1.93306 51.3048 1.93306 51.0245V2.94311C1.93306 2.6628 2.04439 2.39401 2.2426 2.1958C2.44081 1.99759 2.70965 1.88621 2.98996 1.88621H28.0631V7.95126C28.0631 8.99488 28.4777 9.99577 29.2157 10.7337C29.9536 11.4717 30.9545 11.8862 31.9981 11.8862H38.0631V26.0163H21.9818C20.9423 26.0249 19.9481 26.4427 19.2146 27.1793C18.4811 27.9158 18.0674 28.9118 18.0631 29.9513V30ZM46.0957 56.0162C46.0957 56.5639 45.8781 57.0893 45.4908 57.4765C45.1035 57.8638 44.5783 58.0813 44.0306 58.0813H22.0144C21.4667 58.0813 20.9414 57.8638 20.5541 57.4765C20.1669 57.0893 19.9493 56.5639 19.9493 56.0162V30.0488C19.9493 29.5011 20.1669 28.9759 20.5541 28.5886C20.9414 28.2014 21.4667 27.9837 22.0144 27.9837H44.0306C44.5783 27.9837 45.1035 28.2014 45.4908 28.5886C45.8781 28.9759 46.0957 29.5011 46.0957 30.0488V56.0162Z" fill="#4D84BD"/>
<path d="M42.0287 30.0488H24.0287C23.5155 30.0488 23.0234 30.2527 22.6605 30.6156C22.2976 30.9784 22.0938 31.4705 22.0938 31.9837V35.9838C22.0938 36.4969 22.2976 36.9891 22.6605 37.3519C23.0234 37.7148 23.5155 37.9187 24.0287 37.9187H42.0449C42.5581 37.9187 43.0503 37.7148 43.4132 37.3519C43.7761 36.9891 43.9799 36.4969 43.9799 35.9838V31.9837C43.9756 31.4691 43.7682 30.9769 43.4027 30.6145C43.0372 30.252 42.5434 30.0487 42.0287 30.0488ZM42.0287 35.9999H24.0287V32H42.0449L42.0287 35.9999Z" fill="#4D84BD"/>
<path d="M26.0125 41.0244H24.0287C23.5155 41.0244 23.0234 41.2283 22.6605 41.5912C22.2976 41.9541 22.0938 42.4462 22.0938 42.9594V44.9594C22.0937 45.2135 22.1438 45.4651 22.241 45.6998C22.3383 45.9346 22.4808 46.148 22.6605 46.3276C22.8402 46.5073 23.0535 46.6498 23.2883 46.747C23.523 46.8443 23.7746 46.8943 24.0287 46.8943H26.0287C26.2828 46.8943 26.5344 46.8443 26.7692 46.747C27.004 46.6498 27.2173 46.5073 27.397 46.3276C27.5766 46.148 27.7191 45.9346 27.8164 45.6998C27.9136 45.4651 27.9637 45.2135 27.9637 44.9594V42.9594C27.9637 42.7039 27.9131 42.451 27.8148 42.2152C27.7166 41.9793 27.5726 41.7652 27.3912 41.5853C27.2098 41.4055 26.9946 41.2633 26.7579 41.167C26.5213 41.0708 26.2679 41.0223 26.0125 41.0244ZM26.0125 44.9756H24.0287V43.0569H26.0287L26.0125 44.9756Z" fill="#4D84BD"/>
<path d="M42.0287 41.0244H40.0287C39.5155 41.0244 39.0234 41.2283 38.6605 41.5911C38.2976 41.954 38.0938 42.4461 38.0938 42.9593V44.9593C38.0937 45.2134 38.1438 45.465 38.241 45.6997C38.3383 45.9345 38.4808 46.1479 38.6605 46.3276C38.8402 46.5072 39.0535 46.6497 39.2883 46.747C39.523 46.8442 39.7746 46.8942 40.0287 46.8942H42.0287C42.2828 46.8942 42.5344 46.8442 42.7692 46.747C43.004 46.6497 43.2173 46.5072 43.397 46.3276C43.5766 46.1479 43.7191 45.9345 43.8164 45.6997C43.9136 45.465 43.9637 45.2134 43.9637 44.9593V42.9593C43.9594 42.4474 43.7542 41.9578 43.3922 41.5958C43.0303 41.2338 42.5406 41.0286 42.0287 41.0244ZM42.0287 44.9756H40.0287V43.0569H42.0287V44.9756Z" fill="#4D84BD"/>
<path d="M34.0131 41.0244H32.0131C31.4999 41.0244 31.0077 41.2283 30.6449 41.5911C30.282 41.954 30.0781 42.4461 30.0781 42.9593V44.9593C30.0781 45.2134 30.1282 45.465 30.2254 45.6997C30.3226 45.9345 30.4652 46.1479 30.6449 46.3276C30.8245 46.5072 31.0379 46.6497 31.2726 46.747C31.5074 46.8442 31.759 46.8942 32.0131 46.8942H34.0131C34.2672 46.8942 34.5188 46.8442 34.7536 46.747C34.9883 46.6497 35.2016 46.5072 35.3813 46.3276C35.561 46.1479 35.7035 45.9345 35.8007 45.6997C35.898 45.465 35.948 45.2134 35.948 44.9593V42.9593C35.948 42.4461 35.7442 41.954 35.3813 41.5911C35.0184 41.2283 34.5263 41.0244 34.0131 41.0244ZM34.0131 44.9756H32.0131V43.0569H34.0131V44.9756Z" fill="#4D84BD"/>
<path d="M26.0125 49.0406H24.0287C23.5155 49.0406 23.0234 49.2445 22.6605 49.6074C22.2976 49.9703 22.0938 50.4624 22.0938 50.9756V52.9755C22.0937 53.2296 22.1438 53.4813 22.241 53.7161C22.3383 53.9508 22.4808 54.1641 22.6605 54.3438C22.8402 54.5235 23.0535 54.666 23.2883 54.7632C23.523 54.8605 23.7746 54.9105 24.0287 54.9105H26.0287C26.2828 54.9105 26.5344 54.8605 26.7692 54.7632C27.004 54.666 27.2173 54.5235 27.397 54.3438C27.5766 54.1641 27.7191 53.9508 27.8164 53.7161C27.9136 53.4813 27.9637 53.2296 27.9637 52.9755V50.9756C27.9637 50.7201 27.9131 50.4672 27.8148 50.2313C27.7166 49.9955 27.5726 49.7814 27.3912 49.6015C27.2098 49.4216 26.9946 49.2795 26.7579 49.1832C26.5213 49.0869 26.2679 49.0384 26.0125 49.0406ZM26.0125 52.9755H24.0287V50.9756H26.0287L26.0125 52.9755Z" fill="#4D84BD"/>
<path d="M42.0287 49.0405H40.0287C39.5155 49.0405 39.0234 49.2444 38.6605 49.6073C38.2976 49.9702 38.0938 50.4623 38.0938 50.9755V52.9755C38.0937 53.2296 38.1438 53.4813 38.241 53.716C38.3383 53.9508 38.4808 54.1641 38.6605 54.3437C38.8402 54.5234 39.0535 54.6659 39.2883 54.7631C39.523 54.8604 39.7746 54.9104 40.0287 54.9104H42.0287C42.2828 54.9104 42.5344 54.8604 42.7692 54.7631C43.004 54.6659 43.2173 54.5234 43.397 54.3437C43.5766 54.1641 43.7191 53.9508 43.8164 53.716C43.9136 53.4813 43.9637 53.2296 43.9637 52.9755V50.9755C43.9637 50.4623 43.7598 49.9702 43.397 49.6073C43.0341 49.2444 42.5419 49.0405 42.0287 49.0405ZM42.0287 52.9755H40.0287V50.9755H42.0287V52.9755Z" fill="#4D84BD"/>
<path d="M34.0131 49.0406H32.0131C31.4999 49.0406 31.0077 49.2445 30.6449 49.6074C30.282 49.9703 30.0781 50.4624 30.0781 50.9756V52.9755C30.0781 53.2296 30.1282 53.4813 30.2254 53.7161C30.3226 53.9508 30.4652 54.1641 30.6449 54.3438C30.8245 54.5235 31.0379 54.666 31.2726 54.7632C31.5074 54.8605 31.759 54.9105 32.0131 54.9105H34.0131C34.2672 54.9105 34.5188 54.8605 34.7536 54.7632C34.9883 54.666 35.2016 54.5235 35.3813 54.3438C35.561 54.1641 35.7035 53.9508 35.8007 53.7161C35.898 53.4813 35.948 53.2296 35.948 52.9755V50.9756C35.9502 50.7209 35.9016 50.4683 35.8052 50.2325C35.7087 49.9968 35.5663 49.7826 35.3861 49.6025C35.206 49.4224 34.9918 49.28 34.7561 49.1835C34.5204 49.087 34.2678 49.0384 34.0131 49.0406ZM34.0131 52.9755H32.0131V50.9756H34.0131V52.9755Z" fill="#4D84BD"/>
</svg>
