<svg width="61" height="60" viewBox="0 0 61 60" fill="none" xmlns="http://www.w3.org/2000/svg">
<mask id="mask0_2749_6723" style="mask-type:luminance" maskUnits="userSpaceOnUse" x="0" y="0" width="61" height="60">
<path d="M60.5 0H0.5V60H60.5V0Z" fill="white"/>
</mask>
<g mask="url(#mask0_2749_6723)">
<path fill-rule="evenodd" clip-rule="evenodd" d="M15.0201 0.781683C15.0201 0.675526 15.0413 0.570439 15.0824 0.472565C15.1235 0.374691 15.1837 0.285998 15.2596 0.211696C15.3354 0.137394 15.4252 0.0789932 15.5239 0.0398697C15.6226 0.000746129 15.7281 -0.0182967 15.8343 -0.0161303H45.1423C45.3582 -0.0161303 45.5652 0.069604 45.7179 0.222279C45.8706 0.374955 45.9564 0.582065 45.9564 0.797981V20.4994C45.9564 20.7153 45.8706 20.9225 45.7179 21.0751C45.5652 21.2278 45.3582 21.3135 45.1423 21.3135H44.8817C44.6686 21.3135 44.464 21.397 44.3118 21.5462C44.1595 21.6954 44.0719 21.8983 44.0676 22.1114V24.3258C44.0676 24.5374 43.9836 24.7403 43.8339 24.8899C43.6843 25.0395 43.4814 25.1236 43.2698 25.1236H41.9835C41.7717 25.1319 41.5711 25.2208 41.4228 25.3722C41.2745 25.5235 41.1896 25.7259 41.1856 25.9377V30.0897C41.1898 30.3043 41.2769 30.5089 41.4287 30.6607C41.5805 30.8125 41.7851 30.8996 41.9998 30.9038H42.244C42.4599 30.9038 42.667 30.9895 42.8197 31.1422C42.9724 31.2949 43.0581 31.502 43.0581 31.7179V41.6826C43.0581 41.8985 43.1439 42.1056 43.2965 42.2583C43.4492 42.411 43.6563 42.4967 43.8722 42.4967H52.0134C52.228 42.5009 52.4326 42.588 52.5844 42.7398C52.7362 42.8916 52.8233 43.0962 52.8275 43.3108V50.8658C52.8255 51.0626 52.8949 51.2536 53.0229 51.4031L53.4136 51.859C53.7727 52.2518 54.0792 52.6897 54.3254 53.1616C54.7695 54.4542 54.7695 55.8581 54.3254 57.1507C54.0972 57.6116 53.8069 58.0389 53.4625 58.4208C53.1758 58.7136 52.8593 58.9755 52.5181 59.2023C52.173 59.4017 51.8138 59.5759 51.4435 59.7233C50.9526 59.8979 50.4338 59.9806 49.9129 59.9675C49.5402 59.9869 49.1667 59.9486 48.8058 59.8536L47.8288 59.3977C47.3352 59.1742 46.8921 58.8529 46.5262 58.4533C46.1459 58.0403 45.8278 57.5741 45.5819 57.0693C45.2473 56.4702 45.1105 55.7806 45.1911 55.0992C45.1119 54.4106 45.2545 53.7147 45.5982 53.1128C45.9181 52.5183 46.318 51.9705 46.7867 51.4845C46.9317 51.3366 47.0135 51.138 47.0147 50.9309V49.1887C47.0147 48.9728 46.9289 48.7658 46.7762 48.6131C46.6236 48.4604 46.4165 48.3746 46.2006 48.3746H14.9062C14.6902 48.3746 14.4832 48.4604 14.3305 48.6131C14.1778 48.7658 14.092 48.9728 14.092 49.1887V50.9146C14.0926 51.1237 14.1677 51.3258 14.3037 51.4845L14.5968 51.7776C14.947 52.1916 15.2475 52.6452 15.4923 53.1291C15.8485 53.7262 15.992 54.4263 15.8994 55.1154C15.9849 55.7952 15.8539 56.4847 15.5249 57.0856C15.2672 57.5796 14.9559 58.0436 14.5968 58.4696C14.2128 58.8628 13.7603 59.1829 13.2616 59.414L12.301 59.8698C11.9396 59.9623 11.5665 60.0007 11.1938 59.9838C10.6728 59.9996 10.1535 59.9168 9.66328 59.7396C9.28631 59.5954 8.92149 59.4211 8.57235 59.2186C8.23345 58.9826 7.91731 58.7155 7.62801 58.4208C7.28536 58.047 7 57.6245 6.7813 57.167C6.44588 56.5389 6.31499 55.8216 6.40684 55.1154C6.31331 54.4515 6.42701 53.7748 6.73245 53.1779C7.08197 52.5377 7.51448 51.9464 8.01876 51.4193C8.15133 51.2713 8.22644 51.0808 8.23044 50.8821V43.3271C8.23044 43.1112 8.31622 42.9041 8.4689 42.7514C8.62157 42.5988 8.82863 42.513 9.04455 42.513H17.1857C17.4016 42.513 17.6086 42.4273 17.7613 42.2746C17.914 42.1219 17.9998 41.9148 17.9998 41.6989V41.4872C17.9958 41.2754 17.9109 41.073 17.7626 40.9217C17.6143 40.7703 17.4137 40.6814 17.202 40.6731H16.111C14.2223 40.6731 14.1735 40.6731 13.4245 40.2661C12.9727 40.0559 12.5641 39.7632 12.2196 39.4031C11.8692 38.9748 11.5738 38.5044 11.3403 38.0028C11.2883 37.8905 11.2605 37.7685 11.2589 37.6447V19.8319C11.2554 19.6818 11.2047 19.5365 11.1142 19.4167C11.0236 19.2969 10.8977 19.2086 10.7542 19.1643C10.424 19.0468 10.103 18.9054 9.79352 18.741C9.38378 18.4645 9.00686 18.1421 8.67004 17.7803C8.15279 17.2138 7.75419 16.5494 7.49772 15.8264C7.48068 15.7295 7.48068 15.6303 7.49772 15.5334V6.70844C7.50189 6.49382 7.58902 6.28914 7.7408 6.13735C7.89258 5.98557 8.09722 5.89849 8.31183 5.89432H14.3688C14.475 5.89649 14.5805 5.87745 14.6792 5.83832C14.7779 5.7992 14.8677 5.74075 14.9435 5.66645C15.0193 5.59215 15.0796 5.50345 15.1207 5.40558C15.1618 5.30771 15.183 5.20262 15.1829 5.09646L15.0201 0.781683ZM16.8926 18.4967C16.8926 18.7127 16.9784 18.9198 17.1311 19.0724C17.2837 19.2251 17.4908 19.3109 17.7067 19.3109H43.2698C43.4857 19.3109 43.6928 19.2251 43.8455 19.0724C43.9981 18.9198 44.0839 18.7127 44.0839 18.4967V2.78441C44.0839 2.5685 43.9981 2.36139 43.8455 2.20871C43.6928 2.05604 43.4857 1.9703 43.2698 1.9703H17.7067C17.4908 1.9703 17.2837 2.05604 17.1311 2.20871C16.9784 2.36139 16.8926 2.5685 16.8926 2.78441V18.4967ZM9.19108 8.92279C9.1995 9.13302 9.289 9.33182 9.44077 9.47753C9.59255 9.62323 9.79481 9.70453 10.0052 9.70436H14.206C14.422 9.70436 14.629 9.61857 14.7817 9.4659C14.9344 9.31322 15.0201 9.10616 15.0201 8.89025V8.54828C15.0201 8.33237 14.9344 8.12531 14.7817 7.97263C14.629 7.81996 14.422 7.73417 14.206 7.73417H9.9889C9.8806 7.73415 9.77342 7.75575 9.67357 7.79768C9.57372 7.8396 9.48325 7.90102 9.40743 7.97835C9.33162 8.05568 9.27197 8.14735 9.23203 8.24801C9.19209 8.34867 9.17262 8.45631 9.17479 8.56458L9.19108 8.92279ZM9.19108 13.4167C9.12229 14.1982 9.21656 14.9855 9.4679 15.7287C9.63922 16.058 9.85873 16.3598 10.1192 16.6243C10.3747 16.8632 10.6658 17.0611 10.9821 17.2105C11.3415 17.3219 11.7135 17.3875 12.0893 17.4059C12.4714 17.397 12.8501 17.3311 13.2128 17.2105C13.5217 17.0567 13.8068 16.8592 14.0595 16.6243C14.3127 16.3778 14.5317 16.0985 14.7108 15.7938C14.9225 15.3705 14.9713 15.11 14.9876 13.4655V12.456C14.9897 12.3477 14.9703 12.2401 14.9303 12.1395C14.8904 12.0388 14.8308 11.9471 14.755 11.8698C14.6791 11.7924 14.5887 11.731 14.4888 11.6891C14.389 11.6472 14.2817 11.6256 14.1734 11.6256H9.95635C9.84806 11.6256 9.74087 11.6472 9.64102 11.6891C9.54117 11.731 9.45065 11.7924 9.37484 11.8698C9.29902 11.9471 9.23942 12.0388 9.19948 12.1395C9.15954 12.2401 9.14007 12.3477 9.14224 12.456L9.19108 13.4167ZM13.5222 19.1481C13.3774 19.1902 13.25 19.2778 13.1591 19.3981C13.0681 19.5184 13.0184 19.6648 13.0174 19.8156V37.1236C13.0162 37.2823 13.0678 37.437 13.164 37.5633C13.3857 37.9384 13.6924 38.2563 14.0595 38.4913C14.7475 38.7117 15.4745 38.7839 16.1925 38.7029H17.0717C17.2876 38.7029 17.4947 38.6172 17.6473 38.4645C17.8 38.3119 17.8858 38.1047 17.8858 37.8888V31.7179C17.8858 31.502 17.9716 31.2949 18.1242 31.1422C18.2769 30.9895 18.484 30.9038 18.6999 30.9038H18.9441C19.16 30.9038 19.3671 30.8181 19.5198 30.6654C19.6725 30.5127 19.7582 30.3056 19.7582 30.0897V25.954C19.7583 25.7409 19.6748 25.5362 19.5256 25.384C19.3764 25.2318 19.1735 25.1442 18.9604 25.1399H17.6741C17.4638 25.1358 17.2633 25.0503 17.1146 24.9016C16.9659 24.7529 16.8805 24.5523 16.8763 24.342V22.1277C16.8763 22.0215 16.8551 21.9165 16.814 21.8186C16.7729 21.7207 16.7127 21.632 16.6369 21.5577C16.5611 21.4834 16.4712 21.425 16.3725 21.3859C16.2738 21.3468 16.1683 21.3277 16.0622 21.3298H15.8017C15.5843 21.3256 15.3772 21.2363 15.225 21.081C15.0728 20.9257 14.9875 20.7169 14.9876 20.4994C14.9876 18.7735 14.9876 18.513 14.841 18.513C14.6662 18.5517 14.5004 18.6236 14.3526 18.7247C14.0876 18.8788 13.8098 19.0095 13.5222 19.1155V19.1481ZM18.8953 22.4045C18.8953 22.6204 18.9811 22.8274 19.1337 22.9801C19.2864 23.1328 19.4935 23.2186 19.7094 23.2186H34.4774C34.6933 23.2186 34.9004 23.3044 35.053 23.457C35.2057 23.6097 35.2915 23.8168 35.2915 24.0327V24.3909C35.2915 24.6068 35.2057 24.8139 35.053 24.9666C34.9004 25.1193 34.6933 25.205 34.4774 25.205H22.6402C22.4243 25.205 22.2172 25.2907 22.0646 25.4434C21.9119 25.5961 21.8261 25.8032 21.8261 26.0191V30.0897C21.8261 30.3056 21.9119 30.5127 22.0646 30.6654C22.2172 30.8181 22.4243 30.9038 22.6402 30.9038H38.3526C38.5672 30.8996 38.7718 30.8125 38.9236 30.6607C39.0754 30.5089 39.1625 30.3043 39.1667 30.0897V25.9702C39.1667 25.7543 39.0809 25.5473 38.9282 25.3946C38.7755 25.242 38.5685 25.1561 38.3526 25.1561H38.1083C37.8924 25.1561 37.6854 25.0704 37.5327 24.9177C37.38 24.765 37.2942 24.5579 37.2942 24.342V23.9838C37.2942 23.7679 37.38 23.5608 37.5327 23.4081C37.6854 23.2555 37.8924 23.1697 38.1083 23.1697H41.2833C41.4979 23.1656 41.7026 23.0784 41.8544 22.9267C42.0062 22.7749 42.0933 22.5702 42.0974 22.3556V22.1114C42.0974 21.8954 42.0117 21.6884 41.859 21.5358C41.7064 21.3831 41.4992 21.2972 41.2833 21.2972H19.7094C19.4935 21.2972 19.2864 21.3831 19.1337 21.5358C18.9811 21.6884 18.8953 21.8954 18.8953 22.1114V22.4045ZM33.419 36.9282C33.419 37.1441 33.3333 37.3512 33.1806 37.5038C33.0279 37.6565 32.8208 37.7423 32.6049 37.7423H31.8722C31.72 37.7439 31.5712 37.7873 31.442 37.8677C31.3128 37.9481 31.2082 38.0624 31.1395 38.1982C30.9051 38.7144 30.5859 39.1877 30.1951 39.5985C29.8541 39.8781 29.4827 40.1184 29.088 40.315L28.5995 40.5428C28.4909 40.5888 28.3753 40.6163 28.2576 40.6242H20.6375C20.4216 40.6242 20.2145 40.7101 20.0618 40.8627C19.9092 41.0154 19.8234 41.2224 19.8234 41.4383V45.5578C19.8275 45.7724 19.9147 45.977 20.0665 46.1288C20.2182 46.2806 20.4229 46.3677 20.6375 46.3719H40.339C40.5549 46.3719 40.762 46.2862 40.9146 46.1335C41.0673 45.9808 41.1531 45.7737 41.1531 45.5578V33.7043C41.1531 33.4884 41.0673 33.2814 40.9146 33.1287C40.762 32.976 40.5549 32.8902 40.339 32.8902H34.282C34.0661 32.8902 33.859 32.976 33.7063 33.1287C33.5537 33.2814 33.4679 33.4884 33.4679 33.7043L33.419 36.9282ZM29.5602 34.9743C29.5602 35.1903 29.6459 35.3974 29.7986 35.55C29.9513 35.7027 30.1584 35.7885 30.3743 35.7885H30.6185C30.8344 35.7885 31.0415 35.7027 31.1941 35.55C31.3468 35.3974 31.4326 35.1903 31.4326 34.9743V33.6718C31.4326 33.4559 31.3468 33.2488 31.1941 33.0961C31.0415 32.9434 30.8344 32.8577 30.6185 32.8577H30.3743C30.1584 32.8577 29.9513 32.9434 29.7986 33.0961C29.6459 33.2488 29.5602 33.4559 29.5602 33.6718V34.9743ZM19.7908 37.7911C19.795 38.0057 19.8821 38.2105 20.0339 38.3623C20.1856 38.514 20.3903 38.6011 20.6049 38.6052C27.7854 38.6052 28.0296 38.6053 28.4692 38.3611C28.6971 38.2563 28.8978 38.1002 29.0554 37.9051C29.1531 37.6609 29.1368 37.661 28.3552 37.661C28.247 37.6631 28.1394 37.6437 28.0387 37.6037C27.9381 37.5638 27.8464 37.5041 27.7691 37.4283C27.6917 37.3525 27.6303 37.262 27.5884 37.1622C27.5465 37.0623 27.5249 36.9551 27.5249 36.8468V33.5904C27.5249 33.3745 27.4391 33.1674 27.2864 33.0147C27.1337 32.862 26.9267 32.7763 26.7108 32.7763H20.6049C20.389 32.7763 20.182 32.862 20.0293 33.0147C19.8766 33.1674 19.7908 33.3745 19.7908 33.5904V37.7911ZM10.1843 49.4981C10.1843 49.714 10.2701 49.9211 10.4227 50.0738C10.5754 50.2264 10.7825 50.3122 10.9984 50.3122H11.2427C11.4586 50.3122 11.6656 50.2264 11.8183 50.0738C11.971 49.9211 12.0568 49.714 12.0568 49.4981V47.1534C12.0568 46.9375 12.1426 46.7305 12.2952 46.5778C12.4479 46.4251 12.655 46.3393 12.8709 46.3393H17.1043C17.3202 46.3393 17.5272 46.2536 17.6799 46.1009C17.8326 45.9482 17.9184 45.7411 17.9184 45.5252V45.281C17.9184 45.0651 17.8326 44.858 17.6799 44.7053C17.5272 44.5526 17.3202 44.4669 17.1043 44.4669H10.9984C10.7825 44.4669 10.5754 44.5526 10.4227 44.7053C10.2701 44.858 10.1843 45.0651 10.1843 45.281V49.4981ZM42.993 45.5252C42.9972 45.7398 43.0842 45.9445 43.236 46.0963C43.3878 46.2481 43.5925 46.3351 43.8071 46.3393H48.0405C48.2564 46.3393 48.4635 46.4251 48.6161 46.5778C48.7688 46.7305 48.8546 46.9375 48.8546 47.1534V49.6283C48.8546 49.8443 48.9403 50.0514 49.093 50.204C49.2457 50.3567 49.4528 50.4425 49.6687 50.4425H49.9129C50.1289 50.4425 50.3359 50.3567 50.4886 50.204C50.6413 50.0514 50.7271 49.8443 50.7271 49.6283V45.4112C50.7271 45.1953 50.6413 44.9883 50.4886 44.8356C50.3359 44.6829 50.1289 44.5971 49.9129 44.5971H43.8071C43.5912 44.5971 43.3841 44.6829 43.2315 44.8356C43.0788 44.9883 42.993 45.1953 42.993 45.4112V45.5252ZM9.28877 52.8848C9.00348 53.1491 8.7617 53.4569 8.57235 53.7966C8.35208 54.2056 8.25058 54.6681 8.27928 55.1317C8.2645 55.5592 8.35391 55.984 8.53981 56.3692C8.71429 56.6726 8.92775 56.9518 9.17479 57.1996C9.42773 57.4222 9.70655 57.6135 10.0052 57.7695C10.3682 57.8868 10.7472 57.9472 11.1287 57.9485C11.5618 57.9495 11.9899 57.8551 12.3824 57.6718C12.6923 57.5352 12.9739 57.3419 13.2128 57.1019C13.4127 56.8811 13.5824 56.6347 13.7175 56.3692C13.9025 56.0063 13.9974 55.6042 13.9944 55.1968C14.0119 54.7778 13.9339 54.3602 13.7664 53.9757C13.6208 53.6561 13.4287 53.3599 13.1965 53.0965C12.9584 52.8585 12.6835 52.6606 12.3824 52.5103C12.0333 52.3536 11.6575 52.2651 11.2752 52.2498C10.9011 52.2133 10.5235 52.2577 10.168 52.38C9.85279 52.5064 9.55681 52.6763 9.28877 52.8848ZM48.2196 52.722C47.9972 52.8754 47.7949 53.0559 47.6171 53.2593C47.4494 53.4987 47.3075 53.7552 47.1938 54.0246C47.0614 54.4011 46.9953 54.7977 46.9984 55.1968C46.9839 55.6016 47.0677 56.0039 47.2426 56.3692C47.3893 56.6276 47.5582 56.8728 47.7474 57.1019C47.9955 57.3382 48.2818 57.5308 48.5941 57.6718C48.9871 57.8535 49.4148 57.948 49.8478 57.9485C50.2293 57.9472 50.6083 57.8868 50.9713 57.7695C51.2746 57.6213 51.5544 57.4293 51.8017 57.1996C52.0535 56.956 52.2675 56.6761 52.4367 56.3692C52.5663 56.0484 52.6644 55.7158 52.7297 55.376C52.7652 55.0019 52.7208 54.6244 52.5995 54.2687C52.4781 53.9209 52.3082 53.5921 52.0947 53.2918C51.8629 53.0098 51.5815 52.7726 51.2643 52.5917C50.881 52.3762 50.4503 52.2588 50.0106 52.2498C49.6548 52.2145 49.2956 52.2476 48.9523 52.3475C48.6952 52.465 48.4498 52.6068 48.2196 52.7708V52.722ZM18.9116 4.62426C18.9116 4.40835 18.9974 4.20129 19.15 4.04861C19.3027 3.89594 19.5098 3.81015 19.7257 3.81015H41.2833C41.4979 3.81432 41.7026 3.90145 41.8544 4.05323C42.0062 4.20501 42.0933 4.40965 42.0974 4.62426V16.5918C42.0974 16.8077 42.0117 17.0147 41.859 17.1674C41.7064 17.32 41.4992 17.4059 41.2833 17.4059H19.7094C19.4935 17.4059 19.2864 17.32 19.1337 17.1674C18.9811 17.0147 18.8953 16.8077 18.8953 16.5918L18.9116 4.62426ZM20.784 6.87122C20.784 7.08713 20.8698 7.29424 21.0225 7.44692C21.1752 7.59959 21.3822 7.68533 21.5981 7.68533H23.8451C23.9963 7.6816 24.1455 7.72098 24.2752 7.79882C24.405 7.87666 24.5099 7.98977 24.5778 8.12498L24.936 8.85765C25.0027 8.99529 25.1068 9.11138 25.2363 9.19261C25.3659 9.27383 25.5157 9.31693 25.6687 9.31693C25.8216 9.31693 25.9715 9.27383 26.1011 9.19261C26.2307 9.11138 26.3347 8.99529 26.4014 8.85765L26.841 7.94585C26.9029 7.81519 26.9985 7.7034 27.118 7.62192C27.2374 7.54045 27.3765 7.49225 27.5207 7.4823C27.665 7.47235 27.8092 7.50103 27.9387 7.56533C28.0683 7.62963 28.1783 7.72723 28.2576 7.84816L29.8858 10.2579C29.9612 10.3696 30.0632 10.4607 30.1826 10.5232C30.3019 10.5858 30.4349 10.6177 30.5697 10.6161H39.4597C39.6743 10.6119 39.879 10.5249 40.0308 10.3731C40.1826 10.2213 40.2697 10.0167 40.2738 9.80205V6.5456C40.2697 6.33099 40.1826 6.1263 40.0308 5.97452C39.879 5.82274 39.6743 5.73566 39.4597 5.73149H21.5819C21.366 5.73149 21.1589 5.81723 21.0062 5.9699C20.8535 6.12258 20.7678 6.32969 20.7678 6.5456L20.784 6.87122ZM20.784 14.6053C20.784 14.8212 20.8698 15.0283 21.0225 15.181C21.1752 15.3336 21.3822 15.4194 21.5981 15.4194H39.4109C39.5192 15.4194 39.6264 15.3978 39.7263 15.3559C39.8261 15.314 39.9166 15.2525 39.9924 15.1752C40.0682 15.0979 40.1278 15.0063 40.1678 14.9056C40.2077 14.8049 40.2272 14.6972 40.225 14.589V13.3353C40.2167 13.1236 40.1278 12.9229 39.9764 12.7746C39.8251 12.6263 39.6228 12.5414 39.4109 12.5374H29.4299C29.3018 12.5368 29.1758 12.5056 29.0625 12.4461C28.9491 12.3866 28.8518 12.3006 28.7786 12.1955L28.4692 11.7559C28.3898 11.6391 28.2809 11.5456 28.1535 11.4847C28.026 11.4238 27.8847 11.3978 27.744 11.4094C27.6033 11.4209 27.4681 11.4698 27.3524 11.5507C27.2367 11.6316 27.1445 11.7417 27.0852 11.8699L26.4177 13.2213C26.3494 13.3547 26.2456 13.4666 26.1177 13.5447C25.9899 13.6228 25.843 13.6643 25.6931 13.6643C25.5433 13.6643 25.3964 13.6228 25.2685 13.5447C25.1407 13.4666 25.0369 13.3547 24.9686 13.2213L23.438 10.1765C23.3709 10.0395 23.2666 9.9241 23.1371 9.84349C23.0075 9.76288 22.8579 9.7203 22.7054 9.72061H21.6307C21.4148 9.72061 21.2077 9.80639 21.055 9.95907C20.9023 10.1117 20.8166 10.3188 20.8166 10.5347L20.784 14.6053ZM25.6687 27.8264C25.6729 27.6118 25.76 27.4072 25.9118 27.2554C26.0635 27.1036 26.2682 27.0165 26.4828 27.0123H26.727C26.9429 27.0123 27.15 27.0981 27.3027 27.2508C27.4554 27.4035 27.5411 27.6105 27.5411 27.8264V28.201C27.5411 28.4169 27.4554 28.6239 27.3027 28.7766C27.15 28.9293 26.9429 29.0151 26.727 29.0151H26.4828C26.2682 29.0109 26.0635 28.9238 25.9118 28.772C25.76 28.6202 25.6729 28.4156 25.6687 28.201V27.8264ZM29.5439 27.8264C29.5439 27.6105 29.6296 27.4035 29.7823 27.2508C29.935 27.0981 30.1421 27.0123 30.358 27.0123H30.6022C30.8168 27.0165 31.0215 27.1036 31.1733 27.2554C31.3251 27.4072 31.4121 27.6118 31.4163 27.8264V28.201C31.4121 28.4156 31.3251 28.6202 31.1733 28.772C31.0215 28.9238 30.8168 29.0109 30.6022 29.0151H30.358C30.1421 29.0151 29.935 28.9293 29.7823 28.7766C29.6296 28.6239 29.5439 28.4169 29.5439 28.201V27.8264ZM33.4027 27.8264C33.4069 27.6118 33.494 27.4072 33.6458 27.2554C33.7976 27.1036 34.0022 27.0165 34.2169 27.0123H34.4611C34.677 27.0123 34.8841 27.0981 35.0368 27.2508C35.1895 27.4035 35.2752 27.6105 35.2752 27.8264V28.201C35.2752 28.4169 35.1895 28.6239 35.0368 28.7766C34.8841 28.9293 34.677 29.0151 34.4611 29.0151H34.282C34.0674 29.0109 33.8627 28.9238 33.711 28.772C33.5592 28.6202 33.4721 28.4156 33.4679 28.201L33.4027 27.8264Z" fill="#4D84BD"/>
</g>
</svg>
