<svg width="64" height="60" viewBox="0 0 64 60" fill="none" xmlns="http://www.w3.org/2000/svg">
<path d="M1.76481 44.4181C2.05564 44.4181 2.33451 44.3034 2.54016 44.0991C2.7458 43.8948 2.86133 43.6178 2.86133 43.3289V17.1217H56.3515V26.9112C56.3515 27.1966 56.4656 27.4703 56.6688 27.672C56.8719 27.8738 57.1474 27.9872 57.4347 27.9872C57.7232 27.9872 58.0001 27.8742 58.2053 27.6728C58.4106 27.4714 58.5277 27.1978 58.5313 26.9112V9.00586C58.5313 7.49808 57.9282 6.05205 56.8549 4.98589C55.7815 3.91973 54.3257 3.32077 52.8078 3.32077H50.628V2.37768C50.628 2.06432 50.5657 1.75406 50.4446 1.46472C50.3234 1.17538 50.146 0.912676 49.9223 0.691717C49.6986 0.470758 49.4331 0.295905 49.1411 0.177201C48.8491 0.0584971 48.5365 -0.00171349 48.221 3.71048e-05H46.536C45.9129 0.0173345 45.3211 0.275451 44.8865 0.719485C44.452 1.16352 44.209 1.75843 44.2092 2.37768V3.32077H38.4591V2.37768C38.4591 1.74709 38.2069 1.14233 37.7579 0.696435C37.309 0.25054 36.7002 3.71048e-05 36.0653 3.71048e-05H34.3671C33.7322 3.71048e-05 33.1233 0.25054 32.6744 0.696435C32.2255 1.14233 31.9733 1.74709 31.9733 2.37768V3.32077H26.2767V2.37768C26.2767 1.74938 26.0263 1.14663 25.5803 0.701112C25.1343 0.255597 24.5289 0.00354713 23.8963 3.71048e-05H22.198C21.5632 3.71048e-05 20.9544 0.25054 20.5055 0.696435C20.0566 1.14233 19.8044 1.74709 19.8044 2.37768V3.32077H14.1076V2.37768C14.1076 1.74709 13.8555 1.14233 13.4066 0.696435C12.9577 0.25054 12.3488 3.71048e-05 11.714 3.71048e-05H10.029C9.39295 2.73544e-05 8.7827 0.250102 8.33167 0.695619C7.88064 1.14114 7.62552 1.74587 7.62199 2.37768V3.32077H6.40509C4.88713 3.32077 3.43134 3.91973 2.35798 4.98589C1.28463 6.05205 0.681641 7.49808 0.681641 9.00586V43.3289C0.681619 43.6155 0.795279 43.8906 0.998039 44.0944C1.2008 44.2983 1.47631 44.4146 1.76481 44.4181ZM11.9279 6.77433C11.9279 6.8307 11.9054 6.88475 11.8653 6.92461C11.8251 6.96446 11.7707 6.98685 11.714 6.98685H10.029C9.97099 6.98695 9.91508 6.96499 9.87281 6.92548C9.83054 6.88596 9.80509 6.83189 9.80168 6.77433V2.37768C9.80509 2.32012 9.83054 2.26604 9.87281 2.22653C9.91508 2.18701 9.97099 2.16505 10.029 2.16515H11.714C11.7707 2.16515 11.8251 2.18754 11.8653 2.2274C11.9054 2.26725 11.9279 2.32131 11.9279 2.37768V6.77433ZM36.2793 6.77433C36.2793 6.8307 36.2568 6.88475 36.2166 6.92461C36.1765 6.96446 36.1221 6.98685 36.0653 6.98685H34.3671C34.3103 6.98685 34.2559 6.96446 34.2157 6.92461C34.1756 6.88475 34.1531 6.8307 34.1531 6.77433V2.37768C34.1531 2.32131 34.1756 2.26725 34.2157 2.2274C34.2559 2.18754 34.3103 2.16515 34.3671 2.16515H36.0653C36.1221 2.16515 36.1765 2.18754 36.2166 2.2274C36.2568 2.26725 36.2793 2.32131 36.2793 2.37768V6.77433ZM48.4483 6.77433C48.4483 6.8307 48.4258 6.88475 48.3856 6.92461C48.3455 6.96446 48.2911 6.98685 48.2344 6.98685H46.5494C46.4927 6.98685 46.4382 6.96446 46.3981 6.92461C46.358 6.88475 46.3355 6.8307 46.3355 6.77433V2.37768C46.3355 2.32131 46.358 2.26725 46.3981 2.2274C46.4382 2.18754 46.4927 2.16515 46.5494 2.16515H48.221C48.2777 2.16515 48.3322 2.18754 48.3723 2.2274C48.4124 2.26725 48.4349 2.32131 48.4349 2.37768L48.4483 6.77433ZM6.40509 5.44604H7.62199V6.77433C7.62552 7.40614 7.88064 8.01087 8.33167 8.45639C8.7827 8.90191 9.39295 9.15198 10.029 9.15197H11.714C12.3488 9.15197 12.9577 8.90147 13.4066 8.45557C13.8555 8.00968 14.1076 7.40492 14.1076 6.77433V5.44604H19.8044V6.77433C19.8044 7.40492 20.0566 8.00968 20.5055 8.45557C20.9544 8.90147 21.5632 9.15197 22.198 9.15197H23.8963C24.5289 9.14846 25.1343 8.89641 25.5803 8.4509C26.0263 8.00538 26.2767 7.40263 26.2767 6.77433V5.44604H31.9733V6.77433C31.9733 7.40492 32.2255 8.00968 32.6744 8.45557C33.1233 8.90147 33.7322 9.15197 34.3671 9.15197H36.0653C36.7002 9.15197 37.309 8.90147 37.7579 8.45557C38.2069 8.00968 38.4591 7.40492 38.4591 6.77433V5.44604H44.2092V6.77433C44.2092 7.40492 44.4614 8.00968 44.9103 8.45557C45.3592 8.90147 45.968 9.15197 46.6029 9.15197H48.221C48.8558 9.15197 49.4647 8.90147 49.9136 8.45557C50.3625 8.00968 50.6147 7.40492 50.6147 6.77433V5.44604H52.8345C53.2999 5.44604 53.7607 5.53709 54.1906 5.71398C54.6206 5.89088 55.0113 6.15016 55.3403 6.47702C55.6694 6.80388 55.9304 7.19191 56.1085 7.61897C56.2865 8.04604 56.3782 8.50376 56.3782 8.96601V14.9168H2.8881V9.00586C2.88807 8.07689 3.25774 7.18557 3.91655 6.52621C4.57535 5.86684 5.46987 5.4929 6.40509 5.48588V5.44604ZM24.1103 6.77433C24.1103 6.8307 24.0878 6.88475 24.0477 6.92461C24.0075 6.96446 23.9531 6.98685 23.8963 6.98685H22.198C22.1413 6.98685 22.0869 6.96446 22.0468 6.92461C22.0066 6.88475 21.9841 6.8307 21.9841 6.77433V2.37768C21.9841 2.32131 22.0066 2.26725 22.0468 2.2274C22.0869 2.18754 22.1413 2.16515 22.198 2.16515H23.8963C23.9531 2.16515 24.0075 2.18754 24.0477 2.2274C24.0878 2.26725 24.1103 2.32131 24.1103 2.37768V6.77433Z" fill="#4D84BD"/>
<path d="M11.1791 52.4941H3.22241C3.12545 52.4907 3.0336 52.45 2.96625 52.3806C2.8989 52.3112 2.86127 52.2186 2.86133 52.1222V47.4599C2.85781 47.1733 2.74077 46.8997 2.53551 46.6983C2.33024 46.4969 2.05333 46.384 1.76481 46.384C1.47754 46.384 1.20203 46.4973 0.998896 46.6991C0.795761 46.9009 0.681641 47.1745 0.681641 47.4599V52.0691C0.681641 52.7384 0.949317 53.3803 1.42581 53.8536C1.9023 54.3269 2.54856 54.5928 3.22241 54.5928H11.1791C11.4663 54.5928 11.7418 54.4795 11.945 54.2777C12.1481 54.0759 12.2622 53.8022 12.2622 53.5169C12.2622 53.2315 12.1481 52.9579 11.945 52.7561C11.7418 52.5543 11.4663 52.441 11.1791 52.441V52.4941Z" fill="#4D84BD"/>
<path d="M11.1528 19.4196H7.98356C7.69629 19.4196 7.42078 19.533 7.21765 19.7347C7.01451 19.9365 6.90039 20.2102 6.90039 20.4955C6.90039 20.7809 7.01451 21.0546 7.21765 21.2563C7.42078 21.4581 7.69629 21.5715 7.98356 21.5715H11.1528C11.4401 21.5715 11.7156 21.4581 11.9188 21.2563C12.1219 21.0546 12.236 20.7809 12.236 20.4955C12.236 20.2102 12.1219 19.9365 11.9188 19.7347C11.7156 19.533 11.4401 19.4196 11.1528 19.4196Z" fill="#4D84BD"/>
<path d="M17.7179 21.5184H20.8872C21.1745 21.5184 21.45 21.405 21.6531 21.2032C21.8563 21.0015 21.9704 20.7278 21.9704 20.4424C21.9704 20.1571 21.8563 19.8834 21.6531 19.6816C21.45 19.4799 21.1745 19.3665 20.8872 19.3665H17.7179C17.4307 19.3665 17.1552 19.4799 16.952 19.6816C16.7489 19.8834 16.6348 20.1571 16.6348 20.4424C16.6348 20.7278 16.7489 21.0015 16.952 21.2032C17.1552 21.405 17.4307 21.5184 17.7179 21.5184Z" fill="#4D84BD"/>
<path d="M27.4679 21.5184H30.6372C30.9245 21.5184 31.2 21.405 31.4031 21.2032C31.6063 21.0015 31.7204 20.7278 31.7204 20.4424C31.7204 20.1571 31.6063 19.8834 31.4031 19.6816C31.2 19.4799 30.9245 19.3665 30.6372 19.3665H27.4679C27.1807 19.3665 26.9052 19.4799 26.702 19.6816C26.4989 19.8834 26.3848 20.1571 26.3848 20.4424C26.3848 20.7278 26.4989 21.0015 26.702 21.2032C26.9052 21.405 27.1807 21.5184 27.4679 21.5184Z" fill="#4D84BD"/>
<path d="M37.2023 21.5184H40.3716C40.6589 21.5184 40.9344 21.405 41.1375 21.2032C41.3407 21.0015 41.4548 20.7278 41.4548 20.4424C41.4548 20.1571 41.3407 19.8834 41.1375 19.6816C40.9344 19.4799 40.6589 19.3665 40.3716 19.3665H37.2023C36.915 19.3665 36.6395 19.4799 36.4364 19.6816C36.2333 19.8834 36.1191 20.1571 36.1191 20.4424C36.1191 20.7278 36.2333 21.0015 36.4364 21.2032C36.6395 21.405 36.915 21.5184 37.2023 21.5184Z" fill="#4D84BD"/>
<path d="M50.1216 19.4196H46.9523C46.665 19.4196 46.3895 19.533 46.1864 19.7347C45.9833 19.9365 45.8691 20.2102 45.8691 20.4955C45.8691 20.7809 45.9833 21.0546 46.1864 21.2563C46.3895 21.4581 46.665 21.5715 46.9523 21.5715H50.1216C50.4089 21.5715 50.6844 21.4581 50.8875 21.2563C51.0907 21.0546 51.2048 20.7809 51.2048 20.4955C51.2048 20.2102 51.0907 19.9365 50.8875 19.7347C50.6844 19.533 50.4089 19.4196 50.1216 19.4196Z" fill="#4D84BD"/>
<path d="M11.1528 23.9756H7.98356C7.69629 23.9756 7.42078 24.089 7.21765 24.2908C7.01451 24.4925 6.90039 24.7662 6.90039 25.0516C6.90039 25.3369 7.01451 25.6106 7.21765 25.8124C7.42078 26.0141 7.69629 26.1275 7.98356 26.1275H11.1528C11.4401 26.1275 11.7156 26.0141 11.9188 25.8124C12.1219 25.6106 12.236 25.3369 12.236 25.0516C12.236 24.7662 12.1219 24.4925 11.9188 24.2908C11.7156 24.089 11.4401 23.9756 11.1528 23.9756Z" fill="#4D84BD"/>
<path d="M17.7179 26.1275H20.8872C21.1745 26.1275 21.45 26.0141 21.6531 25.8124C21.8563 25.6106 21.9704 25.3369 21.9704 25.0516C21.9704 24.7662 21.8563 24.4925 21.6531 24.2908C21.45 24.089 21.1745 23.9756 20.8872 23.9756H17.7179C17.4307 23.9756 17.1552 24.089 16.952 24.2908C16.7489 24.4925 16.6348 24.7662 16.6348 25.0516C16.6348 25.3369 16.7489 25.6106 16.952 25.8124C17.1552 26.0141 17.4307 26.1275 17.7179 26.1275Z" fill="#4D84BD"/>
<path d="M27.4679 26.1275H30.6372C30.9245 26.1275 31.2 26.0141 31.4031 25.8124C31.6063 25.6106 31.7204 25.3369 31.7204 25.0516C31.7204 24.7662 31.6063 24.4925 31.4031 24.2908C31.2 24.089 30.9245 23.9756 30.6372 23.9756H27.4679C27.1807 23.9756 26.9052 24.089 26.702 24.2908C26.4989 24.4925 26.3848 24.7662 26.3848 25.0516C26.3848 25.3369 26.4989 25.6106 26.702 25.8124C26.9052 26.0141 27.1807 26.1275 27.4679 26.1275Z" fill="#4D84BD"/>
<path d="M37.2023 26.1275H40.3716C40.6589 26.1275 40.9344 26.0141 41.1375 25.8124C41.3407 25.6106 41.4548 25.3369 41.4548 25.0516C41.4548 24.7662 41.3407 24.4925 41.1375 24.2908C40.9344 24.089 40.6589 23.9756 40.3716 23.9756H37.2023C36.915 23.9756 36.6395 24.089 36.4364 24.2908C36.2333 24.4925 36.1191 24.7662 36.1191 25.0516C36.1191 25.3369 36.2333 25.6106 36.4364 25.8124C36.6395 26.0141 36.915 26.1275 37.2023 26.1275Z" fill="#4D84BD"/>
<path d="M50.1216 23.9756H46.9523C46.665 23.9756 46.3895 24.089 46.1864 24.2908C45.9833 24.4925 45.8691 24.7662 45.8691 25.0516C45.8691 25.3369 45.9833 25.6106 46.1864 25.8124C46.3895 26.0141 46.665 26.1275 46.9523 26.1275H50.1216C50.4089 26.1275 50.6844 26.0141 50.8875 25.8124C51.0907 25.6106 51.2048 25.3369 51.2048 25.0516C51.2048 24.7662 51.0907 24.4925 50.8875 24.2908C50.6844 24.089 50.4089 23.9756 50.1216 23.9756Z" fill="#4D84BD"/>
<path d="M17.6268 43.8603L22.3072 48.5226C22.6568 48.8744 23.0732 49.1537 23.5323 49.3444C23.9914 49.535 24.4841 49.6332 24.9817 49.6332C25.4793 49.6332 25.972 49.535 26.4311 49.3444C26.8902 49.1537 27.3067 48.8744 27.6562 48.5226L40.4938 35.771C41.2032 35.0664 41.6017 34.1108 41.6017 33.1144C41.6017 32.118 41.2032 31.1624 40.4938 30.4578C39.7845 29.7532 38.8225 29.3574 37.8193 29.3574C36.8162 29.3574 35.8541 29.7532 35.1448 30.4578L24.9683 40.5661L22.9358 38.5604C22.5853 38.2102 22.1685 37.9323 21.7095 37.7426C21.2505 37.553 20.7584 37.4553 20.2613 37.4553C19.7641 37.4553 19.2719 37.553 18.8129 37.7426C18.3539 37.9323 17.9372 38.2102 17.5867 38.5604C17.2309 38.9067 16.9482 39.32 16.7553 39.7762C16.5623 40.2323 16.4629 40.7222 16.4629 41.217C16.4629 41.7118 16.5623 42.2016 16.7553 42.6578C16.9482 43.1139 17.2309 43.5273 17.5867 43.8736L17.6268 43.8603ZM19.1647 40.1145C19.3124 39.9564 19.4914 39.8302 19.6904 39.744C19.8894 39.6577 20.1043 39.6132 20.3214 39.6132C20.5386 39.6132 20.7534 39.6577 20.9524 39.744C21.1514 39.8302 21.3304 39.9564 21.4781 40.1145L24.1526 42.8773C24.3594 43.0746 24.6349 43.1848 24.9216 43.1848C25.2082 43.1848 25.4838 43.0746 25.6905 42.8773L36.6426 31.9986C36.791 31.8521 36.9669 31.736 37.1605 31.6571C37.354 31.5781 37.5614 31.5378 37.7706 31.5384C37.9798 31.539 38.1869 31.5806 38.38 31.6607C38.573 31.7408 38.7484 31.8579 38.8959 32.0053C39.0434 32.1527 39.1602 32.3275 39.2397 32.5197C39.3192 32.712 39.3598 32.9179 39.3592 33.1257C39.3585 33.3336 39.3167 33.5392 39.2361 33.731C39.1554 33.9228 39.0376 34.0969 38.8892 34.2434L26.0515 46.995C25.7461 47.2818 25.3418 47.4416 24.9216 47.4416C24.5013 47.4416 24.0969 47.2818 23.7915 46.995L19.1112 42.3327C18.9678 42.1837 18.8555 42.0081 18.7806 41.8158C18.7057 41.6236 18.6698 41.4186 18.6747 41.2126C18.6797 41.0066 18.7255 40.8035 18.8096 40.6151C18.8936 40.4267 19.0144 40.2565 19.1647 40.1145Z" fill="#4D84BD"/>
<path d="M58.5705 38.1751V31.0289C58.567 30.7423 58.4499 30.4687 58.2447 30.2672C58.0394 30.0658 57.7624 29.9529 57.4739 29.9529C57.3317 29.9529 57.1909 29.9808 57.0595 30.0348C56.928 30.0889 56.8086 30.1682 56.708 30.2681C56.6074 30.368 56.5276 30.4866 56.4732 30.6171C56.4187 30.7477 56.3907 30.8876 56.3907 31.0289V36.8202C54.7219 36.0214 52.8942 35.6039 51.0417 35.5982C49.0196 35.5982 47.0288 36.0943 45.2463 37.0426C43.4637 37.9908 41.9445 39.3617 40.8238 41.0336C39.703 42.7054 39.0155 44.6263 38.8221 46.6257C38.6287 48.625 38.9355 50.6409 39.7152 52.4941H15.3371C15.1948 52.4941 15.054 52.5219 14.9226 52.576C14.7912 52.63 14.6717 52.7093 14.5712 52.8092C14.4706 52.9091 14.3908 53.0277 14.3363 53.1582C14.2819 53.2888 14.2539 53.4287 14.2539 53.57C14.2539 53.7113 14.2819 53.8512 14.3363 53.9817C14.3908 54.1122 14.4706 54.2309 14.5712 54.3308C14.6717 54.4307 14.7912 54.5099 14.9226 54.564C15.054 54.6181 15.1948 54.6459 15.3371 54.6459H40.8786C41.8743 56.1055 43.1767 57.3333 44.6961 58.2447C46.2156 59.156 47.916 59.7292 49.6801 59.9247C51.4441 60.1203 53.2298 59.9335 54.9142 59.3773C56.5985 58.8212 58.1415 57.9088 59.4365 56.7031C60.7316 55.4974 61.7481 54.0271 62.4158 52.3935C63.0836 50.7599 63.3867 49.0019 63.3044 47.2407C63.2221 45.4795 62.7562 43.757 61.9389 42.1919C61.1217 40.6268 59.9725 39.2564 58.5705 38.1751ZM51.015 57.8205C49.0144 57.8231 47.0579 57.2361 45.3933 56.1337C43.7288 55.0313 42.431 53.4631 41.6641 51.6276C40.8973 49.7922 40.696 47.772 41.0856 45.8228C41.4753 43.8736 42.4383 42.0831 43.853 40.6779C45.2677 39.2728 47.0703 38.3161 49.0326 37.929C50.9949 37.542 53.0288 37.742 54.8766 38.5037C56.7245 39.2654 58.3032 40.5545 59.413 42.2079C60.5229 43.8613 61.1139 45.8047 61.1113 47.7919C61.1078 50.4506 60.0429 52.9993 58.1502 54.8793C56.2576 56.7593 53.6917 57.817 51.015 57.8205Z" fill="#4D84BD"/>
<path d="M51.0176 38.7064C49.208 38.7038 47.4382 39.2344 45.9322 40.2312C44.4263 41.2279 43.2519 42.6459 42.5575 44.3059C41.8632 45.9658 41.6801 47.793 42.0316 49.5563C42.383 51.3196 43.2531 52.9397 44.5317 54.2117C45.8104 55.4836 47.4401 56.3503 49.2148 56.7019C50.9895 57.0535 52.8293 56.8744 54.5015 56.1871C56.1736 55.4999 57.6029 54.3354 58.6086 52.841C59.6142 51.3466 60.151 49.5895 60.151 47.7919C60.151 45.3846 59.1892 43.0757 57.4767 41.3722C55.7643 39.6687 53.4412 38.71 51.0176 38.7064ZM52.0874 54.6459C52.094 54.5797 52.094 54.5129 52.0874 54.4467V53.3442C52.0874 53.0589 51.9733 52.7852 51.7702 52.5834C51.567 52.3816 51.2915 52.2683 51.0042 52.2683C50.717 52.2683 50.4415 52.3816 50.2383 52.5834C50.0352 52.7852 49.9211 53.0589 49.9211 53.3442V54.4467C49.9144 54.5129 49.9144 54.5797 49.9211 54.6459C48.482 54.3883 47.1593 53.6924 46.1362 52.6548C45.1131 51.6171 44.4403 50.289 44.211 48.8546H45.5482C45.7015 48.8715 45.8566 48.8561 46.0035 48.8094C46.1503 48.7627 46.2856 48.6857 46.4005 48.5836C46.5154 48.4814 46.6073 48.3563 46.6702 48.2165C46.7332 48.0766 46.7657 47.9252 46.7657 47.772C46.7657 47.6189 46.7332 47.4674 46.6702 47.3276C46.6073 47.1877 46.5154 47.0627 46.4005 46.9605C46.2856 46.8583 46.1503 46.7814 46.0035 46.7347C45.8566 46.688 45.7015 46.6726 45.5482 46.6895H44.211C44.4479 45.2469 45.136 43.915 46.1777 42.8827C47.2194 41.8503 48.5618 41.1699 50.0147 40.938C50.0075 40.9997 50.0075 41.0621 50.0147 41.1239V42.2264C50.0147 42.5117 50.1288 42.7854 50.3319 42.9872C50.5351 43.189 50.8106 43.3023 51.0979 43.3023C51.3851 43.3023 51.6606 43.189 51.8638 42.9872C52.0669 42.7854 52.181 42.5117 52.181 42.2264V41.1239C52.1882 41.0621 52.1882 40.9997 52.181 40.938C53.6263 41.1916 54.9549 41.8896 55.9794 42.9334C57.0039 43.9773 57.6725 45.3143 57.891 46.7559H56.5538C56.4005 46.739 56.2455 46.7544 56.0986 46.8011C55.9517 46.8478 55.8164 46.9247 55.7015 47.0269C55.5866 47.1291 55.4947 47.2541 55.4318 47.394C55.3688 47.5338 55.3364 47.6853 55.3364 47.8384C55.3364 47.9916 55.3688 48.1431 55.4318 48.2829C55.4947 48.4227 55.5866 48.5478 55.7015 48.65C55.8164 48.7521 55.9517 48.8291 56.0986 48.8758C56.2455 48.9225 56.4005 48.9379 56.5538 48.921H57.891C57.6383 50.3515 56.944 51.6685 55.9041 52.6895C54.8642 53.7105 53.5304 54.3849 52.0874 54.6194V54.6459Z" fill="#4D84BD"/>
<path d="M53.0207 46.7559H52.098V45.9988C52.098 45.7134 51.9839 45.4398 51.7807 45.238C51.5776 45.0362 51.3021 44.9229 51.0148 44.9229C50.7275 44.9229 50.452 45.0362 50.2489 45.238C50.0458 45.4398 49.9316 45.7134 49.9316 45.9988V47.8451C49.9316 48.1304 50.0458 48.4041 50.2489 48.6059C50.452 48.8076 50.7275 48.921 51.0148 48.921H53.0207C53.174 48.9379 53.329 48.9225 53.4759 48.8758C53.6227 48.8291 53.7581 48.7521 53.873 48.65C53.9879 48.5478 54.0797 48.4227 54.1426 48.2829C54.2056 48.1431 54.2381 47.9916 54.2381 47.8385C54.2381 47.6853 54.2056 47.5338 54.1426 47.394C54.0797 47.2542 53.9879 47.1291 53.873 47.0269C53.7581 46.9248 53.6227 46.8478 53.4759 46.8011C53.329 46.7544 53.174 46.739 53.0207 46.7559Z" fill="#4D84BD"/>
</svg>
