<svg width="58" height="60" viewBox="0 0 58 60" fill="none" xmlns="http://www.w3.org/2000/svg">
<path d="M24.3208 36.7123H20.7959V33.1873C20.7959 32.8788 20.6734 32.5829 20.4552 32.3647C20.2371 32.1466 19.9412 32.024 19.6327 32.024C19.3242 32.024 19.0283 32.1466 18.8102 32.3647C18.592 32.5829 18.4694 32.8788 18.4694 33.1873V36.7123H14.9445C14.636 36.7123 14.3401 36.8348 14.122 37.053C13.9038 37.2711 13.7813 37.567 13.7813 37.8755C13.7812 38.1856 13.9032 38.4834 14.1209 38.7043C14.3385 38.9253 14.6344 39.0517 14.9445 39.0563H18.4694V42.5813C18.4694 42.8898 18.592 43.1857 18.8102 43.4039C19.0283 43.622 19.3242 43.7446 19.6327 43.7446C19.9412 43.7446 20.2371 43.622 20.4552 43.4039C20.6734 43.1857 20.7959 42.8898 20.7959 42.5813V39.0563H24.3208C24.4751 39.0563 24.6278 39.0257 24.7701 38.9662C24.9124 38.9066 25.0414 38.8194 25.1497 38.7095C25.2579 38.5996 25.3433 38.4693 25.4007 38.3261C25.4581 38.1829 25.4864 38.0297 25.4841 37.8755C25.4865 37.7221 25.458 37.5698 25.4004 37.4275C25.3428 37.2853 25.2572 37.1562 25.1487 37.0477C25.0402 36.9392 24.911 36.8536 24.7688 36.796C24.6266 36.7384 24.4743 36.7099 24.3208 36.7123Z" fill="#4D84BD"/>
<path d="M55.9388 37.7522C54.693 35.6048 52.6477 34.0379 50.2501 33.3939C47.8524 32.7499 45.2973 33.0812 43.1432 34.3154L38.3845 37.0649V26.8954C38.3809 25.6267 37.9735 24.3921 37.2213 23.3705L31.3699 15.5627V12.2316C32.0544 11.9882 32.6471 11.5392 33.0667 10.9461C33.4863 10.353 33.7124 9.64467 33.714 8.91813V3.52495C33.714 2.59008 33.3426 1.69349 32.6815 1.03243C32.0205 0.371375 31.1239 0 30.189 0H9.0393C8.10443 0 7.20784 0.371375 6.54678 1.03243C5.88572 1.69349 5.51435 2.59008 5.51435 3.52495V8.91813C5.51596 9.64467 5.74204 10.353 6.16164 10.9461C6.58125 11.5392 7.17388 11.9882 7.85845 12.2316V15.5627L2.00704 23.3705C1.24701 24.3881 0.838706 25.6253 0.843797 26.8954V49.5785C0.843797 51.1304 1.46027 52.6187 2.55762 53.716C3.65498 54.8134 5.14331 55.4299 6.6952 55.4299H25.5185C26.7778 57.5444 28.8193 59.0778 31.201 59.698C33.5827 60.3181 36.1129 59.9752 38.2435 58.7434L52.4315 50.5478C54.5873 49.3104 56.1662 47.2704 56.8233 44.8731C57.4804 42.4758 57.1624 39.9159 55.9388 37.7522ZM7.92896 3.57782C7.92896 3.26932 8.05149 2.97347 8.26964 2.75532C8.48779 2.53717 8.78366 2.41458 9.09217 2.41458H30.2419C30.5504 2.41458 30.8463 2.53717 31.0644 2.75532C31.2826 2.97347 31.4051 3.26932 31.4051 3.57782V8.971C31.4051 9.27951 31.2826 9.57541 31.0644 9.79356C30.8463 10.0117 30.5504 10.1342 30.2419 10.1342H9.09217C8.78366 10.1342 8.48779 10.0117 8.26964 9.79356C8.05149 9.57541 7.92896 9.27951 7.92896 8.971V3.57782ZM3.96339 24.7276L10.0439 16.6025C10.1975 16.4 10.2783 16.1517 10.273 15.8976V12.3726H29.0082V14.7166H18.4333C18.1248 14.7166 17.8289 14.8393 17.6108 15.0574C17.3926 15.2756 17.2701 15.5714 17.2701 15.8799C17.27 16.1901 17.392 16.4878 17.6097 16.7088C17.8273 16.9297 18.1232 17.0561 18.4333 17.0608H29.5545L35.2826 24.71C35.6617 25.2257 35.8932 25.835 35.9523 26.4724H3.25838C3.37283 25.8583 3.63946 25.2826 4.03387 24.7981L3.96339 24.7276ZM6.76572 53.033C5.83084 53.033 4.93425 52.6615 4.2732 52.0005C3.61214 51.3394 3.24077 50.4429 3.24077 49.508V48.4681H24.5138C24.1176 50.0057 24.1176 51.6186 24.5138 53.1562L6.76572 53.033ZM25.448 45.9831H3.25838V28.7636H36.0405V38.3339L28.9905 42.4405C27.4939 43.2963 26.2668 44.554 25.448 46.0712V45.9831ZM37.1332 56.5579C35.528 57.3571 33.6785 57.5146 31.9612 56.9983C30.244 56.482 28.788 55.3308 27.8896 53.7789C26.9913 52.2269 26.718 50.391 27.1256 48.6447C27.5331 46.8985 28.5908 45.3731 30.0833 44.3791L36.4458 40.7132L43.4957 52.8743L37.1332 56.5579ZM51.3387 48.3624L45.5226 51.7111L38.4726 39.55L44.2888 36.2012C45.8888 35.4338 47.7193 35.2981 49.415 35.821C51.1107 36.3438 52.5469 37.4869 53.4368 39.0221C54.3268 40.5573 54.6051 42.3716 54.2162 44.1029C53.8273 45.8342 52.7998 47.3553 51.3387 48.3624Z" fill="#4D84BD"/>
</svg>
