<svg width="50" height="60" viewBox="0 0 50 60" fill="none" xmlns="http://www.w3.org/2000/svg">
<path d="M48.2702 1.41212C47.8214 0.961733 47.2876 0.604962 46.6998 0.362566C46.112 0.12017 45.4819 -0.00305441 44.8461 5.75028e-05H5.18578C3.90314 5.75028e-05 2.67305 0.509625 1.76608 1.41659C0.859123 2.32355 0.349609 3.55365 0.349609 4.83628V12.9201C0.349609 13.1542 0.442547 13.3786 0.608051 13.5441C0.773555 13.7096 0.998068 13.8026 1.23213 13.8026H5.48586C5.71992 13.8026 5.94438 13.7096 6.10988 13.5441C6.27538 13.3786 6.36838 13.1542 6.36838 12.9201C6.36838 12.686 6.27538 12.4616 6.10988 12.2961C5.94438 12.1306 5.71992 12.0376 5.48586 12.0376H2.11464V4.83628C2.11464 4.01708 2.44003 3.23139 3.0193 2.65213C3.59856 2.07287 4.38425 1.74748 5.20345 1.74748C6.01797 1.74748 6.7991 2.07101 7.37505 2.64696C7.951 3.22291 8.27459 4.00409 8.27459 4.81861V59.0934C8.27367 59.2611 8.3216 59.4255 8.41248 59.5666C8.50336 59.7076 8.6333 59.8192 8.78646 59.8876C8.93855 59.9556 9.10651 59.9801 9.27167 59.9583C9.43683 59.9364 9.5927 59.8692 9.72193 59.7641L13.1108 56.8694L16.4996 59.7641C16.6595 59.9008 16.8629 59.9759 17.0732 59.9759C17.2836 59.9759 17.487 59.9008 17.6469 59.7641L21.0358 56.8694L24.4246 59.7641C24.5845 59.9008 24.7879 59.9759 24.9983 59.9759C25.2086 59.9759 25.412 59.9008 25.5719 59.7641L28.9608 56.8694L32.3496 59.7641C32.5095 59.9008 32.7129 59.9759 32.9233 59.9759C33.1336 59.9759 33.3371 59.9008 33.4969 59.7641L36.8857 56.8694L40.2746 59.7641C40.4345 59.9008 40.6379 59.9759 40.8482 59.9759C41.0586 59.9759 41.262 59.9008 41.4219 59.7641L44.8108 56.8694L48.1996 59.7641C48.3564 59.9002 48.5568 59.9753 48.7644 59.9759C48.8859 60.008 49.0136 60.008 49.1351 59.9759C49.2882 59.9074 49.4182 59.7959 49.509 59.6548C49.5999 59.5138 49.6479 59.3494 49.6469 59.1816V4.81861C49.6667 4.18632 49.5544 3.55687 49.3174 2.97036C49.0804 2.38385 48.7237 1.85316 48.2702 1.41212ZM44.2636 55.0867L40.8747 57.9814L37.4858 55.0867C37.326 54.95 37.1226 54.8748 36.9122 54.8748C36.7019 54.8748 36.4984 54.95 36.3386 55.0867L32.9498 57.9814L29.5609 55.0867C29.401 54.95 29.1976 54.8748 28.9872 54.8748C28.7769 54.8748 28.5735 54.95 28.4136 55.0867L25.0247 57.9814L21.6359 55.0867C21.476 54.95 21.2726 54.8748 21.0622 54.8748C20.8519 54.8748 20.6485 54.95 20.4886 55.0867L17.0821 57.9814L13.6932 55.0867C13.5362 54.9513 13.3358 54.8768 13.1284 54.8768C12.9211 54.8768 12.7206 54.9513 12.5636 55.0867L10.0396 57.3283V4.5362C10.0482 4.4836 10.0482 4.42996 10.0396 4.37736C10.048 4.34853 10.048 4.31795 10.0396 4.28913C10.0396 4.28913 10.0396 4.20084 10.0396 4.14789C10.048 4.11907 10.048 4.08849 10.0396 4.05966C10.0396 4.05966 10.0396 3.97138 10.0396 3.91843C10.0396 3.86548 10.0396 3.91845 10.0396 3.8302C10.0475 3.78346 10.0475 3.7357 10.0396 3.68897C10.0396 3.68897 10.0396 3.68899 10.0396 3.60074C10.0396 3.51249 10.0396 3.51251 10.0396 3.45956V3.28305V3.07125C10.0491 3.02466 10.0491 2.9766 10.0396 2.93002C10.0454 2.88904 10.0454 2.84743 10.0396 2.80645V2.68294V2.57704C10.0363 2.53593 10.0363 2.49459 10.0396 2.45348L9.93372 2.32991H45.8697C46.6843 2.32991 47.4655 2.6535 48.0414 3.22945C48.6174 3.8054 48.9409 4.58653 48.9409 5.40105V57.3283L46.4169 55.175C46.4286 54.8894 46.3264 54.6109 46.1328 54.4007C45.9391 54.1905 45.6699 54.0659 45.3844 54.0542C45.0988 54.0425 44.8203 54.1447 44.6101 54.3384C44.3999 54.532 44.2753 54.8012 44.2636 55.0867Z" fill="#4D84BD"/>
<path d="M41.3507 46.3144H30.0368C29.8028 46.3144 29.5783 46.4073 29.4128 46.5728C29.2473 46.7383 29.1543 46.9629 29.1543 47.1969C29.1543 47.431 29.2473 47.6554 29.4128 47.8209C29.5783 47.9864 29.8028 48.0794 30.0368 48.0794H41.3507C41.5847 48.0794 41.8092 47.9864 41.9747 47.8209C42.1403 47.6554 42.2332 47.431 42.2332 47.1969C42.2332 46.9629 42.1403 46.7383 41.9747 46.5728C41.8092 46.4073 41.5847 46.3144 41.3507 46.3144Z" fill="#4D84BD"/>
<path d="M41.3507 40.2252H30.0368C29.8028 40.2252 29.5783 40.3182 29.4128 40.4837C29.2473 40.6492 29.1543 40.8736 29.1543 41.1077C29.1543 41.3417 29.2473 41.5662 29.4128 41.7317C29.5783 41.8972 29.8028 41.9902 30.0368 41.9902H41.3507C41.5847 41.9902 41.8092 41.8972 41.9747 41.7317C42.1403 41.5662 42.2332 41.3417 42.2332 41.1077C42.2332 40.8736 42.1403 40.6492 41.9747 40.4837C41.8092 40.3182 41.5847 40.2252 41.3507 40.2252Z" fill="#4D84BD"/>
<path d="M42.4852 31.3647H15.4626C15.2285 31.3647 15.0041 31.4576 14.8386 31.6231C14.6731 31.7886 14.5801 32.0131 14.5801 32.2472C14.5801 32.4813 14.6731 32.7057 14.8386 32.8712C15.0041 33.0367 15.2285 33.1297 15.4626 33.1297H42.4852C42.7193 33.1297 42.9437 33.0367 43.1093 32.8712C43.2748 32.7057 43.3677 32.4813 43.3677 32.2472C43.3677 32.0131 43.2748 31.7886 43.1093 31.6231C42.9437 31.4576 42.7193 31.3647 42.4852 31.3647Z" fill="#4D84BD"/>
<path d="M28.9632 25.8575H15.4431C15.209 25.8575 14.9845 25.9505 14.819 26.116C14.6535 26.2815 14.5605 26.506 14.5605 26.7401C14.5605 26.9741 14.6535 27.1986 14.819 27.3641C14.9845 27.5296 15.209 27.6226 15.4431 27.6226H28.9632C29.1973 27.6226 29.4217 27.5296 29.5872 27.3641C29.7527 27.1986 29.8457 26.9741 29.8457 26.7401C29.8457 26.506 29.7527 26.2815 29.5872 26.116C29.4217 25.9505 29.1973 25.8575 28.9632 25.8575Z" fill="#4D84BD"/>
<path d="M36.5648 7.78393C36.4227 7.62124 36.2259 7.5163 36.0117 7.48897C35.7974 7.46163 35.5806 7.51378 35.4022 7.63558C35.2239 7.75739 35.0964 7.94038 35.0439 8.14988C34.9914 8.35938 35.0176 8.58083 35.1174 8.77234C35.9481 9.99588 36.391 11.4413 36.3882 12.9202C36.3882 14.3898 35.9524 15.8265 35.1359 17.0485C34.3194 18.2705 33.1589 19.2229 31.8011 19.7853C30.4433 20.3477 28.9492 20.4949 27.5078 20.2082C26.0664 19.9215 24.7423 19.2138 23.7031 18.1746C22.6639 17.1353 21.9562 15.8113 21.6694 14.3698C21.3827 12.9284 21.5299 11.4344 22.0923 10.0766C22.6547 8.71876 23.6071 7.55821 24.8291 6.7417C26.0511 5.9252 27.4878 5.48941 28.9575 5.48941C30.1917 5.48353 31.4069 5.79342 32.4875 6.38959C32.5895 6.44522 32.7015 6.48021 32.817 6.49258C32.9325 6.50495 33.0493 6.49444 33.1607 6.46166C33.2722 6.42888 33.3761 6.37446 33.4665 6.30152C33.5569 6.22859 33.6321 6.13855 33.6877 6.03656C33.7434 5.93458 33.7784 5.82264 33.7907 5.70713C33.8031 5.59162 33.7926 5.47482 33.7598 5.36336C33.727 5.25191 33.6726 5.148 33.5997 5.05758C33.5267 4.96715 33.4368 4.89198 33.3348 4.83635C31.568 3.8777 29.5354 3.52555 27.5491 3.83399C25.5629 4.14243 23.7327 5.09436 22.3399 6.54364C20.9471 7.99293 20.0685 9.8594 19.8392 11.8564C19.6099 13.8533 20.0425 15.8703 21.0706 17.5976C22.0986 19.3249 23.6653 20.6669 25.5299 21.4176C27.3946 22.1682 29.4541 22.286 31.3922 21.7528C33.3303 21.2196 35.0396 20.0649 36.2579 18.466C37.4761 16.8672 38.1359 14.9126 38.1357 12.9025C38.1422 11.0766 37.5944 9.29179 36.5648 7.78393Z" fill="#4D84BD"/>
<path d="M33.4284 10.6958H31.275V8.54249C31.275 8.30843 31.182 8.08397 31.0165 7.91847C30.851 7.75297 30.6266 7.65997 30.3925 7.65997H27.7097C27.4756 7.65997 27.2511 7.75297 27.0856 7.91847C26.9201 8.08397 26.8272 8.30843 26.8272 8.54249V10.6958H24.6032C24.3692 10.6958 24.1447 10.7888 23.9792 10.9543C23.8137 11.1198 23.7207 11.3443 23.7207 11.5783V14.2612C23.7207 14.4953 23.8137 14.7197 23.9792 14.8853C24.1447 15.0508 24.3692 15.1437 24.6032 15.1437H26.7566V17.2971C26.7566 17.5311 26.8496 17.7556 27.0151 17.9211C27.1806 18.0866 27.405 18.1796 27.6391 18.1796H30.3219C30.556 18.1796 30.7805 18.0866 30.946 17.9211C31.1115 17.7556 31.2044 17.5311 31.2044 17.2971V15.1437H33.4284C33.6624 15.1437 33.8869 15.0508 34.0524 14.8853C34.2179 14.7197 34.3109 14.4953 34.3109 14.2612V11.5783C34.3109 11.3443 34.2179 11.1198 34.0524 10.9543C33.8869 10.7888 33.6624 10.6958 33.4284 10.6958ZM32.5459 13.3787H30.3925C30.1585 13.3787 29.934 13.4717 29.7685 13.6372C29.603 13.8027 29.51 14.0272 29.51 14.2612V16.4146H28.5922V14.2612C28.5922 14.0272 28.4992 13.8027 28.3337 13.6372C28.1682 13.4717 27.9438 13.3787 27.7097 13.3787H25.5564V12.4609H27.7097C27.9438 12.4609 28.1682 12.3679 28.3337 12.2024C28.4992 12.0369 28.5922 11.8124 28.5922 11.5783V9.42501H29.51V11.5783C29.51 11.8124 29.603 12.0369 29.7685 12.2024C29.934 12.3679 30.1585 12.4609 30.3925 12.4609H32.5459V13.3787Z" fill="#4D84BD"/>
</svg>
