<svg width="61" height="60" viewBox="0 0 61 60" fill="none" xmlns="http://www.w3.org/2000/svg">
<path d="M60.4661 30.9761V0.992433C60.4661 0.862108 60.4404 0.733072 60.3906 0.612668C60.3407 0.492264 60.2676 0.382848 60.1754 0.290695C60.0833 0.198541 59.9739 0.125439 59.8535 0.0755657C59.7331 0.0256926 59.604 0 59.4737 0H13.5139C13.2507 0 12.9983 0.104582 12.8122 0.290695C12.626 0.476807 12.5215 0.72923 12.5215 0.992433V11.9903H1.52366C1.26046 11.9903 1.00803 12.0948 0.82192 12.2809C0.635807 12.467 0.53125 12.7194 0.53125 12.9827V42.9501C0.53125 43.2133 0.635807 43.4657 0.82192 43.6518C1.00803 43.8379 1.26046 43.9425 1.52366 43.9425H9.51171C9.58686 43.9579 9.66434 43.9579 9.73949 43.9425L15.58 59.3492C15.6253 59.4726 15.6945 59.5857 15.7839 59.682C15.8732 59.7784 15.9807 59.8561 16.1003 59.9106C16.2198 59.9651 16.349 59.9953 16.4804 59.9995C16.6117 60.0037 16.7425 59.9817 16.8653 59.9349L59.8316 42.9501C60.079 42.8521 60.2777 42.6603 60.3843 42.4165C60.491 42.1728 60.497 41.8967 60.401 41.6486L56.6266 32.0336H59.4737C59.6104 32.0364 59.7462 32.0103 59.8722 31.9573C59.9982 31.9042 60.1116 31.8253 60.2052 31.7256C60.2987 31.6259 60.3703 31.5077 60.4153 31.3786C60.4602 31.2495 60.4775 31.1124 60.4661 30.9761ZM2.51607 41.9577V13.975H45.6776L40.3089 15.9762H5.50955C5.24635 15.9762 4.99392 16.0807 4.80781 16.2668C4.6217 16.4529 4.51714 16.7054 4.51714 16.9686V38.948C4.51714 39.2112 4.6217 39.4636 4.80781 39.6497C4.99392 39.8358 5.24635 39.9403 5.50955 39.9403H8.25901L9.02365 41.9414H2.51607V41.9577ZM47.4835 11.9903H18.5085V5.98702H54.4791V25.9653H54.2676L49.3869 13.6172C49.3139 13.4318 49.186 13.2732 49.0202 13.1627C48.8544 13.0522 48.6588 12.995 48.4596 12.9989C48.4598 12.737 48.358 12.4852 48.1758 12.2969C47.9936 12.1086 47.7453 11.9987 47.4835 11.9903ZM13.4488 20.1248C13.1452 20.0521 12.8335 20.0193 12.5215 20.0271C11.6821 20.026 10.8638 20.2898 10.1832 20.781C9.50255 21.2722 8.9944 21.9658 8.73113 22.7628C8.46786 23.5598 8.46292 24.4196 8.71702 25.2196C8.97112 26.0196 9.47129 26.719 10.1462 27.218L6.51823 28.5683V18.0098H34.875L16.3935 24.8427C16.6326 23.8223 16.4568 22.7487 15.9046 21.8579C15.3524 20.9671 14.4691 20.3319 13.4488 20.0922V20.1248ZM14.5063 24.0131C14.4903 24.405 14.3596 24.7836 14.1302 25.1018C13.9009 25.42 13.5831 25.6637 13.2163 25.8028C12.8495 25.9419 12.45 25.97 12.0673 25.8838C11.6847 25.7977 11.3358 25.6011 11.064 25.3182C10.7922 25.0354 10.6095 24.6789 10.5387 24.2931C10.4678 23.9073 10.5119 23.5092 10.6655 23.1483C10.819 22.7873 11.0753 22.4795 11.4024 22.263C11.7295 22.0465 12.113 21.9309 12.5052 21.9306C12.7722 21.9305 13.0364 21.9839 13.2824 22.0875C13.5285 22.1911 13.7513 22.3428 13.9377 22.5338C14.1242 22.7248 14.2706 22.9513 14.3682 23.1997C14.4659 23.4482 14.5128 23.7136 14.5063 23.9805V24.0131ZM7.47809 38.0043H6.51823V35.4338L7.47809 38.0043ZM58.1722 41.4533L17.0768 57.7223L6.7948 30.5694L47.8902 15.2765L58.1722 41.4533ZM58.465 30.0651H55.8295L55.0485 28.064H55.439C55.7022 28.064 55.9546 27.9594 56.1407 27.7733C56.3269 27.5872 56.4314 27.3347 56.4314 27.0715V4.99458C56.423 4.73706 56.3147 4.49293 56.1295 4.3138C55.9443 4.13467 55.6967 4.03458 55.439 4.03472H17.4998C17.2366 4.03472 16.9842 4.13925 16.798 4.32537C16.6119 4.51148 16.5074 4.7639 16.5074 5.0271V12.0227H14.5063V2.03362H58.4325L58.465 30.0651Z" fill="#4D84BD"/>
<path d="M55.4403 39.6151L54.4805 37.1097C54.5039 36.9462 54.4848 36.7795 54.4249 36.6256C54.3651 36.4717 54.2665 36.3358 54.1388 36.2311L47.4035 18.6769C47.3582 18.5536 47.289 18.4405 47.1997 18.3441C47.1104 18.2477 47.0028 18.17 46.8833 18.1155C46.7637 18.061 46.6345 18.0308 46.5032 18.0266C46.3719 18.0225 46.241 18.0445 46.1182 18.0913L10.1476 32.0825C9.90408 32.1806 9.7084 32.3696 9.60208 32.6096C9.49576 32.8496 9.48717 33.1216 9.57814 33.3678L17.5662 54.3548C17.6375 54.5458 17.7668 54.7098 17.9361 54.8236C18.1053 54.9374 18.306 54.9953 18.5098 54.9893C18.6278 55.0138 18.7497 55.0138 18.8677 54.9893L54.8384 40.9979C54.9788 40.9611 55.1091 40.8929 55.2193 40.7984C55.3296 40.7039 55.417 40.5857 55.475 40.4526C55.5329 40.3194 55.5599 40.1749 55.5539 40.0298C55.5479 39.8848 55.5091 39.743 55.4403 39.6151ZM20.7549 36.3613C20.6279 36.5188 20.5539 36.7124 20.5434 36.9145L19.5673 52.5001L19.1118 52.6791L11.8233 33.5631L45.9881 20.3038L51.487 34.7344L41.0423 29.1053C40.9271 29.0427 40.8006 29.0036 40.6702 28.9902C40.5397 28.9768 40.4079 28.9893 40.2823 29.0271C40.1568 29.065 40.04 29.1273 39.9386 29.2105C39.8373 29.2938 39.7535 29.3962 39.692 29.512C39.6142 29.6569 39.575 29.8194 39.5781 29.9839V32.1151L32.1432 27.2344C32.0344 27.1611 31.9122 27.1101 31.7837 27.0844C31.6551 27.0586 31.5227 27.0586 31.3941 27.0843C31.2655 27.11 31.1433 27.161 31.0345 27.2342C30.9257 27.3074 30.8325 27.4015 30.7603 27.511C30.6757 27.6383 30.6202 27.7827 30.5976 27.934L28.8081 41.3396L22.2029 36.2637C22.1044 36.1628 21.9852 36.0844 21.8535 36.034C21.7219 35.9836 21.5808 35.9623 21.4401 35.9715C21.2994 35.9808 21.1624 36.0204 21.0385 36.0877C20.9146 36.155 20.8068 36.2483 20.7224 36.3613H20.7549ZM21.6172 51.6866L22.4143 38.8992L33.1844 47.1802L21.6172 51.6866ZM35.2668 46.3342L35.1041 46.1389L30.5488 42.6248L32.2733 29.6096L39.936 34.7181C40.0448 34.7914 40.167 34.8424 40.2956 34.8681C40.4241 34.8939 40.5565 34.894 40.6851 34.8682C40.8137 34.8425 40.9359 34.7915 41.0447 34.7183C41.1535 34.6451 41.2467 34.551 41.3189 34.4416C41.4285 34.2782 41.4853 34.0851 41.4816 33.8884V31.6921L52.4957 37.614L53.1952 39.4361L35.2668 46.3342Z" fill="#4D84BD"/>
</svg>
