<svg width="62" height="60" viewBox="0 0 62 60" fill="none" xmlns="http://www.w3.org/2000/svg">
<path d="M46.9235 54.0032C46.6599 54.0032 46.407 54.108 46.2206 54.2944C46.0342 54.4808 45.9295 54.7336 45.9295 54.9973V57.0016C45.9295 57.2652 45.8248 57.5181 45.6383 57.7045C45.4519 57.8909 45.1991 57.9956 44.9355 57.9956H16.9235C16.6598 57.9956 16.407 57.8909 16.2206 57.7045C16.0342 57.5181 15.9294 57.2652 15.9294 57.0016V54.9973C15.9294 54.8667 15.9037 54.7374 15.8538 54.6168C15.8038 54.4962 15.7306 54.3867 15.6383 54.2944C15.546 54.2021 15.4364 54.1288 15.3158 54.0789C15.1952 54.0289 15.0659 54.0032 14.9354 54.0032C14.6718 54.0032 14.419 54.108 14.2326 54.2944C14.0461 54.4808 13.9414 54.7336 13.9414 54.9973V57.0016C13.9414 57.7968 14.2573 58.5595 14.8196 59.1218C15.3819 59.6841 16.1446 60 16.9398 60H44.9518C45.747 60 46.5096 59.6841 47.0719 59.1218C47.6342 58.5595 47.9501 57.7968 47.9501 57.0016V54.9973C47.9377 54.732 47.8246 54.4815 47.6338 54.2968C47.4431 54.1121 47.189 54.007 46.9235 54.0032Z" fill="#4D84BD"/>
<path d="M14.9069 4.98654C15.1566 4.97864 15.3942 4.87702 15.5723 4.70188C15.7505 4.52675 15.8561 4.2909 15.8683 4.04137V3.04737C15.8683 2.91683 15.894 2.78754 15.944 2.66693C15.9939 2.54633 16.0671 2.43679 16.1595 2.34449C16.2518 2.25218 16.3613 2.17891 16.4819 2.12896C16.6025 2.079 16.7318 2.05337 16.8623 2.05337H21.1969L22.2235 4.44876C22.3 4.62748 22.4273 4.77981 22.5895 4.88698C22.7517 4.99414 22.9417 5.05143 23.1361 5.05169H38.682C38.8769 5.05358 39.0679 4.9972 39.2305 4.88976C39.3931 4.78233 39.5199 4.62876 39.5946 4.44876L40.6212 2.05337H44.9558C45.2194 2.05337 45.4723 2.15807 45.6587 2.34449C45.8451 2.5309 45.9498 2.78374 45.9498 3.04737V14.0468C45.9498 14.3105 46.0546 14.5633 46.241 14.7497C46.4274 14.9361 46.6802 15.0408 46.9439 15.0408C47.2075 15.0408 47.4603 14.9361 47.6467 14.7497C47.8331 14.5633 47.9379 14.3105 47.9379 14.0468V3.04737C47.9379 2.25215 47.622 1.48949 47.0597 0.927181C46.4974 0.364877 45.7347 0.0489502 44.9395 0.0489502H16.8461C16.0508 0.0489502 15.2882 0.364877 14.7259 0.927181C14.1636 1.48949 13.8477 2.25215 13.8477 3.04737V4.04137C13.8826 4.29931 14.0085 4.53625 14.2027 4.70954C14.3969 4.88284 14.6466 4.98112 14.9069 4.98654ZM38.405 1.98812L37.9813 2.98212H23.8694L23.4457 1.98812H38.405Z" fill="#4D84BD"/>
<path d="M39.9152 57.0017C40.0457 57.0017 40.175 56.9759 40.2956 56.926C40.4162 56.876 40.5258 56.8029 40.6181 56.7106C40.7104 56.6183 40.7836 56.5086 40.8336 56.388C40.8835 56.2674 40.9092 56.1382 40.9092 56.0077C40.9092 55.8771 40.8835 55.7478 40.8336 55.6272C40.7836 55.5066 40.7104 55.3971 40.6181 55.3048C40.5258 55.2125 40.4162 55.1392 40.2956 55.0893C40.175 55.0393 40.0457 55.0137 39.9152 55.0137H21.9901C21.7265 55.0137 21.4737 55.1184 21.2872 55.3048C21.1008 55.4912 20.9961 55.744 20.9961 56.0077C20.9961 56.2713 21.1008 56.5241 21.2872 56.7106C21.4737 56.897 21.7265 57.0017 21.9901 57.0017H39.9152Z" fill="#4D84BD"/>
<path d="M3.90407 21.9663C4.40987 21.9658 4.90732 21.8373 5.35014 21.5929C5.79296 21.3485 6.16675 20.996 6.43672 20.5683C6.70669 20.1405 6.86407 19.6515 6.89421 19.1466C6.92435 18.6417 6.8263 18.1374 6.60913 17.6805L12.6059 11.7001C13.0075 11.8934 13.4475 11.9936 13.8932 11.9934H14.2517L21.7477 26.9527C21.3429 27.3649 21.0659 27.8853 20.9499 28.4513C20.8338 29.0172 20.8838 29.6046 21.0937 30.1428C21.3036 30.681 21.6645 31.1471 22.133 31.4851C22.6016 31.8231 23.1578 32.0185 23.7347 32.0478C24.3117 32.0772 24.8848 31.9393 25.3853 31.6507C25.8857 31.362 26.292 30.935 26.5555 30.4209C26.819 29.9067 26.9284 29.3274 26.8704 28.7526C26.8125 28.1778 26.5897 27.6321 26.2289 27.1809L33.2523 15.9695C33.4671 16.0137 33.685 16.0409 33.9041 16.051C34.3498 16.0512 34.7898 15.9509 35.1915 15.7577L41.2045 21.7707C41.0112 22.1724 40.911 22.6123 40.9112 23.058C40.9088 23.6902 41.1064 24.3068 41.4755 24.82C41.8446 25.3331 42.3665 25.7165 42.9665 25.9153C43.5665 26.1141 44.2141 26.1182 44.8166 25.927C45.4191 25.7357 45.9457 25.3591 46.3213 24.8506C46.6947 24.3398 46.896 23.7234 46.896 23.0907C46.896 22.4579 46.6947 21.8415 46.3213 21.3307L57.0926 5.94775C57.3513 6.02671 57.6206 6.0652 57.8911 6.06183C58.5717 6.06709 59.2344 5.84307 59.7722 5.42589C60.31 5.00871 60.6918 4.42269 60.856 3.76212C61.0202 3.10155 60.9572 2.4049 60.6773 1.78446C60.3974 1.16402 59.9168 0.655921 59.3129 0.341893C58.709 0.0278645 58.017 -0.0738074 57.3483 0.0533594C56.6796 0.180526 56.0732 0.529104 55.6267 1.04289C55.1802 1.55667 54.9197 2.20579 54.8871 2.88568C54.8544 3.56557 55.0516 4.23665 55.4468 4.79083L44.6754 20.1738C43.9829 19.9636 43.2361 20.0278 42.5896 20.353L36.5766 14.34C36.8107 13.8571 36.9108 13.3202 36.8667 12.7854C36.8225 12.2506 36.6357 11.7375 36.3255 11.2995C36.0154 10.8615 35.5935 10.5147 35.1037 10.2954C34.6139 10.0762 34.0742 9.99236 33.541 10.0528C33.0078 10.1132 32.5006 10.3156 32.0722 10.6389C31.6439 10.9622 31.3102 11.3945 31.1059 11.8907C30.9016 12.3869 30.8342 12.9288 30.9108 13.46C30.9874 13.9911 31.2051 14.492 31.5413 14.9103L24.5179 26.1216C24.3009 26.1047 24.083 26.1047 23.8661 26.1216H23.5076L16.0116 11.1623C16.3877 10.7672 16.6488 10.277 16.7669 9.74454C16.8851 9.21203 16.8557 8.6574 16.682 8.14035C16.5083 7.6233 16.1968 7.16345 15.7812 6.81027C15.3655 6.45709 14.8614 6.22396 14.3231 6.13603C13.7848 6.04811 13.2326 6.10871 12.7262 6.31128C12.2198 6.51385 11.7782 6.85068 11.449 7.28559C11.1198 7.7205 10.9155 8.23696 10.858 8.77938C10.8006 9.32179 10.8922 9.86966 11.123 10.3639L5.10992 16.3769C4.70887 16.182 4.26848 16.0817 3.82259 16.0836C3.42884 16.0836 3.03895 16.1612 2.67517 16.3119C2.31139 16.4626 1.98085 16.6833 1.70243 16.9617C1.424 17.2402 1.20314 17.5708 1.05245 17.9346C0.901772 18.2983 0.824219 18.6882 0.824219 19.0819C0.862211 19.8686 1.20493 20.6096 1.7798 21.148C2.35468 21.6864 3.11657 21.9799 3.90407 21.9663ZM23.915 29.9673C23.6513 29.9673 23.3985 29.8626 23.2121 29.6762C23.0257 29.4898 22.9209 29.237 22.9209 28.9733C22.9209 28.7097 23.0257 28.4569 23.2121 28.2704C23.3985 28.084 23.6513 27.9793 23.915 27.9793C24.1786 27.9793 24.4314 28.084 24.6178 28.2704C24.8043 28.4569 24.909 28.7097 24.909 28.9733C24.909 29.237 24.8043 29.4898 24.6178 29.6762C24.4314 29.8626 24.1786 29.9673 23.915 29.9673ZM57.9237 1.95533C58.0542 1.95533 58.1835 1.98107 58.3041 2.03102C58.4247 2.08098 58.5343 2.15425 58.6266 2.24655C58.7189 2.33885 58.7921 2.4484 58.8421 2.569C58.892 2.6896 58.9177 2.8189 58.9177 2.94943C58.9177 3.14603 58.8594 3.33817 58.7502 3.50164C58.641 3.6651 58.4857 3.79251 58.3041 3.86775C58.1225 3.94298 57.9226 3.96269 57.7298 3.92434C57.5369 3.88599 57.3598 3.79133 57.2208 3.65232C57.0818 3.5133 56.9871 3.3361 56.9488 3.14328C56.9104 2.95046 56.9301 2.75063 57.0053 2.569C57.0806 2.38736 57.208 2.23215 57.3714 2.12292C57.5349 2.0137 57.7271 1.95533 57.9237 1.95533ZM44.8873 22.9603C44.8902 23.1807 44.8198 23.3958 44.6871 23.5719C44.5544 23.7479 44.3669 23.8748 44.1542 23.9327C43.9415 23.9905 43.7155 23.976 43.512 23.8914C43.3084 23.8068 43.1387 23.657 43.0296 23.4654C42.92 23.2757 42.875 23.0555 42.9015 22.838C42.9279 22.6205 43.0243 22.4175 43.1762 22.2596C43.3157 22.1236 43.4925 22.0323 43.6841 21.9975C43.8758 21.9627 44.0734 21.9858 44.2518 22.064C44.4427 22.1351 44.6082 22.2614 44.7272 22.4268C44.8462 22.5922 44.9133 22.7892 44.9199 22.9929L44.8873 22.9603ZM33.8878 11.9608C34.0863 11.9613 34.2803 12.0204 34.4455 12.1305C34.6107 12.2406 34.7398 12.397 34.8167 12.58C34.8965 12.762 34.9189 12.9639 34.8811 13.159C34.8432 13.354 34.7469 13.5329 34.6048 13.6718C34.4467 13.814 34.2471 13.9017 34.0355 13.9221C33.8238 13.9424 33.6112 13.8944 33.4288 13.785C33.2465 13.6756 33.104 13.5106 33.0224 13.3143C32.9408 13.1179 32.9242 12.9006 32.9753 12.6941C33.033 12.4891 33.1571 12.3091 33.3281 12.1823C33.4992 12.0555 33.7075 11.9891 33.9204 11.9934L33.8878 11.9608ZM13.8769 7.95217C14.0973 7.94924 14.3125 8.01967 14.4885 8.15238C14.6645 8.28509 14.7915 8.47246 14.8493 8.68519C14.9072 8.89791 14.8926 9.12392 14.8081 9.3275C14.7235 9.53108 14.5736 9.70068 14.3821 9.80978C14.1924 9.9194 13.9721 9.96444 13.7546 9.93799C13.5371 9.91153 13.3341 9.81508 13.1762 9.66318C13.0402 9.52377 12.9489 9.34695 12.9141 9.15534C12.8793 8.96372 12.9024 8.76598 12.9807 8.58762C13.0582 8.40632 13.188 8.25219 13.3534 8.14482C13.5188 8.03746 13.7123 7.98173 13.9095 7.98469L13.8769 7.95217ZM3.87147 17.9575C4.0022 17.9553 4.13199 17.9803 4.2526 18.0307C4.37321 18.0812 4.48204 18.1561 4.57219 18.2508C4.76266 18.4097 4.88688 18.6339 4.92048 18.8796C4.95407 19.1253 4.89462 19.3747 4.75378 19.5788C4.61294 19.7829 4.40089 19.9271 4.15926 19.9829C3.91763 20.0387 3.66387 20.0021 3.4478 19.8804C3.23437 19.7906 3.05897 19.6293 2.95187 19.424C2.84477 19.2187 2.81269 18.9825 2.86116 18.7561C2.92072 18.5282 3.05687 18.3275 3.24676 18.1881C3.43666 18.0486 3.66874 17.9788 3.90407 17.9902L3.87147 17.9575Z" fill="#4D84BD"/>
<path d="M60.925 51.0049H58.9207V11.9935C58.9207 11.7298 58.816 11.477 58.6295 11.2906C58.4431 11.1042 58.1903 10.9995 57.9267 10.9995C57.663 10.9995 57.4102 11.1042 57.2238 11.2906C57.0374 11.477 56.9326 11.7298 56.9326 11.9935V51.0049H52.9239V21.9663C52.9239 21.7027 52.8192 21.4498 52.6328 21.2634C52.4464 21.077 52.1936 20.9723 51.9299 20.9723C51.6663 20.9723 51.4135 21.077 51.227 21.2634C51.0406 21.4498 50.9359 21.7027 50.9359 21.9663V50.9723H46.9272V30.994C46.9272 30.8634 46.9015 30.7342 46.8515 30.6136C46.8016 30.493 46.7283 30.3834 46.636 30.2911C46.5437 30.1988 46.4342 30.1256 46.3136 30.0757C46.193 30.0257 46.0637 30 45.9332 30C45.6695 30 45.4167 30.1047 45.2303 30.2911C45.0439 30.4775 44.9391 30.7304 44.9391 30.994V51.0049H40.9304V32.9984C40.9304 32.8679 40.9047 32.7386 40.8548 32.618C40.8048 32.4974 40.7316 32.3878 40.6393 32.2955C40.547 32.2032 40.4374 32.1299 40.3168 32.08C40.1962 32.03 40.067 32.0043 39.9364 32.0043C39.6728 32.0043 39.4199 32.1091 39.2335 32.2955C39.0471 32.4819 38.9424 32.7348 38.9424 32.9984V51.0049H34.9337V25.9912C34.9337 25.7276 34.829 25.4748 34.6425 25.2884C34.4561 25.1019 34.2033 24.9972 33.9397 24.9972C33.676 24.9972 33.4232 25.1019 33.2368 25.2884C33.0504 25.4748 32.9456 25.7276 32.9456 25.9912V51.0049H28.9043V35.0027C28.9043 34.7391 28.7996 34.4862 28.6132 34.2998C28.4268 34.1134 28.174 34.0087 27.9103 34.0087C27.6467 34.0087 27.3939 34.1134 27.2074 34.2998C27.021 34.4862 26.9163 34.7391 26.9163 35.0027V51.0049H22.9239V40.0054C22.9239 39.7418 22.8192 39.489 22.6328 39.3026C22.4463 39.1161 22.1935 39.0114 21.9299 39.0114C21.6662 39.0114 21.4134 39.1161 21.227 39.3026C21.0406 39.489 20.9358 39.7418 20.9358 40.0054V51.0049H16.9271V21.9663C16.9271 21.7027 16.8224 21.4498 16.636 21.2634C16.4496 21.077 16.1967 20.9723 15.9331 20.9723C15.6695 20.9723 15.4166 21.077 15.2302 21.2634C15.0438 21.4498 14.9391 21.7027 14.9391 21.9663V50.9723H10.9793V25.9912C10.9793 25.7276 10.8746 25.4748 10.6881 25.2884C10.5017 25.1019 10.2489 24.9972 9.98525 24.9972C9.72162 24.9972 9.46879 25.1019 9.28237 25.2884C9.09595 25.4748 8.99123 25.7276 8.99123 25.9912V51.0049H4.98254V30C4.98254 29.7363 4.87781 29.4835 4.6914 29.2971C4.50498 29.1107 4.25215 29.006 3.98851 29.006C3.72488 29.006 3.47205 29.1107 3.28563 29.2971C3.09922 29.4835 2.99449 29.7363 2.99449 30V51.0049H0.990121C0.726489 51.0049 0.473654 51.1096 0.287238 51.296C0.100822 51.4825 -0.00390625 51.7353 -0.00390625 51.9989C-0.00390625 52.2626 0.100822 52.5154 0.287238 52.7018C0.473654 52.8882 0.726489 52.9929 0.990121 52.9929H61.0065C61.137 52.9929 61.2663 52.9673 61.3869 52.9173C61.5075 52.8674 61.6171 52.7941 61.7094 52.7018C61.8017 52.6095 61.8749 52.5 61.9249 52.3794C61.9748 52.2588 62.0005 52.1295 62.0005 51.9989C61.9878 51.7252 61.8679 51.4674 61.6666 51.2814C61.4654 51.0954 61.1989 50.9961 60.925 51.0049Z" fill="#4D84BD"/>
</svg>
