<svg width="59" height="60" viewBox="0 0 59 60" fill="none" xmlns="http://www.w3.org/2000/svg">
<path d="M58.7313 4.07495C58.6576 3.98479 58.5662 3.9108 58.4626 3.85762C58.3591 3.80444 58.2456 3.77321 58.1294 3.76588L45.116 2.65976L44.8883 0.772761C44.8743 0.657011 44.8373 0.545265 44.7797 0.443931C44.722 0.342598 44.6448 0.253778 44.5524 0.182615C44.46 0.111452 44.3544 0.0593476 44.2417 0.0294196C44.1291 -0.000508344 44.0115 -0.00768777 43.896 0.00827209L31.7936 1.53735H31.6472L15.0063 0.122151C14.774 0.103894 14.5438 0.176932 14.3646 0.325783C14.1853 0.474634 14.0713 0.687539 14.0466 0.919205L13.8026 3.83091L0.919304 5.45759C0.68735 5.49 0.477367 5.61211 0.334421 5.79764C0.191475 5.98316 0.126963 6.21738 0.154766 6.44993L6.66146 58.7637C6.62875 58.9957 6.62875 59.2311 6.66146 59.4632C6.7289 59.6229 6.84212 59.7592 6.98686 59.8547C7.1316 59.9503 7.30138 60.0008 7.4748 60H50.7768C50.8922 60 51.0064 59.9772 51.113 59.9331C51.2196 59.8889 51.3164 59.8243 51.398 59.7427C51.4796 59.6612 51.5442 59.5643 51.5884 59.4577C51.6325 59.3511 51.6552 59.237 51.6552 59.1216V57.9666L53.3633 58.113C53.5955 58.1312 53.8257 58.0582 54.005 57.9094C54.1842 57.7605 54.2983 57.5476 54.323 57.3159L58.8126 4.7907C58.8494 4.67227 58.8612 4.54745 58.8471 4.42424C58.8331 4.30102 58.7937 4.18211 58.7313 4.07495ZM6.67774 44.6116L1.9604 7.0518L6.67774 6.46612V44.6116ZM15.6732 1.91145L23.3999 2.57844L15.5268 3.57069L15.6732 1.91145ZM43.1803 1.91145L43.6358 5.50644H14.6159L43.1803 1.91145ZM52.7289 56.2587L51.7528 56.1773V30.3782C51.7528 30.1453 51.6603 29.9218 51.4956 29.7571C51.3309 29.5924 51.1074 29.4999 50.8745 29.4999C50.6415 29.4999 50.4181 29.5924 50.2534 29.7571C50.0886 29.9218 49.9961 30.1453 49.9961 30.3782V58.2107H8.41829V7.3283H49.9635V26.3278C49.9635 26.5608 50.0561 26.7842 50.2208 26.949C50.3855 27.1137 50.6089 27.2062 50.8419 27.2062C51.0749 27.2062 51.2983 27.1137 51.463 26.949C51.6278 26.7842 51.7203 26.5608 51.7203 26.3278V6.35234C51.7203 6.11937 51.6278 5.89595 51.463 5.73122C51.2983 5.56648 51.0749 5.47387 50.8419 5.47387H45.3763L45.2462 4.46534L57.0395 5.47387L52.7289 56.2587Z" fill="#4D84BD"/>
<path d="M46.125 10.1913H41.4239C41.2791 10.1911 41.1366 10.2266 41.0089 10.2947C40.8812 10.3628 40.7723 10.4614 40.6919 10.5817L38.6911 13.5749C36.4678 11.9797 33.7983 11.1259 31.062 11.1348C30.829 11.1348 30.6056 11.2274 30.4408 11.3921C30.2761 11.5568 30.1836 11.7802 30.1836 12.0132V24.2458C30.1836 24.4788 30.2761 24.7022 30.4408 24.8669C30.6056 25.0317 30.829 25.1242 31.062 25.1242H43.2946C43.5275 25.1242 43.751 25.0317 43.9157 24.8669C44.0804 24.7022 44.1729 24.4788 44.1729 24.2458C44.1732 22.4564 43.8067 20.6858 43.0961 19.0435C42.3855 17.4012 41.3458 15.9221 40.0412 14.6973L41.8794 11.9482H46.1087C46.3417 11.9482 46.5651 11.8556 46.7298 11.6908C46.8945 11.5261 46.9871 11.3027 46.9871 11.0697C46.9893 10.9551 46.9686 10.8413 46.9262 10.7348C46.8838 10.6283 46.8207 10.5314 46.7404 10.4496C46.6602 10.3678 46.5644 10.3028 46.4587 10.2585C46.353 10.2141 46.2396 10.1913 46.125 10.1913ZM42.3836 23.3836H31.9404V12.9404C34.0186 13.0986 36.0121 13.8307 37.6988 15.0551L36.918 16.2425C36.7864 16.4367 36.7373 16.6751 36.7816 16.9054C36.8258 17.1358 36.9597 17.3391 37.1538 17.4707C37.348 17.6023 37.5864 17.6513 37.8168 17.6071C38.0471 17.5629 38.2504 17.429 38.382 17.2349L39.0489 16.2262C41.0256 18.1133 42.2411 20.6601 42.465 23.3836H42.3836Z" fill="#4D84BD"/>
<path d="M46.1291 39.3899H38.1421L36.7432 37.1451C39.1116 34.7055 40.4311 31.4358 40.4194 28.0357C40.4194 27.8027 40.3269 27.5793 40.1622 27.4145C39.9974 27.2498 39.774 27.1573 39.541 27.1573H28.1543V15.7706C28.1543 15.5376 28.0618 15.3142 27.897 15.1495C27.7323 14.9847 27.5089 14.8922 27.2759 14.8922C25.1833 14.894 23.1214 15.3961 21.2622 16.3566C19.403 17.317 17.8004 18.7081 16.588 20.4137C15.3755 22.1193 14.5884 24.0901 14.2923 26.1617C13.9961 28.2332 14.1996 30.3456 14.8855 32.3227C15.5715 34.2997 16.7202 36.084 18.2358 37.5269C19.7514 38.9699 21.59 40.0296 23.5983 40.6177C25.6066 41.2057 27.7264 41.3052 29.781 40.9077C31.8355 40.5102 33.7653 39.6272 35.4093 38.3325L36.9058 40.7238C36.9838 40.8525 37.0937 40.9589 37.2247 41.033C37.3557 41.107 37.5036 41.1462 37.6541 41.1466H46.1291C46.3663 41.1466 46.5939 41.0524 46.7617 40.8846C46.9295 40.7168 47.0237 40.4893 47.0237 40.252C47.0237 40.0147 46.9295 39.7871 46.7617 39.6194C46.5939 39.4516 46.3663 39.3573 46.1291 39.3573V39.3899ZM33.7012 32.2651C33.6393 32.1668 33.5586 32.0817 33.4638 32.0146C33.369 31.9475 33.2618 31.8998 33.1485 31.8741C33.0352 31.8484 32.918 31.8453 32.8035 31.865C32.689 31.8846 32.5795 31.9265 32.4812 31.9885C32.383 32.0504 32.2979 32.1311 32.2308 32.226C32.1638 32.3208 32.116 32.428 32.0903 32.5413C32.0646 32.6546 32.0615 32.7718 32.0812 32.8863C32.1008 33.0008 32.1428 33.1102 32.2047 33.2085L34.4658 36.836C33.0846 37.9824 31.4519 38.7859 29.701 39.1812C27.9501 39.5765 26.1306 39.5522 24.3908 39.1104C22.6511 38.6686 21.0404 37.8217 19.6903 36.6389C18.3402 35.4561 17.2887 33.9709 16.6219 32.3044C15.955 30.6379 15.6916 28.8374 15.8531 27.0497C16.0145 25.262 16.5963 23.5378 17.551 22.0177C18.5057 20.4977 19.8062 19.2249 21.3465 18.3032C22.8867 17.3815 24.623 16.837 26.4138 16.7141V28.1008C26.4138 28.2161 26.4365 28.3303 26.4806 28.4369C26.5248 28.5434 26.5895 28.6403 26.6711 28.7219C26.7526 28.8035 26.8494 28.8682 26.956 28.9123C27.0626 28.9565 27.1768 28.9792 27.2922 28.9792H38.6789C38.4893 31.4548 37.4887 33.7989 35.8322 35.6485L33.7012 32.2651Z" fill="#4D84BD"/>
<path d="M19.7732 44.0914H12.2417C12.0087 44.0914 11.7853 44.184 11.6206 44.3487C11.4558 44.5134 11.3633 44.7369 11.3633 44.9698C11.3633 45.2028 11.4558 45.4262 11.6206 45.591C11.7853 45.7557 12.0087 45.8482 12.2417 45.8482H19.7732C20.0061 45.8482 20.2295 45.7557 20.3943 45.591C20.559 45.4262 20.6516 45.2028 20.6516 44.9698C20.6516 44.7369 20.559 44.5134 20.3943 44.3487C20.2295 44.184 20.0061 44.0914 19.7732 44.0914Z" fill="#4D84BD"/>
<path d="M31.0779 44.0911H23.5464C23.3134 44.0911 23.09 44.1837 22.9253 44.3484C22.7605 44.5132 22.668 44.7366 22.668 44.9696C22.668 45.2025 22.7605 45.426 22.9253 45.5907C23.09 45.7554 23.3134 45.8479 23.5464 45.8479H31.0779C31.3109 45.8479 31.5343 45.7554 31.699 45.5907C31.8637 45.426 31.9563 45.2025 31.9563 44.9696C31.9585 44.8536 31.9373 44.7384 31.8939 44.6308C31.8505 44.5232 31.7859 44.4255 31.7039 44.3435C31.6219 44.2615 31.5242 44.1969 31.4166 44.1535C31.3091 44.1102 31.1939 44.0889 31.0779 44.0911Z" fill="#4D84BD"/>
<path d="M24.4743 48.7922H12.2417C12.0087 48.7922 11.7853 48.8847 11.6206 49.0495C11.4558 49.2142 11.3633 49.4377 11.3633 49.6707C11.3633 49.9037 11.4558 50.1271 11.6206 50.2918C11.7853 50.4566 12.0087 50.5491 12.2417 50.5491H24.4743C24.7072 50.5491 24.9307 50.4566 25.0954 50.2918C25.2601 50.1271 25.3527 49.9037 25.3527 49.6707C25.3527 49.4377 25.2601 49.2142 25.0954 49.0495C24.9307 48.8847 24.7072 48.7922 24.4743 48.7922Z" fill="#4D84BD"/>
<path d="M31.0799 48.7922H28.2495C28.0165 48.7922 27.7931 48.8847 27.6284 49.0495C27.4637 49.2142 27.3711 49.4377 27.3711 49.6707C27.3711 49.9037 27.4637 50.1271 27.6284 50.2918C27.7931 50.4566 28.0165 50.5491 28.2495 50.5491H31.0799C31.3129 50.5491 31.5363 50.4566 31.701 50.2918C31.8658 50.1271 31.9583 49.9037 31.9583 49.6707C31.9583 49.4377 31.8658 49.2142 31.701 49.0495C31.5363 48.8847 31.3129 48.7922 31.0799 48.7922Z" fill="#4D84BD"/>
<path d="M15.9993 53.5096H12.2417C12.0087 53.5096 11.7853 53.6021 11.6206 53.7669C11.4558 53.9316 11.3633 54.155 11.3633 54.388C11.3633 54.621 11.4558 54.8444 11.6206 55.0091C11.7853 55.1738 12.0087 55.2664 12.2417 55.2664H15.9993C16.2323 55.2664 16.4557 55.1738 16.6204 55.0091C16.7852 54.8444 16.8777 54.621 16.8777 54.388C16.8799 54.272 16.8587 54.1568 16.8153 54.0492C16.772 53.9417 16.7074 53.844 16.6253 53.762C16.5433 53.68 16.4456 53.6153 16.338 53.572C16.2304 53.5286 16.1153 53.5074 15.9993 53.5096Z" fill="#4D84BD"/>
<path d="M31.0815 53.5096H19.6948C19.4619 53.5096 19.2384 53.6021 19.0737 53.7669C18.909 53.9316 18.8164 54.155 18.8164 54.388C18.8164 54.621 18.909 54.8444 19.0737 55.0091C19.2384 55.1738 19.4619 55.2664 19.6948 55.2664H31.0815C31.3145 55.2664 31.5379 55.1738 31.7027 55.0091C31.8674 54.8444 31.96 54.621 31.96 54.388C31.9622 54.272 31.9409 54.1568 31.8976 54.0492C31.8542 53.9417 31.7896 53.844 31.7076 53.762C31.6256 53.68 31.5279 53.6153 31.4203 53.572C31.3127 53.5286 31.1975 53.5074 31.0815 53.5096Z" fill="#4D84BD"/>
</svg>
