<svg width="61" height="60" viewBox="0 0 61 60" fill="none" xmlns="http://www.w3.org/2000/svg">
<path d="M6.4173 11.466C4.96047 11.4698 3.56437 12.0502 2.53423 13.0803C1.50409 14.1105 0.923691 15.5066 0.919922 16.9634V18.1628C0.919922 18.3938 1.01169 18.6154 1.17504 18.7787C1.33838 18.9421 1.55993 19.0338 1.79094 19.0338C2.02194 19.0338 2.24349 18.9421 2.40684 18.7787C2.57018 18.6154 2.66195 18.3938 2.66195 18.1628V16.9634C2.66195 15.9674 3.0576 15.0122 3.76187 14.3079C4.46614 13.6037 5.42132 13.208 6.4173 13.208H15.1846V11.466H6.4173Z" fill="#4D84BD"/>
<path fill-rule="evenodd" clip-rule="evenodd" d="M54.6378 13.1652C55.6338 13.1652 56.589 13.5608 57.2933 14.2651C57.9975 14.9693 58.3932 15.9246 58.3932 16.9205V43.2366H56.7083V43.1081C56.7083 42.8771 56.6165 42.6555 56.4532 42.4922C56.2898 42.3288 56.0683 42.237 55.8372 42.237C55.6062 42.237 55.3847 42.3288 55.2214 42.4922C55.058 42.6555 54.9662 42.8771 54.9662 43.1081V43.2366H12.1295C11.8985 43.2366 11.6769 43.3283 11.5136 43.4917C11.3502 43.655 11.2585 43.8766 11.2585 44.1076C11.2585 44.3386 11.3502 44.5601 11.5136 44.7235C11.6769 44.8868 11.8985 44.9786 12.1295 44.9786H58.4931V45.2642C58.4931 46.2602 58.0975 47.2154 57.3932 47.9196C56.6889 48.6239 55.7338 49.0195 54.7378 49.0195H6.41791C5.42193 49.0195 4.46675 48.6239 3.76248 47.9196C3.05821 47.2154 2.66256 46.2602 2.66256 45.2642V44.9786H8.37413C8.60514 44.9786 8.82668 44.8868 8.99003 44.7235C9.15338 44.5601 9.24514 44.3386 9.24514 44.1076C9.24514 43.8766 9.15338 43.655 8.99003 43.4917C8.82668 43.3283 8.60514 43.2366 8.37413 43.2366H6.13234V16.9205C6.13234 16.8448 6.16243 16.7722 6.21598 16.7186C6.26954 16.6651 6.34217 16.635 6.41791 16.635H15.1852V14.8929H6.41791C5.88131 14.8967 5.36775 15.1115 4.98831 15.491C4.60887 15.8704 4.39405 16.3839 4.39031 16.9205V43.2366H2.64828V21.8182C2.64828 21.5872 2.55651 21.3657 2.39317 21.2023C2.22982 21.039 2.00827 20.9472 1.77726 20.9472C1.54626 20.9472 1.32471 21.039 1.16136 21.2023C0.998018 21.3657 0.90625 21.5872 0.90625 21.8182V45.2642C0.910019 46.7211 1.49042 48.1171 2.52056 49.1473C3.5507 50.1774 4.94679 50.7578 6.40363 50.7616H21.5107C21.4053 52.1549 21.0675 53.5207 20.5112 54.8025H16.7273C16.0381 54.8025 15.3771 55.0763 14.8897 55.5637C14.4023 56.051 14.1285 56.7121 14.1285 57.4013C14.1285 58.0905 14.4023 58.7515 14.8897 59.2389C15.3771 59.7262 16.0381 60 16.7273 60H44.2428C44.932 60 45.593 59.7262 46.0804 59.2389C46.5677 58.7515 46.8415 58.0905 46.8415 57.4013C46.8415 56.7121 46.5677 56.051 46.0804 55.5637C45.593 55.0763 44.932 54.8025 44.2428 54.8025H40.4874C39.9283 53.5217 39.5903 52.1553 39.4879 50.7616H54.595C56.0518 50.7578 57.4479 50.1774 58.4781 49.1473C59.5082 48.1171 60.0886 46.7211 60.0924 45.2642V16.9348C60.0961 16.2135 59.9576 15.4987 59.6846 14.831C59.4116 14.1634 59.0096 13.5563 58.5016 13.0443C57.9936 12.5323 57.3895 12.1255 56.7241 11.8474C56.0586 11.5692 55.3448 11.425 54.6235 11.4232H45.1423V13.1652H54.6378ZM37.803 50.7473H23.2813C23.1723 52.1271 22.8794 53.4861 22.4103 54.7882H38.674C38.2035 53.4865 37.9105 52.1273 37.803 50.7473ZM44.1143 56.5303H44.2856C44.5166 56.5303 44.7382 56.622 44.9015 56.7854C45.0649 56.9487 45.1566 57.1703 45.1566 57.4013C45.1566 57.6323 45.0649 57.8538 44.9015 58.0172C44.7382 58.1805 44.5166 58.2723 44.2856 58.2723H16.7273C16.4963 58.2723 16.2747 58.1805 16.1114 58.0172C15.948 57.8538 15.8563 57.6323 15.8563 57.4013C15.8563 57.1703 15.948 56.9487 16.1114 56.7854C16.2747 56.622 16.4963 56.5303 16.7273 56.5303H44.1143Z" fill="#4D84BD"/>
<path d="M54.6369 16.6349C54.7126 16.6349 54.7852 16.665 54.8388 16.7185C54.8923 16.7721 54.9224 16.8447 54.9224 16.9204V39.3955C54.9224 39.6265 55.0142 39.848 55.1775 40.0114C55.3409 40.1747 55.5624 40.2665 55.7934 40.2665C56.0244 40.2665 56.246 40.1747 56.4093 40.0114C56.5727 39.848 56.6645 39.6265 56.6645 39.3955V16.9204C56.6607 16.3838 56.4459 15.8703 56.0665 15.4909C55.687 15.1114 55.1735 14.8966 54.6369 14.8928L45.1699 14.9928V16.6349H54.6369Z" fill="#4D84BD"/>
<path d="M31.4197 1.31368C30.9653 0.787857 30.4245 0.343552 29.8204 0C29.2245 0.343454 28.6891 0.782426 28.2354 1.29939C27.7011 1.79315 27.2223 2.34376 26.8076 2.94145C26.7482 3.03811 26.7168 3.14932 26.7168 3.26274C26.7168 3.37616 26.7482 3.48737 26.8076 3.58402C26.905 3.75207 27.0557 3.88272 27.2359 3.95524C27.4334 3.97472 27.6323 3.93497 27.8071 3.84103C28.061 3.68861 28.2959 3.50645 28.5067 3.29843C28.6319 3.14082 28.7872 3.00976 28.9637 2.91291C29.0643 3.54542 29.1026 4.18629 29.0779 4.82628V6.73965C29.7062 7.09662 29.7776 7.0966 30.0774 6.93953L30.4201 6.73965C30.3849 5.46232 30.4327 4.18407 30.5629 2.91291C30.7407 3.00774 30.8964 3.13911 31.0198 3.29843C31.2307 3.50645 31.4656 3.68861 31.7195 3.84103C31.8996 3.93454 32.1029 3.97418 32.3049 3.95524C32.4825 3.87839 32.632 3.7488 32.7333 3.58402C32.7897 3.48634 32.8194 3.37553 32.8194 3.26274C32.8194 3.14995 32.7897 3.03913 32.7333 2.94145C32.3587 2.35073 31.9179 1.80463 31.4197 1.31368Z" fill="#4D84BD"/>
<path d="M22.8666 7.95347C21.7386 6.83971 21.4387 6.52557 21.1246 6.52557C20.8104 6.52557 20.5391 6.73976 19.4111 7.95347C18.2831 9.16717 18.0546 9.38136 17.9832 9.6955C17.9688 9.79854 17.978 9.90353 18.0101 10.0025C18.0423 10.1014 18.0966 10.1918 18.1688 10.2666C18.3208 10.3849 18.5049 10.4546 18.6971 10.4665C18.897 10.4665 19.1969 10.2666 19.6396 9.83825L20.2678 9.19572C20.2678 13.8364 20.2678 14.022 20.5249 14.2505C20.5905 14.3311 20.6732 14.396 20.767 14.4406C20.8609 14.4853 20.9635 14.5084 21.0674 14.5084C21.1714 14.5084 21.274 14.4853 21.3678 14.4406C21.4617 14.396 21.5444 14.3311 21.61 14.2505C21.8385 14.022 21.8528 13.8364 21.8528 11.6089V9.19572C22.9237 10.2524 23.2807 10.4665 23.4377 10.4808C23.6322 10.4676 23.8173 10.3925 23.9661 10.2666C24.0979 10.1047 24.1731 9.90415 24.1803 9.6955C24.2516 9.36708 24.0375 9.09578 22.8666 7.95347Z" fill="#4D84BD"/>
<path d="M40.2153 8.01066C39.1301 6.91118 38.7874 6.58276 38.4733 6.58276C38.1591 6.58276 37.8022 6.95402 36.717 8.01066C36.166 8.48803 35.6853 9.04089 35.2891 9.65277C35.353 9.84928 35.466 10.0262 35.6175 10.1668C35.7658 10.3167 35.9542 10.4208 36.1601 10.4666C36.4878 10.3417 36.7813 10.1411 37.0168 9.88123L37.6451 9.31004C37.6451 13.5937 37.6451 13.8365 37.8735 14.1506C37.9346 14.2491 38.0183 14.3315 38.1176 14.3911C38.217 14.4507 38.3291 14.4857 38.4447 14.4933C38.5458 14.4934 38.6459 14.4732 38.7391 14.434C38.8323 14.3948 38.9167 14.3372 38.9873 14.2648C39.1729 14.0792 39.2158 13.7651 39.2158 11.766C39.1832 10.9892 39.2119 10.2109 39.3014 9.43855C39.3014 9.43855 39.6299 9.60993 39.944 9.92407C40.2581 10.2382 40.5865 10.4666 40.815 10.4666C41.0323 10.4557 41.2392 10.37 41.4004 10.2239C41.5436 10.0837 41.6301 9.89559 41.6432 9.6956C41.2687 9.05526 40.7855 8.48505 40.2153 8.01066Z" fill="#4D84BD"/>
<path d="M30.3488 8.12473C30.226 8.009 30.0687 7.93673 29.9009 7.91901C29.7331 7.90128 29.5642 7.93903 29.4199 8.02655C29.2757 8.11407 29.1641 8.24652 29.1024 8.40353C29.0406 8.56053 29.032 8.73346 29.078 8.8958C29.0813 9.16189 29.1396 9.42439 29.2493 9.66683C29.32 9.7508 29.4107 9.81574 29.5129 9.85565C29.6152 9.89556 29.7259 9.90918 29.8348 9.8953C29.9435 9.90667 30.0534 9.89186 30.1552 9.85212C30.257 9.81237 30.3479 9.74884 30.4202 9.66683C30.5253 9.42386 30.5741 9.1603 30.563 8.8958C30.5832 8.75945 30.5746 8.62036 30.5377 8.48754C30.5008 8.35472 30.4365 8.23112 30.3488 8.12473Z" fill="#4D84BD"/>
<path d="M21.5665 15.5783C21.4243 15.463 21.2586 15.3801 21.081 15.3356C20.8756 15.4213 20.697 15.5606 20.5639 15.739C20.4308 15.9173 20.348 16.1281 20.3242 16.3494C20.3283 16.6137 20.4186 16.8693 20.5812 17.0776C20.6368 17.1747 20.7154 17.2567 20.81 17.3164C20.9045 17.3761 21.0123 17.4118 21.1238 17.4203C21.3285 17.4093 21.5218 17.3228 21.6664 17.1776C21.7573 17.0695 21.8256 16.9444 21.8673 16.8095C21.909 16.6746 21.9232 16.5327 21.9092 16.3922C21.9092 15.921 21.8521 15.7497 21.5665 15.5783Z" fill="#4D84BD"/>
<path d="M39.0587 15.7497C38.9537 15.6234 38.8151 15.5294 38.6589 15.4784C38.4735 15.4533 38.2849 15.4831 38.1163 15.5641C37.845 15.7069 37.8164 15.7926 37.8164 16.4351C37.8164 17.0777 37.8164 17.1776 38.1448 17.349C38.4732 17.5203 38.5161 17.5203 38.8017 17.349C39.0872 17.1776 39.1444 17.0634 39.1872 16.5494C39.2287 16.2759 39.1837 15.9964 39.0587 15.7497Z" fill="#4D84BD"/>
<path d="M29.8225 20.5905C30.0177 20.6006 30.2038 20.676 30.3509 20.8046C30.5222 20.9617 30.5793 21.1902 30.565 21.6471C30.5508 22.104 30.565 22.2896 30.8935 22.361C31.147 22.4279 31.3848 22.5444 31.5931 22.7037C31.8399 22.9171 32.0393 23.1798 32.1786 23.4748C32.3134 23.7338 32.3538 24.0317 32.2928 24.3172C32.2469 24.4911 32.1406 24.643 31.9929 24.7456C31.8402 24.8154 31.6752 24.8542 31.5075 24.8598C31.3267 24.8475 31.1578 24.7656 31.0362 24.6314C30.9136 24.5086 30.825 24.3561 30.7792 24.1887C30.7792 23.9603 30.6507 23.946 28.923 23.946V25.7451H30.0796C30.5665 25.7361 31.0508 25.8185 31.5075 25.9879C31.7099 26.1365 31.884 26.3203 32.0215 26.5304C32.1921 26.8545 32.2987 27.2084 32.3356 27.5728C32.3833 28.0476 32.3833 28.5259 32.3356 29.0007C32.3236 29.4291 32.1502 29.8371 31.8501 30.143C31.6167 30.3988 31.3288 30.5988 31.0077 30.7285C30.5508 30.857 30.5508 30.8713 30.5508 31.471C30.576 31.7634 30.5005 32.0556 30.3366 32.2991C30.1951 32.4277 30.0135 32.5034 29.8225 32.5133C29.6313 32.4871 29.4497 32.4135 29.2942 32.2991C29.1205 32.0605 29.0486 31.7626 29.0943 31.471C29.0943 30.8713 29.0943 30.857 28.6374 30.7142C28.3389 30.612 28.0661 30.4464 27.8378 30.2287C27.6169 29.9854 27.4599 29.691 27.3808 29.372C27.2845 29.1141 27.2845 28.8302 27.3808 28.5724C27.4549 28.4379 27.5515 28.3172 27.6664 28.2154C27.7999 28.1502 27.9463 28.116 28.0948 28.1154C28.2857 28.1253 28.4673 28.201 28.6088 28.3296C28.7403 28.4778 28.8248 28.6616 28.8516 28.8579C28.8516 29.1578 28.8516 29.1578 30.7221 29.1578V27.4586L29.6226 27.3586C29.133 27.3411 28.6501 27.2397 28.1947 27.0588C27.9531 26.8878 27.749 26.6691 27.595 26.4162C27.3666 26.0593 27.338 25.788 27.338 24.7599C27.338 23.7318 27.338 23.5033 27.7093 23.0464C28.0875 22.6394 28.5894 22.3684 29.1372 22.2754V21.6471C29.1372 21.1759 29.1372 20.9474 29.3371 20.7903C29.4771 20.6797 29.6452 20.6105 29.8225 20.5905Z" fill="#4D84BD"/>
<path d="M35.019 25.5881C35.2224 25.604 35.4141 25.6898 35.5616 25.8308C35.6461 25.9228 35.7111 26.0309 35.7529 26.1487C35.7946 26.2665 35.8121 26.3915 35.8043 26.5162C35.8023 26.7749 35.7387 27.0295 35.6187 27.2587C35.5591 27.3423 35.4796 27.4096 35.3873 27.4545C35.295 27.4994 35.1929 27.5204 35.0904 27.5157C34.9289 27.5231 34.7678 27.4938 34.6192 27.43C34.4996 27.3135 34.4069 27.1722 34.3479 27.016C34.2801 26.8312 34.2323 26.6397 34.2051 26.4448C34.2349 26.2424 34.3243 26.0534 34.4621 25.9022C34.5271 25.813 34.6104 25.7389 34.7065 25.6847C34.8025 25.6305 34.9091 25.5976 35.019 25.5881Z" fill="#4D84BD"/>
<path d="M24.6513 25.5734C24.8236 25.5904 24.9849 25.666 25.1082 25.7876C25.2472 25.9581 25.345 26.1585 25.3938 26.373C25.4657 26.591 25.4657 26.8262 25.3938 27.0442C25.3225 27.1888 25.2258 27.3194 25.1082 27.4297C24.9518 27.5029 24.778 27.5309 24.6065 27.5108C24.4349 27.4906 24.2724 27.423 24.1372 27.3155C23.9714 27.0885 23.8906 26.8106 23.9088 26.5301C23.9088 26.0589 23.9088 25.9304 24.1944 25.7733C24.3296 25.673 24.4858 25.6047 24.6513 25.5734Z" fill="#4D84BD"/>
<path fill-rule="evenodd" clip-rule="evenodd" d="M32.9343 17.7916C32.0235 17.4461 31.0516 17.2906 30.0785 17.3347C29.3046 17.2978 28.5289 17.3457 27.7653 17.4775C27.2285 17.61 26.6993 17.772 26.1804 17.963C25.6107 18.1979 25.0614 18.4798 24.5383 18.8055C24.0302 19.1336 23.5524 19.5063 23.1104 19.9192C22.735 20.2949 22.3911 20.7008 22.0823 21.1329C21.7988 21.5619 21.5459 22.0105 21.3255 22.4751C21.0844 23.031 20.884 23.6037 20.7258 24.1886C20.5253 24.9622 20.434 25.76 20.4545 26.5589C20.4048 27.3588 20.4966 28.1612 20.7258 28.9292C20.9185 29.5823 21.1669 30.2177 21.4683 30.8283C21.7822 31.3948 22.1353 31.9388 22.525 32.4561C22.9227 32.9324 23.3624 33.372 23.8386 33.7697C24.3575 34.1643 24.9066 34.5176 25.4807 34.8264C26.0693 35.118 26.6805 35.3615 27.3084 35.5546C27.908 35.7123 28.5191 35.8221 29.1361 35.883C29.7652 35.9229 30.3967 35.899 31.0209 35.8116C31.6662 35.7021 32.3014 35.5397 32.92 35.3261C33.5423 35.084 34.14 34.7827 34.7049 34.4266C35.2101 34.105 35.6877 33.742 36.1328 33.3414C36.5413 32.9706 36.9055 32.5538 37.218 32.0991C37.5515 31.6176 37.8567 31.117 38.1318 30.5998C38.3811 30.0473 38.5957 29.4798 38.7744 28.9006C38.9782 28.1376 39.0648 27.348 39.0314 26.5589C39.0454 25.7603 38.9542 24.9634 38.7601 24.1886C38.5003 23.1246 38.0557 22.1145 37.4464 21.2043C37.1544 20.7888 36.8297 20.3973 36.4755 20.0334C36.0111 19.5827 35.5095 19.172 34.9762 18.8055C34.3353 18.3928 33.6505 18.0527 32.9343 17.7916ZM24.7239 20.6474C25.2351 20.2418 25.7851 19.8879 26.366 19.5908C26.9279 19.3134 27.5163 19.0933 28.1223 18.934C28.6696 18.8345 29.223 18.7725 29.7787 18.7483C30.3493 18.7616 30.9178 18.8237 31.4779 18.934C32.1257 19.1044 32.7567 19.3338 33.3627 19.6193C34.0791 19.9661 34.7197 20.4514 35.2475 21.0472C35.7313 21.5333 36.1621 22.0694 36.5326 22.6464C36.805 23.134 37.0435 23.6398 37.2465 24.1601C37.5363 24.9194 37.6438 25.7361 37.5607 26.5446C37.6343 27.345 37.542 28.1519 37.2894 28.9149C37.0875 29.4427 36.844 29.9536 36.5611 30.4428C36.2132 30.9742 35.8216 31.4757 35.3903 31.942C34.8946 32.4193 34.3597 32.854 33.791 33.2414C33.2672 33.5539 32.7179 33.8214 32.149 34.041C31.3878 34.3021 30.5801 34.3995 29.7787 34.3266C28.9715 34.3969 28.1587 34.2947 27.3941 34.0267C26.872 33.8169 26.3661 33.5687 25.8805 33.2843C25.3115 32.9195 24.7805 32.4986 24.2956 32.0277C23.7026 31.4917 23.2179 30.8471 22.8677 30.1286C22.5573 29.4982 22.3271 28.8314 22.1823 28.1438C22.071 27.6366 22.0042 27.1206 21.9824 26.6017C22.004 26.0781 22.0709 25.5574 22.1823 25.0453C22.2958 24.4941 22.4582 23.9541 22.6678 23.4318C22.906 22.9349 23.1829 22.4575 23.4959 22.0039C23.8652 21.5214 24.2761 21.0723 24.7239 20.6617V20.6474Z" fill="#4D84BD"/>
<path d="M40.4033 40.2808H20.6698C20.4388 40.2808 20.2173 40.3726 20.0539 40.5359C19.8906 40.6992 19.7988 40.9208 19.7988 41.1518C19.7988 41.3828 19.8906 41.6044 20.0539 41.7677C20.2173 41.931 20.4388 42.0228 20.6698 42.0228H40.4033C40.6343 42.0228 40.8559 41.931 41.0192 41.7677C41.1826 41.6044 41.2743 41.3828 41.2743 41.1518C41.2743 40.9208 41.1826 40.6992 41.0192 40.5359C40.8559 40.3726 40.6343 40.2808 40.4033 40.2808Z" fill="#4D84BD"/>
</svg>
