<svg width="75" height="60" viewBox="0 0 75 60" fill="none" xmlns="http://www.w3.org/2000/svg">
<path d="M67.3064 6.23173e-10H7.72964C5.93022 0.00465571 4.20583 0.721536 2.93344 1.99393C1.66105 3.26631 0.944171 4.99066 0.939515 6.79009V8.27162C0.939515 8.55695 1.05286 8.83059 1.25462 9.03235C1.45638 9.23411 1.73003 9.34743 2.01536 9.34743C2.30069 9.34743 2.57433 9.23411 2.77609 9.03235C2.97785 8.83059 3.0912 8.55695 3.0912 8.27162V6.79009C3.0912 5.55989 3.57989 4.3801 4.44977 3.51023C5.31965 2.64035 6.49945 2.15163 7.72964 2.15163H67.2888C68.519 2.15163 69.6988 2.64035 70.5687 3.51023C71.4385 4.3801 71.9272 5.55989 71.9272 6.79009V39.2945H69.7932V39.1359C69.7932 38.8505 69.6799 38.5769 69.4781 38.3751C69.2764 38.1734 69.0027 38.0599 68.7174 38.0599C68.432 38.0599 68.1584 38.1734 67.9566 38.3751C67.7549 38.5769 67.6415 38.8505 67.6415 39.1359V39.2945H14.5903C14.305 39.2945 14.0313 39.4078 13.8296 39.6096C13.6278 39.8114 13.5145 40.085 13.5145 40.3703C13.5236 40.6495 13.641 40.9143 13.8418 41.1085C14.0426 41.3027 14.311 41.4111 14.5903 41.4109H71.8567V41.7637C71.8567 42.9939 71.368 44.1737 70.4981 45.0436C69.6283 45.9134 68.4484 46.4022 67.2182 46.4022H7.72964C6.49945 46.4022 5.31965 45.9134 4.44977 45.0436C3.57989 44.1737 3.0912 42.9939 3.0912 41.7637V41.4109H10.1459C10.4312 41.4109 10.7049 41.2976 10.9066 41.0959C11.1084 40.8941 11.2217 40.6205 11.2217 40.3351C11.2217 40.0498 11.1084 39.7762 10.9066 39.5744C10.7049 39.3726 10.4312 39.2593 10.1459 39.2593H7.37692V6.79009C7.37692 6.74377 7.38603 6.6979 7.40376 6.6551C7.42149 6.61231 7.44747 6.57343 7.48023 6.54067C7.51298 6.50792 7.55186 6.48197 7.59466 6.46424C7.63745 6.44652 7.68332 6.43733 7.72964 6.43733H67.2888C67.3823 6.43733 67.4721 6.47452 67.5382 6.54067C67.6044 6.60682 67.6415 6.69654 67.6415 6.79009V34.5502C67.6415 34.8356 67.7549 35.1092 67.9566 35.311C68.1584 35.5127 68.432 35.6261 68.7174 35.6261C69.0027 35.6261 69.2764 35.5127 69.4781 35.311C69.6799 35.1092 69.7932 34.8356 69.7932 34.5502V6.79009C69.7886 6.1273 69.5232 5.49294 69.0546 5.02427C68.5859 4.55559 67.9516 4.29033 67.2888 4.28571H7.72964C7.06686 4.29033 6.43253 4.55559 5.96386 5.02427C5.49519 5.49294 5.22985 6.1273 5.22524 6.79009V39.2945H3.07356V12.8395C3.07356 12.5541 2.96021 12.2805 2.75845 12.0787C2.55669 11.877 2.28305 11.7637 1.99772 11.7637C1.71238 11.7637 1.43874 11.877 1.23698 12.0787C1.03522 12.2805 0.921875 12.5541 0.921875 12.8395V41.7989C0.926531 43.5983 1.64341 45.3228 2.9158 46.5952C4.18819 47.8676 5.91258 48.5844 7.712 48.5891H26.3716C26.2415 50.3101 25.8242 51.9971 25.1371 53.5803H20.4986C19.6473 53.5803 18.8309 53.9184 18.2289 54.5204C17.6269 55.1224 17.2887 55.9388 17.2887 56.7901C17.2887 57.6414 17.6269 58.458 18.2289 59.0599C18.8309 59.6619 19.6473 60 20.4986 60H54.4846C55.3359 60 56.1523 59.6619 56.7543 59.0599C57.3563 58.458 57.6944 57.6414 57.6944 56.7901C57.6944 55.9388 57.3563 55.1224 56.7543 54.5204C56.1523 53.9184 55.3359 53.5803 54.4846 53.5803H49.8637C49.1731 51.9983 48.7557 50.3106 48.6292 48.5891H67.2888C69.0882 48.5844 70.8126 47.8676 72.085 46.5952C73.3574 45.3228 74.0743 43.5983 74.0789 41.7989V6.80774C74.0836 5.9154 73.9118 5.03094 73.5736 4.20519C73.2353 3.37943 72.7372 2.6287 72.1078 1.99608C71.4785 1.36345 70.7303 0.861407 69.9063 0.518853C69.0823 0.1763 68.1988 -1.21028e-05 67.3064 6.23173e-10ZM28.5057 48.5714H46.4422C46.575 50.276 46.9369 51.9548 47.518 53.5627H27.4827C28.0621 51.9543 28.4239 50.2757 28.5586 48.5714H28.5057ZM54.3258 55.7143H54.4493C54.7346 55.7143 55.0082 55.8276 55.21 56.0294C55.4118 56.2311 55.5251 56.5048 55.5251 56.7901C55.5251 57.0754 55.4118 57.3491 55.21 57.5508C55.0082 57.7526 54.7346 57.866 54.4493 57.866H20.5163C20.2309 57.866 19.9573 57.7526 19.7555 57.5508C19.5538 57.3491 19.4404 57.0754 19.4404 56.7901C19.4404 56.5048 19.5538 56.2311 19.7555 56.0294C19.9573 55.8276 20.2309 55.7143 20.5163 55.7143H54.3258Z" fill="#4D84BD"/>
<path d="M44.5708 10.2647H30.4614C29.3372 10.2647 28.2587 10.7101 27.4621 11.5034C26.6655 12.2967 26.2156 13.3733 26.2109 14.4975V28.4482C26.2109 29.0055 26.321 29.5573 26.5348 30.072C26.7487 30.5867 27.062 31.0541 27.4569 31.4474C27.8519 31.8407 28.3206 32.1521 28.8362 32.3638C29.3517 32.5755 29.904 32.6833 30.4614 32.6809H44.5708C45.6934 32.6809 46.77 32.235 47.5638 31.4412C48.3576 30.6474 48.8036 29.5708 48.8036 28.4482V14.4975C48.8059 13.941 48.698 13.3895 48.4861 12.8749C48.2742 12.3603 47.9625 11.8927 47.569 11.4992C47.1755 11.1057 46.7079 10.7941 46.1933 10.5822C45.6787 10.3703 45.1273 10.2624 44.5708 10.2647ZM41.0434 30.547H34.3062V27.1783C34.3062 26.2849 34.6611 25.428 35.2928 24.7963C35.9246 24.1646 36.7814 23.8097 37.6748 23.8097C38.5682 23.8097 39.425 24.1646 40.0568 24.7963C40.6885 25.428 41.0434 26.2849 41.0434 27.1783V30.547ZM35.4173 19.4182C35.4173 18.9717 35.5497 18.5352 35.7978 18.1639C36.0458 17.7927 36.3984 17.5033 36.8109 17.3325C37.2234 17.1616 37.6773 17.1169 38.1152 17.204C38.5531 17.2911 38.9554 17.5061 39.2711 17.8218C39.5868 18.1375 39.8018 18.5398 39.8889 18.9777C39.976 19.4156 39.9313 19.8696 39.7605 20.2821C39.5896 20.6946 39.3002 21.0472 38.929 21.2952C38.5578 21.5433 38.1213 21.6756 37.6748 21.6756C37.3653 21.6975 37.0546 21.6553 36.7621 21.5516C36.4696 21.448 36.2016 21.2851 35.9749 21.0733C35.7481 20.8614 35.5675 20.6052 35.4443 20.3204C35.321 20.0356 35.2578 19.7285 35.2586 19.4182H35.4173ZM46.7401 28.4482C46.7401 29.0048 46.5189 29.5386 46.1253 29.9322C45.7318 30.3258 45.1979 30.547 44.6413 30.547H43.1775V27.1783C43.175 26.2698 42.9484 25.376 42.5176 24.5761C42.0869 23.7761 41.4654 23.0949 40.7083 22.5928C41.3425 21.9869 41.7808 21.2049 41.9666 20.3477C42.1525 19.4905 42.0774 18.5973 41.751 17.7832C41.4246 16.969 40.8619 16.2713 40.1354 15.7799C39.4089 15.2884 38.5519 15.0258 37.6748 15.0258C36.7977 15.0258 35.9407 15.2884 35.2142 15.7799C34.4877 16.2713 33.925 16.969 33.5986 17.7832C33.2722 18.5973 33.1971 19.4905 33.383 20.3477C33.5688 21.2049 34.0071 21.9869 34.6413 22.5928C33.8842 23.0949 33.2627 23.7761 32.832 24.5761C32.4012 25.376 32.1746 26.2698 32.1722 27.1783V30.547H30.7083C30.1517 30.547 29.6179 30.3258 29.2243 29.9322C28.8307 29.5386 28.6095 29.0048 28.6095 28.4482V14.4975C28.6095 14.2219 28.6638 13.949 28.7693 13.6943C28.8748 13.4397 29.0294 13.2084 29.2243 13.0135C29.4191 12.8186 29.6505 12.6639 29.9051 12.5585C30.1598 12.453 30.4327 12.3987 30.7083 12.3987H44.5708C44.8464 12.3987 45.1193 12.453 45.3739 12.5585C45.6285 12.6639 45.8599 12.8186 46.0548 13.0135C46.2497 13.2084 46.4043 13.4397 46.5098 13.6943C46.6152 13.949 46.6695 14.2219 46.6695 14.4975V28.4482H46.7401Z" fill="#4D84BD"/>
<path d="M49.7076 35.6437H25.3336C25.0483 35.6437 24.7747 35.7572 24.5729 35.9589C24.3712 36.1607 24.2578 36.4343 24.2578 36.7197C24.2578 37.005 24.3712 37.2786 24.5729 37.4804C24.7747 37.6822 25.0483 37.7955 25.3336 37.7955H49.7076C49.9929 37.7955 50.2665 37.6822 50.4683 37.4804C50.6701 37.2786 50.7834 37.005 50.7834 36.7197C50.7834 36.4343 50.6701 36.1607 50.4683 35.9589C50.2665 35.7572 49.9929 35.6437 49.7076 35.6437Z" fill="#4D84BD"/>
</svg>
