<svg width="63" height="60" viewBox="0 0 63 60" fill="none" xmlns="http://www.w3.org/2000/svg">
<path d="M61.5089 10.3392H50.1114V6.20353C50.1114 4.55825 49.4578 2.98038 48.2944 1.81699C47.131 0.653606 45.5531 0 43.9078 0C42.2625 0 40.6847 0.653606 39.5213 1.81699C38.3579 2.98038 37.7043 4.55825 37.7043 6.20353V10.3392H8.75445V7.29446C8.75445 7.01809 8.64467 6.75304 8.44925 6.55762C8.25382 6.36219 7.98876 6.25238 7.71239 6.25238H4.60249C3.50564 6.25238 2.45371 6.68811 1.67811 7.46371C0.902522 8.2393 0.466797 9.29123 0.466797 10.3881V51.7613C0.466797 52.8581 0.902522 53.9101 1.67811 54.6856C2.45371 55.4612 3.50564 55.897 4.60249 55.897H61.4926C61.769 55.897 62.0341 55.7872 62.2295 55.5917C62.4249 55.3963 62.5347 55.1313 62.5347 54.8549V11.3487C62.5304 11.0795 62.4205 10.8228 62.2286 10.6339C62.0367 10.445 61.7782 10.3392 61.5089 10.3392ZM2.55092 10.3392C2.55092 9.79081 2.76879 9.26487 3.15659 8.87707C3.54438 8.48928 4.07035 8.27141 4.61877 8.27141H6.68661V47.5767H4.61877C3.89315 47.5788 3.18055 47.7696 2.55092 48.1303V10.3392ZM60.4832 53.7966H4.61877C4.07035 53.7966 3.54438 53.5787 3.15659 53.1909C2.76879 52.8031 2.55092 52.2772 2.55092 51.7287C2.55092 51.1803 2.76879 50.6543 3.15659 50.2665C3.54438 49.8787 4.07035 49.6609 4.61877 49.6609H7.72868C8.00225 49.6609 8.26487 49.5533 8.45983 49.3614C8.6548 49.1695 8.76646 48.9087 8.77074 48.6351V12.4234H37.7531C37.7881 13.1557 37.9914 13.8701 38.3472 14.5111C38.703 15.1521 39.2017 15.7024 39.8047 16.1195V16.787L35.4411 17.8779C34.3204 18.1547 33.3249 18.7991 32.6135 19.7082C31.9022 20.6173 31.5161 21.7385 31.517 22.8928V30.0896H33.5849V22.9743C33.5881 22.2837 33.8199 21.6137 34.2441 21.0688C34.6683 20.5239 35.2609 20.1347 35.9295 19.962L41.0747 18.6757C41.2985 18.618 41.4967 18.4875 41.6382 18.3047C41.7797 18.122 41.8564 17.8974 41.8563 17.6662V15.5984C41.8543 15.4066 41.8002 15.2189 41.6999 15.0554C41.5995 14.8919 41.4566 14.7588 41.2864 14.6703C40.8342 14.4473 40.4539 14.1014 40.189 13.6724C39.9241 13.2434 39.7853 12.7485 39.7884 12.2443V6.28497C39.7884 5.18812 40.2241 4.13619 40.9997 3.3606C41.7753 2.58501 42.8273 2.14927 43.9241 2.14927C45.021 2.14927 46.0729 2.58501 46.8485 3.3606C47.6241 4.13619 48.0598 5.18812 48.0598 6.28497V12.1791C48.0629 12.6833 47.9241 13.1782 47.6592 13.6073C47.3943 14.0363 47.014 14.3821 46.5618 14.6052C46.3916 14.6937 46.2487 14.8268 46.1483 14.9903C46.048 15.1538 45.9939 15.3415 45.992 15.5333V17.6011C45.9918 17.8322 46.0685 18.0568 46.21 18.2396C46.3515 18.4223 46.5497 18.5529 46.7735 18.6106L51.9187 19.8969C52.5901 20.0644 53.1859 20.4523 53.611 20.9983C54.036 21.5444 54.2657 22.2172 54.2633 22.9091V30.0896H56.3312V22.9743C56.3321 21.82 55.946 20.6987 55.2347 19.7896C54.5233 18.8805 53.5278 18.2361 52.4072 17.9593L48.0435 16.8684V16.2009C48.6465 15.7838 49.1452 15.2335 49.501 14.5925C49.8568 13.9515 50.0601 13.2371 50.0951 12.5048H60.4506V53.8779L60.4832 53.7966Z" fill="#4D84BD"/>
<path d="M35.6523 24.8306H37.7202V32.0762H35.6523V24.8306Z" fill="#4D84BD"/>
<path d="M50.1445 24.8306H52.1635V32.0762H50.0957L50.1445 24.8306Z" fill="#4D84BD"/>
<path d="M26.3398 16.5428H13.9327C13.6563 16.5428 13.3913 16.6526 13.1958 16.848C13.0004 17.0434 12.8906 17.3085 12.8906 17.5849V23.7884C12.8906 24.0648 13.0004 24.3298 13.1958 24.5252C13.3913 24.7207 13.6563 24.8304 13.9327 24.8304H19.1104V28.9661H13.9327C13.6563 28.9661 13.3913 29.0759 13.1958 29.2713C13.0004 29.4668 12.8906 29.7319 12.8906 30.0082V36.2118C12.8906 36.4881 13.0004 36.7532 13.1958 36.9486C13.3913 37.144 13.6563 37.2538 13.9327 37.2538H19.1104V41.3895H13.9327C13.6563 41.3895 13.3913 41.4993 13.1958 41.6947C13.0004 41.8901 12.8906 42.1552 12.8906 42.4315V48.6351C12.8906 48.9115 13.0004 49.1765 13.1958 49.372C13.3913 49.5674 13.6563 49.6772 13.9327 49.6772H26.3398C26.6161 49.6772 26.8812 49.5674 27.0766 49.372C27.272 49.1765 27.3818 48.9115 27.3818 48.6351V42.4315C27.3818 42.1552 27.272 41.8901 27.0766 41.6947C26.8812 41.4993 26.6161 41.3895 26.3398 41.3895H21.2271V37.2538H26.4049C26.6813 37.2538 26.9463 37.144 27.1417 36.9486C27.3372 36.7532 27.447 36.4881 27.447 36.2118V30.0896C27.447 29.8132 27.3372 29.5482 27.1417 29.3528C26.9463 29.1573 26.6813 29.0475 26.4049 29.0475H21.2271V24.9119H26.4049C26.6813 24.9119 26.9463 24.8021 27.1417 24.6066C27.3372 24.4112 27.447 24.1462 27.447 23.8698V17.6663C27.459 17.5171 27.4387 17.3671 27.3876 17.2264C27.3364 17.0858 27.2555 16.9578 27.1505 16.8512C27.0454 16.7445 26.9186 16.6618 26.7787 16.6086C26.6388 16.5554 26.4891 16.5329 26.3398 16.5428ZM25.314 47.5767H14.9748V43.4411H25.314V47.5767ZM25.314 35.1697H14.9748V31.034H25.314V35.1697ZM25.314 22.7463H14.9748V18.692H25.314V22.7463Z" fill="#4D84BD"/>
<path d="M33.584 35.1698H35.6518V37.2377H33.584V35.1698Z" fill="#4D84BD"/>
<path d="M31.5195 39.3055H56.35V41.3733H31.5195V39.3055Z" fill="#4D84BD"/>
<path d="M31.5195 43.4408H56.35V45.5086H31.5195V43.4408Z" fill="#4D84BD"/>
<path d="M31.5195 47.5765H52.1654V49.6281H31.5195V47.5765Z" fill="#4D84BD"/>
<path d="M37.7227 35.1698H56.3495V37.2377H37.7227V35.1698Z" fill="#4D84BD"/>
<path d="M28.4082 57.9321H53.2386V60H28.4082V57.9321Z" fill="#4D84BD"/>
<path d="M55.3047 57.9321H57.3725V60H55.3047V57.9321Z" fill="#4D84BD"/>
<path d="M14.959 6.20355H31.518V8.27143H14.959V6.20355Z" fill="#4D84BD"/>
</svg>
