<svg width="71" height="60" viewBox="0 0 71 60" fill="none" xmlns="http://www.w3.org/2000/svg">
<path d="M32.6183 12.7316V14.7667C32.6183 15.1597 32.7744 15.5365 33.0522 15.8143C33.3301 16.0922 33.7069 16.2483 34.0998 16.2483H36.835C37.0296 16.2483 37.2222 16.21 37.402 16.1355C37.5818 16.061 37.7451 15.9519 37.8827 15.8143C38.0202 15.6768 38.1294 15.5134 38.2038 15.3337C38.2783 15.1539 38.3166 14.9613 38.3166 14.7667V12.7316H40.3517C40.5463 12.7316 40.7389 12.6933 40.9187 12.6188C41.0985 12.5443 41.2618 12.4352 41.3994 12.2976C41.5369 12.1601 41.6461 11.9967 41.7205 11.817C41.795 11.6372 41.8333 11.4446 41.8333 11.25V8.51482C41.8333 8.32026 41.795 8.12761 41.7205 7.94785C41.6461 7.7681 41.5369 7.60477 41.3994 7.4672C41.2618 7.32962 41.0985 7.22048 40.9187 7.14603C40.7389 7.07157 40.5463 7.03324 40.3517 7.03324H38.3166V4.99812C38.3166 4.60518 38.1605 4.22834 37.8827 3.9505C37.6048 3.67265 37.228 3.51654 36.835 3.51654H34.0998C33.7069 3.51654 33.3301 3.67265 33.0522 3.9505C32.7744 4.22834 32.6183 4.60518 32.6183 4.99812V7.03324H30.5831C30.1902 7.03324 29.8134 7.18935 29.5355 7.4672C29.2577 7.74504 29.1016 8.12188 29.1016 8.51482V11.25C29.1016 11.643 29.2577 12.0198 29.5355 12.2976C29.8134 12.5755 30.1902 12.7316 30.5831 12.7316H32.6183ZM31.1692 9.10091H33.2858C33.4675 9.10091 33.6475 9.06512 33.8154 8.99558C33.9833 8.92603 34.1358 8.82413 34.2643 8.69562C34.3929 8.56712 34.4948 8.41452 34.5644 8.24661C34.6339 8.07871 34.6697 7.8988 34.6697 7.71707V5.60051H36.2978V7.71707C36.2978 7.8988 36.3336 8.07871 36.4031 8.24661C36.4727 8.41452 36.5746 8.56712 36.7031 8.69562C36.8316 8.82413 36.9842 8.92603 37.1521 8.99558C37.32 9.06512 37.4999 9.10091 37.6816 9.10091H39.7982V10.729H37.6816C37.3146 10.729 36.9626 10.8748 36.7031 11.1343C36.4436 11.3939 36.2978 11.7459 36.2978 12.1129V14.2295H34.6697V12.1129C34.6697 11.7459 34.5239 11.3939 34.2643 11.1343C34.0048 10.8748 33.6528 10.729 33.2858 10.729H31.1692V9.10091Z" fill="#4D84BD"/>
<path d="M69.4624 29.1265C69.7345 29.1265 69.9953 29.0184 70.1877 28.8261C70.3801 28.6337 70.4881 28.3729 70.4881 28.1008V27.4496C70.4839 26.7989 70.2235 26.176 69.7634 25.7159C69.3033 25.2558 68.6804 24.9954 68.0297 24.9911H64.4641C63.8135 24.9954 63.1906 25.2558 62.7305 25.7159C62.2704 26.176 62.01 26.7989 62.0057 27.4496V27.9055H54.2234L53.4256 26.1145C53.0756 25.3279 52.5046 24.6599 51.782 24.1917C51.0594 23.7234 50.2164 23.4752 49.3554 23.477H38.1215C37.5365 23.4749 36.9567 23.5883 36.4156 23.8107C35.8745 24.0331 35.3826 24.3601 34.9681 24.7731C34.5537 25.186 34.2248 25.6767 34.0004 26.217C33.776 26.7574 33.6605 27.3367 33.6605 27.9218H26.5783L26.7574 27.6287C27.0285 27.1761 27.1717 26.6584 27.1717 26.1308C27.1717 25.6033 27.0285 25.0855 26.7574 24.633L26.3503 23.9492C26.0328 23.4251 25.5862 22.9913 25.0532 22.6891C24.5202 22.387 23.9185 22.2266 23.3058 22.2234H13.5372C12.9245 22.2266 12.3228 22.387 11.7898 22.6891C11.2568 22.9913 10.8102 23.4251 10.4927 23.9492L10.0856 24.633C9.81447 25.0855 9.67126 25.6033 9.67126 26.1308C9.67126 26.6584 9.81447 27.1761 10.0856 27.6287L10.2647 27.9218H8.9297V19.7813C8.92543 19.1306 8.66501 18.5077 8.20489 18.0476C7.74476 17.5875 7.12195 17.3271 6.47125 17.3228H2.90571C2.25501 17.3271 1.63215 17.5875 1.17203 18.0476C0.711907 18.5077 0.451533 19.1306 0.447266 19.7813V39.1719C0.447266 40.5191 0.98248 41.8111 1.9351 42.7638C2.88773 43.7164 4.17972 44.2516 5.52693 44.2516H8.78313V52.0665C8.06472 52.6458 7.54368 53.4337 7.29181 54.3215C7.03994 55.2094 7.06969 56.1536 7.37687 57.0238C7.68406 57.8941 8.2536 58.6477 9.00701 59.1807C9.76042 59.7138 10.6606 60 11.5835 60C12.5064 60 13.4066 59.7138 14.16 59.1807C14.9134 58.6477 15.4829 57.8941 15.7901 57.0238C16.0973 56.1536 16.127 55.2094 15.8752 54.3215C15.6233 53.4337 15.1022 52.6458 14.3838 52.0665V49.8034H56.6167V52.0665C55.8983 52.6458 55.3773 53.4337 55.1254 54.3215C54.8735 55.2094 54.9032 56.1536 55.2104 57.0238C55.5176 57.8941 56.0871 58.6477 56.8405 59.1807C57.5939 59.7138 58.4941 60 59.417 60C60.3399 60 61.2401 59.7138 61.9935 59.1807C62.7469 58.6477 63.3165 57.8941 63.6237 57.0238C63.9309 56.1536 63.9606 55.2094 63.7087 54.3215C63.4568 53.4337 62.9358 52.6458 62.2174 52.0665V44.2028H65.4736C66.8208 44.2028 68.1128 43.6675 69.0654 42.7149C70.0181 41.7623 70.5532 40.4703 70.5532 39.123V32.8061C70.5532 32.534 70.4452 32.2731 70.2528 32.0807C70.0605 31.8884 69.7996 31.7803 69.5276 31.7803C69.2555 31.7803 68.9946 31.8884 68.8023 32.0807C68.6099 32.2731 68.5019 32.534 68.5019 32.8061V39.123C68.5019 39.52 68.4234 39.913 68.271 40.2795C68.1186 40.646 67.8953 40.9787 67.6139 41.2586C67.3325 41.5385 66.9985 41.7601 66.6312 41.9105C66.2639 42.0609 65.8705 42.1372 65.4736 42.135H20.4566C20.1846 42.135 19.9237 42.2431 19.7314 42.4355C19.539 42.6278 19.4309 42.8887 19.4309 43.1607C19.4309 43.4328 19.539 43.6937 19.7314 43.886C19.9237 44.0784 20.1846 44.1865 20.4566 44.1865H56.6005V47.7357H14.3675V44.1865H15.6212C15.8932 44.1865 16.1541 44.0784 16.3464 43.886C16.5388 43.6937 16.6469 43.4328 16.6469 43.1607C16.6469 42.8887 16.5388 42.6278 16.3464 42.4355C16.1541 42.2431 15.8932 42.135 15.6212 42.135H5.54323C4.74289 42.135 3.97513 41.8183 3.40769 41.2539C2.84024 40.6895 2.51929 39.9234 2.51498 39.123V19.7487C2.51498 19.6407 2.55785 19.5372 2.63418 19.4609C2.71051 19.3846 2.81406 19.3416 2.92201 19.3416H6.56894C6.67689 19.3416 6.78043 19.3846 6.85676 19.4609C6.9331 19.5372 6.97596 19.6407 6.97596 19.7487V36.8437C6.98022 37.4167 7.2097 37.965 7.61487 38.3702C8.02003 38.7753 8.56834 39.0049 9.14131 39.0091H61.9243C62.4986 39.0091 63.0494 38.781 63.4555 38.3749C63.8616 37.9688 64.0897 37.418 64.0897 36.8437V27.4333C64.0897 27.3253 64.1326 27.2219 64.2089 27.1455C64.2852 27.0692 64.3887 27.0263 64.4967 27.0263H68.0622C68.1702 27.0263 68.2737 27.0692 68.3501 27.1455C68.4264 27.2219 68.4693 27.3253 68.4693 27.4333V28.0845C68.4602 28.2196 68.4793 28.355 68.5254 28.4823C68.5715 28.6095 68.6434 28.7258 68.7368 28.8238C68.8302 28.9218 68.9429 28.9993 69.0678 29.0514C69.1927 29.1035 69.3271 29.1291 69.4624 29.1265ZM58.6681 44.1702H60.166V51.1059C59.6705 51.0189 59.1636 51.0189 58.6681 51.1059V44.1702ZM59.417 53.1085C59.8936 53.1085 60.3595 53.2498 60.7558 53.5145C61.152 53.7793 61.4608 54.1556 61.6432 54.5959C61.8256 55.0362 61.8733 55.5207 61.7803 55.9881C61.6874 56.4555 61.4579 56.8848 61.1209 57.2218C60.7839 57.5588 60.3546 57.7883 59.8872 57.8813C59.4197 57.9743 58.9352 57.9266 58.4949 57.7442C58.0546 57.5618 57.6783 57.253 57.4136 56.8567C57.1488 56.4604 57.0075 55.9946 57.0075 55.518C57.0074 54.8846 57.2568 54.2765 57.7016 53.8256C58.1465 53.3746 58.7511 53.117 59.3845 53.1085H59.417ZM10.8345 44.1702H12.3324V51.1059C11.8369 51.0189 11.33 51.0189 10.8345 51.1059V44.1702ZM11.5835 53.1085C12.06 53.1085 12.5259 53.2498 12.9222 53.5145C13.3184 53.7793 13.6273 54.1556 13.8096 54.5959C13.992 55.0362 14.0397 55.5207 13.9468 55.9881C13.8538 56.4555 13.6243 56.8848 13.2873 57.2218C12.9503 57.5588 12.521 57.7883 12.0536 57.8813C11.5862 57.9743 11.1017 57.9266 10.6614 57.7442C10.2211 57.5618 9.84476 57.253 9.57999 56.8567C9.31522 56.4604 9.17391 55.9946 9.17391 55.518C9.17385 54.8846 9.42325 54.2765 9.86811 53.8256C10.313 53.3746 10.9175 53.117 11.5509 53.1085H11.5835ZM36.2655 26.4239C36.4887 26.1355 36.775 25.902 37.1023 25.7412C37.4296 25.5803 37.7894 25.4964 38.1541 25.4959H42.3871L42.9244 27.8892H35.7607C35.7627 27.3637 35.9277 26.8517 36.2329 26.4239H36.2655ZM11.844 25.675L12.251 24.9911C12.3847 24.7692 12.5733 24.5852 12.7985 24.4569C13.0237 24.3286 13.278 24.2604 13.5372 24.2585H23.3058C23.565 24.2604 23.8193 24.3286 24.0445 24.4569C24.2697 24.5852 24.4582 24.7692 24.592 24.9911L24.999 25.675C25.0795 25.8075 25.1221 25.9595 25.1221 26.1145C25.1221 26.2696 25.0795 26.4216 24.999 26.5541L24.592 27.2379C24.3952 27.5412 24.1031 27.7703 23.7617 27.8892H13.0813C12.7399 27.7703 12.4478 27.5412 12.251 27.2379L11.844 26.5541C11.7635 26.4216 11.7209 26.2696 11.7209 26.1145C11.7209 25.9595 11.7635 25.8075 11.844 25.675ZM9.02738 36.9577C8.99716 36.9577 8.96817 36.9457 8.94679 36.9243C8.92542 36.9029 8.9134 36.8739 8.9134 36.8437V29.9406H12.8208C13.059 29.9654 13.2991 29.9654 13.5372 29.9406H23.3058C23.5439 29.9654 23.784 29.9654 24.0222 29.9406H34.0513L35.7933 36.9577H9.02738ZM37.8936 36.9577L36.1515 29.9406H43.364L44.9921 36.9577H37.8936ZM44.406 25.561H49.2903C49.7559 25.5619 50.2112 25.6977 50.6013 25.952C50.9914 26.2062 51.2994 26.5681 51.4882 26.9937L51.9115 27.9543H44.9921L44.406 25.561ZM54.1746 36.9577H47.0924L45.4643 29.9406H52.8884V30.0708C53.6852 31.8533 54.0957 33.7842 54.0932 35.7366L54.1746 36.9577ZM62.022 36.8437C62.022 36.8739 62.01 36.9029 61.9886 36.9243C61.9672 36.9457 61.9383 36.9577 61.908 36.9577H56.2097V35.7855C56.2179 33.8069 55.8477 31.8451 55.1189 30.0057H61.9243V36.8926L62.022 36.8437Z" fill="#4D84BD"/>
<path d="M35.4672 19.7977C37.425 19.7977 39.3388 19.2172 40.9667 18.1295C42.5945 17.0418 43.8633 15.4958 44.6125 13.687C45.3617 11.8782 45.5578 9.88788 45.1758 7.96769C44.7939 6.04751 43.8511 4.28369 42.4667 2.89931C41.0823 1.51493 39.3186 0.572148 37.3984 0.190199C35.4782 -0.19175 33.4878 0.00431479 31.679 0.753535C29.8703 1.50276 28.3243 2.77151 27.2366 4.39937C26.1489 6.02723 25.5684 7.94107 25.5684 9.89888C25.5727 12.5229 26.6169 15.0382 28.4724 16.8937C30.3278 18.7491 32.8432 19.7934 35.4672 19.7977ZM35.4672 2.03513C37.0193 2.03513 38.5365 2.49537 39.827 3.35766C41.1175 4.21995 42.1233 5.44555 42.7173 6.87948C43.3112 8.31341 43.4666 9.89129 43.1638 11.4135C42.861 12.9358 42.1137 14.3341 41.0162 15.4316C39.9187 16.5291 38.5204 17.2764 36.9981 17.5792C35.4759 17.882 33.898 17.7266 32.4641 17.1327C31.0302 16.5387 29.8046 15.5329 28.9423 14.2424C28.08 12.9519 27.6197 11.4347 27.6197 9.88258C27.6197 7.80131 28.4465 5.80527 29.9182 4.33359C31.3899 2.8619 33.3859 2.03513 35.4672 2.03513Z" fill="#4D84BD"/>
</svg>
