<svg width="28" height="28" viewBox="0 0 28 28" fill="none" xmlns="http://www.w3.org/2000/svg">
<path d="M5.67578 13.6455C5.67578 13.9092 5.79004 14.1729 5.99219 14.3662L11.793 20.1582C12.0039 20.3604 12.2324 20.457 12.4873 20.457C13.041 20.457 13.4453 20.0615 13.4453 19.5254C13.4453 19.2441 13.3398 19.0068 13.1553 18.8311L11.1777 16.8271L8.62891 14.498L10.6768 14.6211L21.3291 14.6211C21.9092 14.6211 22.3135 14.2168 22.3135 13.6455C22.3135 13.0654 21.9092 12.6611 21.3291 12.6611L10.6768 12.6611L8.6377 12.7842L11.1777 10.4551L13.1553 8.45117C13.3398 8.27539 13.4453 8.03809 13.4453 7.75684C13.4453 7.2207 13.041 6.8252 12.4873 6.8252C12.2324 6.8252 11.9951 6.92187 11.7666 7.1416L5.99219 12.916C5.79004 13.1094 5.67578 13.373 5.67578 13.6455Z" fill="#4B84BC"/>
</svg>
