<svg width="16" height="17" viewBox="0 0 16 17" fill="none" xmlns="http://www.w3.org/2000/svg">
<path d="M15.2289 5.48255H11.0175V1.2523C11.0175 1.15193 10.9974 1.05257 10.9585 0.960078C10.9195 0.867589 10.8624 0.783846 10.7906 0.713761C10.7188 0.643676 10.6336 0.588686 10.5402 0.552017C10.4468 0.515348 10.3469 0.497726 10.2466 0.500235H5.73435C5.53489 0.500235 5.3436 0.579467 5.20257 0.720503C5.06153 0.861539 4.9823 1.05284 4.9823 1.2523V5.48255H0.752047C0.552593 5.48255 0.361304 5.56178 0.220268 5.70282C0.0792325 5.84385 0 6.03513 0 6.23458V10.7657C0 10.9651 0.0792325 11.1564 0.220268 11.2974C0.361304 11.4385 0.552593 11.5177 0.752047 11.5177H4.9823V15.7291C4.97979 15.8295 4.9974 15.9293 5.03407 16.0227C5.07073 16.1161 5.12572 16.2013 5.19581 16.2731C5.2659 16.3449 5.34965 16.402 5.44214 16.441C5.53463 16.48 5.63398 16.5 5.73435 16.5H10.2466C10.4511 16.5 10.6471 16.4188 10.7917 16.2742C10.9362 16.1297 11.0175 15.9336 11.0175 15.7291V11.5177H15.2289C15.4284 11.5177 15.6196 11.4385 15.7607 11.2974C15.9017 11.1564 15.9809 10.9651 15.9809 10.7657V6.23458C15.9809 6.03513 15.9017 5.84385 15.7607 5.70282C15.6196 5.56178 15.4284 5.48255 15.2289 5.48255ZM14.4769 9.9948H10.2466C10.1463 9.99477 10.0469 10.0148 9.95441 10.0538C9.86192 10.0927 9.77816 10.1498 9.70808 10.2217C9.63799 10.2935 9.58299 10.3787 9.54632 10.4721C9.50965 10.5655 9.49206 10.6653 9.49457 10.7657V15.0523H6.48639V10.8408C6.4889 10.7405 6.47129 10.6407 6.43462 10.5473C6.39796 10.4539 6.34297 10.3687 6.27288 10.2969C6.2028 10.2251 6.11904 10.168 6.02655 10.129C5.93406 10.09 5.83471 10.07 5.73435 10.07H1.50409V7.06183H5.73435C5.9338 7.06183 6.12509 6.9826 6.26612 6.84157C6.40716 6.70053 6.48639 6.50925 6.48639 6.3098V2.07955H9.49457V6.3098C9.49457 6.50925 9.5738 6.70053 9.71484 6.84157C9.85587 6.9826 10.0472 7.06183 10.2466 7.06183H14.4769V9.9948Z" fill="#EC6608"/>
</svg>
