<svg width="29" height="28" viewBox="0 0 29 28" fill="none" xmlns="http://www.w3.org/2000/svg">
<path d="M22.4219 14.3545C22.4219 14.0908 22.3076 13.8271 22.1055 13.6338L16.3047 7.8418C16.0938 7.63965 15.8652 7.54297 15.6104 7.54297C15.0566 7.54297 14.6523 7.93848 14.6523 8.47461C14.6523 8.75586 14.7578 8.99316 14.9424 9.16894L16.9199 11.1729L19.4688 13.502L17.4209 13.3789L6.76856 13.3789C6.18848 13.3789 5.78418 13.7832 5.78418 14.3545C5.78418 14.9346 6.18848 15.3389 6.76856 15.3389L17.4209 15.3389L19.46 15.2158L16.9199 17.5449L14.9424 19.5488C14.7578 19.7246 14.6523 19.9619 14.6523 20.2432C14.6523 20.7793 15.0566 21.1748 15.6104 21.1748C15.8652 21.1748 16.1025 21.0781 16.3311 20.8584L22.1055 15.084C22.3076 14.8906 22.4219 14.627 22.4219 14.3545Z" fill="#4B84BC"/>
</svg>
